<svg xmlns="http://www.w3.org/2000/svg" width="45.993" height="45.994" viewBox="0 0 45.993 45.994">
  <g id="Group_698" data-name="Group 698" transform="translate(-6.001 -6.012)">
    <path id="Path_3211" data-name="Path 3211" d="M29,52.006a112.879,112.879,0,0,1-16.049-1.148A6.874,6.874,0,0,1,7.15,45.064a112.792,112.792,0,0,1,0-32.112A6.874,6.874,0,0,1,12.942,7.16a112.887,112.887,0,0,1,32.112,0,6.874,6.874,0,0,1,5.792,5.792,112.792,112.792,0,0,1,0,32.112,6.874,6.874,0,0,1-5.792,5.792A112.925,112.925,0,0,1,29,52.006Z" transform="translate(0)" fill="#fbb03b"/>
    <path id="Path_3212" data-name="Path 3212" d="M27.612,15.473l1.908,5.846a1.353,1.353,0,0,0,1.353.988H37.03a1.353,1.353,0,0,1,.839,2.571l-4.98,3.613a1.353,1.353,0,0,0-.514,1.583l1.895,5.846A1.353,1.353,0,0,1,32.077,37.5L27.1,33.891a1.353,1.353,0,0,0-1.664,0L20.44,37.5a1.353,1.353,0,0,1-2.179-1.583l1.895-5.846a1.353,1.353,0,0,0-.514-1.583l-4.98-3.613a1.353,1.353,0,0,1,.839-2.571h6.157a1.353,1.353,0,0,0,1.353-.988l1.895-5.846a1.353,1.353,0,0,1,2.706,0Z" transform="translate(2.746 2.864)" fill="#f6ffb8"/>
  </g>
</svg>
