<svg xmlns="http://www.w3.org/2000/svg" xmlns:xlink="http://www.w3.org/1999/xlink" width="109" height="73" viewBox="0 0 109 73">
  <defs>
    <clipPath id="clip-path">
      <rect id="Rectangle_147" data-name="Rectangle 147" width="52.732" height="36.63" rx="4" fill="#fff" stroke="#707070" stroke-width="1"/>
    </clipPath>
  </defs>
  <g id="Group_125" data-name="Group 125" transform="translate(-288.142 -642)">
    <text id="MakeInIndia" transform="translate(288.142 711)" fill="#fff" font-size="20" font-family="ArialMT, Arial"><tspan x="0" y="0">MakeInIndia</tspan></text>
    <g id="Mask_Group_3" data-name="Mask Group 3" transform="translate(318.096 642)" clip-path="url(#clip-path)">
      <g id="Group_101" data-name="Group 101">
        <path id="Path_1475" data-name="Path 1475" d="M0,0H52.737V36.634H0Z" fill="#fff"/>
        <path id="Path_1476" data-name="Path 1476" d="M0,0H52.737V12.218H0Z" fill="#f93"/>
        <path id="Path_1477" data-name="Path 1477" d="M0,0H52.737V12.2H0Z" transform="translate(0 24.416)" fill="#138808"/>
        <path id="Path_546" data-name="Path 546" d="M19.341,6.86a5.5,5.5,0,1,0,5.5,5.481,5.5,5.5,0,0,0-5.5-5.481m0,.523-.137,2.77.149,1.572.137-1.572-.137-2.77h.393a.225.225,0,0,0,.225.243A.243.243,0,0,0,20.2,7.42l.393.093-.837,2.676-.262,1.553.548-1.5.58-2.694.393.137h0a.225.225,0,0,0,.243.225.262.262,0,0,0,.206-.137l.374.206-1.52,2.376-.562,1.44.917-1.291,1.254-2.452.355.206a.243.243,0,0,0,0,.149.225.225,0,0,0,.225.225.188.188,0,0,0,.188,0l.3.274L20.95,10.789l-1.2,1.1,1.254-1.029,1.871-2.056.274.3a.262.262,0,0,0,0,.188.308.308,0,0,0,.374.225l.206.355-2.452,1.254-1.291.917,1.44-.655,2.32-1.516a3.742,3.742,0,0,0,.206.393.243.243,0,0,0-.149.225.225.225,0,0,0,.225.225h.093l.112.393-2.694.562-1.479.548,1.553-.262,2.619-.841a2.993,2.993,0,0,1,.093.393.243.243,0,0,0,0,.467h0a2.9,2.9,0,0,1,0,.411L21.613,12.2l-1.591.149,1.591.149,2.75-.149a3.162,3.162,0,0,1,0,.43h0a.226.226,0,0,0-.037.449,2.993,2.993,0,0,1-.093.393l-.936-.3-1.684-.548-1.553-.262h0l1.479.548,2.694.58a3.218,3.218,0,0,1-.137.393h0a.225.225,0,0,0-.225.225h0a.169.169,0,0,0,0,.093h0a3.256,3.256,0,0,1-.188.355l-2.32-1.5h0l-1.5-.467h0l.767.523.523.393h0l2.452,1.254a1.87,1.87,0,0,1-.225.355h-.137a.225.225,0,0,0-.225.225.206.206,0,0,0,0,.169l-.274.3-1.871-2.039-1.142-1.179,1.01,1.216L22.8,15.822a2,2,0,0,1-.3.262.149.149,0,0,0-.137,0,.225.225,0,0,0-.225.225.137.137,0,0,0,0,.093l-.369.243-1.254-2.467-.767-1.291h0l.655,1.44,1.5,2.317-.355.188a.206.206,0,0,0-.206-.137.225.225,0,0,0-.225.225h0l-.393.112-.58-2.713L19.6,12.859h0l.149,1.74.841,2.619-.393.093a.225.225,0,0,0-.225-.188.206.206,0,0,0-.225.206h-.411l.149-2.731-.149-1.591L19.2,14.6l.137,2.75H18.91a.206.206,0,0,0-.225-.206.225.225,0,0,0-.225.188l-.393-.093.841-2.619.262-1.553-.548,1.459-.58,2.713-.393-.112a.243.243,0,0,0-.225-.225.274.274,0,0,0-.225.137l-.355-.188,1.5-2.32L19,13.091l-.917,1.291-1.254,2.467-.337-.374a.149.149,0,0,0,0-.137.227.227,0,0,0-.411-.137l-.3-.274,2.056-1.871,1.01-1.216h0l-1.216,1.01-1.871,2.039-.3-.3a.225.225,0,0,0,.107-.18.206.206,0,0,0-.225-.206H15.2a2.115,2.115,0,0,1-.225-.337L17.432,13.6l1.291-.9-1.44.655-2.32,1.5-.188-.355a.232.232,0,0,0-.075-.449h-.092l-.137-.411,2.713-.58,1.479-.548-1.572.262-2.619.841a.7.7,0,0,0-.093-.411.206.206,0,0,0,.206-.206.225.225,0,0,0-.243-.225h0v-.426l2.77.149,1.572-.149-1.572-.149-2.77.149V11.93h0a.225.225,0,0,0,.225-.225.243.243,0,0,0-.206-.243.614.614,0,0,1,.093-.393l2.619.841,1.572.262-1.479-.548-2.619-.58.137-.393h0a.243.243,0,0,0,.243-.225.225.225,0,0,0-.149-.206l.188-.393,2.32,1.516,1.44.655-1.291-.917L14.983,9.828l.225-.355a.206.206,0,0,0,.137,0,.225.225,0,0,0,.225-.225.337.337,0,0,0,0-.188,2,2,0,0,1,.262-.3L17.7,10.818l1.233.992-1.048-1.142L15.831,8.8l.3-.262a.274.274,0,0,0,.188,0,.225.225,0,0,0,.225-.225.449.449,0,0,0,0-.149l.337-.206,1.254,2.452L19.05,11.7l-.655-1.44L16.889,7.965l.355-.206a.225.225,0,0,0,.225.149.243.243,0,0,0,.225-.225h0l.393-.137.58,2.694.562,1.5-.274-1.553-.88-2.638.411-.093a.225.225,0,0,0,.225.206.243.243,0,0,0,.225-.243h.411" transform="translate(7.028 5.975)" fill="navy"/>
        <path id="Path_547" data-name="Path 547" d="M17.173,9.35a.822.822,0,1,1-.822.822.822.822,0,0,1,.822-.822" transform="translate(9.213 8.144)" fill="#fff"/>
        <path id="Path_548" data-name="Path 548" d="M17.086,9.45a.636.636,0,1,1-.636.636.636.636,0,0,1,.636-.636" transform="translate(9.301 8.231)" fill="navy"/>
        <path id="Path_1478" data-name="Path 1478" d="M0,0H52.737V36.634H0Z" fill="none"/>
      </g>
    </g>
  </g>
</svg>
