<svg id="Group_1075" data-name="Group 1075" xmlns="http://www.w3.org/2000/svg" width="25.393" height="12.288" viewBox="0 0 25.393 12.288">
  <path id="Path_3565" data-name="Path 3565" d="M293.69,258l-4.214,10.865H273.282L269.7,258Z" transform="translate(-269 -257.292)" fill="#919191"/>
  <path id="Path_3566" data-name="Path 3566" d="M273.542,238.128q-.713,1.838-1.423,3.676-1.135,2.931-2.267,5.859c-.174.448-.347.9-.521,1.347l.67-.51H255.8c-.653,0-1.312-.028-1.968,0H253.8l.67.51q-.609-1.848-1.215-3.693-.963-2.921-1.923-5.846c-.149-.448-.3-.9-.444-1.347l-.67.878H273.24c.312,0,.625.007.934,0h.042a.694.694,0,1,0,0-1.388H251.2c-.312,0-.625-.007-.934,0h-.042a.7.7,0,0,0-.67.878q.609,1.848,1.215,3.693.963,2.921,1.923,5.846c.149.448.3.9.444,1.347a.717.717,0,0,0,.67.51h14.2c.653,0,1.312.024,1.968,0H270a.721.721,0,0,0,.67-.51q.713-1.838,1.423-3.676,1.135-2.931,2.267-5.859c.174-.448.347-.9.521-1.347a.7.7,0,0,0-.486-.854A.712.712,0,0,0,273.542,238.128Z" transform="translate(-249.522 -237.611)" fill="#919191"/>
</svg>
