<svg xmlns="http://www.w3.org/2000/svg" width="196.959" height="138.146" viewBox="0 0 196.959 138.146">
  <g id="Group_661" data-name="Group 661" transform="translate(-183.5 -6.3)">
    <path id="Path_2950" data-name="Path 2950" d="M313.052,6.3a67.543,67.543,0,0,0-54.373,27.238,54.488,54.488,0,0,0-21-4.169c-29.927,0-54.18,23.97-54.18,53.524s24.253,53.524,54.18,53.524a54.384,54.384,0,0,0,33.427-11.4,67.617,67.617,0,0,0,41.945,14.462c37.222,0,67.407-29.811,67.407-66.6S350.274,6.3,313.052,6.3Z" fill="#2a94f4" opacity="0.1"/>
    <ellipse id="Ellipse_78" data-name="Ellipse 78" cx="94.645" cy="10.743" rx="94.645" ry="10.743" transform="translate(184.787 122.96)" fill="#2a94f4" opacity="0.1"/>
    <path id="Path_2951" data-name="Path 2951" d="M288.312,154.655a2.39,2.39,0,0,0,.836-2.522c-.335-1.776-1.222-4.066-3.95-3.5s-2.612,1.029-3.667-.09-4.7,1.415-3.873,2.625c.386.579.553,1.686-1.042,2.355s-1.763,4.683,1.338,4.246c.785-.116.733,1.081.309,1.544-.939,1.029,1.312,3.667,3.036,1.776S288.312,154.655,288.312,154.655Z" transform="translate(-80.16 -123.703)" fill="#0b4870"/>
    <path id="Path_2952" data-name="Path 2952" d="M390.965,397.682H526.744a8.865,8.865,0,0,0,8.865-8.865V313.665a8.865,8.865,0,0,0-8.865-8.865H390.965a8.865,8.865,0,0,0-8.865,8.865v75.153A8.874,8.874,0,0,0,390.965,397.682Z" transform="translate(-173.047 -260.094)" fill="#ffbe55"/>
    <rect id="Rectangle_184" data-name="Rectangle 184" width="153.522" height="21.667" transform="translate(362.569 78.941) rotate(180)" fill="#0e538c"/>
    <rect id="Rectangle_185" data-name="Rectangle 185" width="108.013" height="5.378" transform="translate(324.467 96.883) rotate(180)" fill="#f7f7f7"/>
    <rect id="Rectangle_186" data-name="Rectangle 186" width="79.308" height="4.066" transform="translate(295.765 105.444) rotate(180)" fill="#f7f7f7"/>
    <rect id="Rectangle_187" data-name="Rectangle 187" width="79.308" height="4.066" transform="translate(295.765 114.012) rotate(180)" fill="#f7f7f7"/>
    <path id="Path_2953" data-name="Path 2953" d="M344.005,943.8l-.515,4.555H340.3V943.2Z" transform="translate(-136.625 -816.355)" fill="#fcd2b1"/>
    <path id="Path_2954" data-name="Path 2954" d="M247.406,943.8l-.515,4.555H243.7V943.2Z" transform="translate(-52.454 -816.355)" fill="#fcd2b1"/>
    <path id="Path_2955" data-name="Path 2955" d="M320.625,206.061c-.1,1.518-.733,2.843-1.4,2.908h-1.9c-.669-.064-1.312-1.377-1.4-2.908-.154-2.509.18-3.4.013-5.906-.1-1.505,5.275-3.127,5.172-1.621Q320.87,202.3,320.625,206.061Z" transform="translate(-115.343 -166.978)" fill="#f7d9c1"/>
    <path id="Path_2956" data-name="Path 2956" d="M411.692,257.1s3.268.515,4.606.849a11.537,11.537,0,0,1,6.022,3.461c.9.823-1.081.926-2.084,1.673s-9.148-1.415-10.859-2.406S410.585,257.1,411.692,257.1Z" transform="translate(-196.36 -218.531)" fill="#f7d9c1"/>
    <path id="Path_2957" data-name="Path 2957" d="M278.275,254.093a2.4,2.4,0,0,0,1.943-2.766s5.726-1.235,8.839-.5,4.516,1.132,4.812,1.235a5.627,5.627,0,0,0-3.307,3.706c-.9,3.255-1.132,3.783-1.132,3.783l-2.084-.309s-1.377,26.273-1.878,28.8-11.014,3.371-15.375.888c0,0-.386-10.486-.386-24.794l-.206-11.721s4.889-.45,6-.45A2.109,2.109,0,0,0,278.275,254.093Z" transform="translate(-74.935 -212.86)" fill="#2a94f4"/>
    <path id="Path_2958" data-name="Path 2958" d="M404.938,283c-1.145-.849-2.174-.682-6.021.515-5.121,1.6-6.819,2.239-7.6,2.573s-1.261,1.454-1.66,2.741a3.49,3.49,0,0,0,.283,2.38,3.034,3.034,0,0,0,1.84.682c.476.013.669-.682.257-2.5-.566-2.5,8.029-2.65,9.225-2.818C402.416,286.413,407.627,285.01,404.938,283Z" transform="translate(-179.519 -240.638)" fill="#ffe3ca"/>
    <path id="Path_2959" data-name="Path 2959" d="M193.6,342.059c0-3.127,4.876-12.854,4.876-12.854,0-.026.013-.039.013-.064v-.013c0-.013.013-.026.013-.039a.013.013,0,0,1,.013-.013c0-.013.013-.013.013-.026l.013-.013.013-.013a.013.013,0,0,0,.013-.013c.013,0,.013-.013.026-.013h.116c.013,0,.013,0,.026.013s.013,0,.026.013a.045.045,0,0,1,.026.013c.013,0,.013.013.026.013s.026.013.039.013a.045.045,0,0,1,.026.013c.013.013.026.013.039.026s.026.013.026.026.026.013.039.026.026.013.039.026.026.026.039.026.026.013.039.026l.039.039c.013.013.026.026.039.026l.039.039.039.039a.177.177,0,0,0,.051.039l.039.039.051.051.039.039.051.051.039.039c.013.026.039.039.051.064l.039.039c.013.026.039.039.051.064l.039.039c.026.026.039.051.064.077l.039.039c.026.026.039.052.064.077s.013.026.026.039.051.064.077.09.013.026.026.026c.026.039.051.064.077.1,0,.013.013.013.013.026a1.11,1.11,0,0,1,.09.129h0c1.235,1.66,1.866,3.294,1.39,4.027-.643,1-4.233,6.086-3.41,7.913S204,351.709,204,351.709l-.759,2.342C203.224,354.077,193.6,346.408,193.6,342.059Z" transform="translate(-8.8 -281.18)" fill="#ffe3ca"/>
    <path id="Path_2960" data-name="Path 2960" d="M227.491,264.241s-1.673-1.827-4.04,2.715a73.891,73.891,0,0,0-3.551,8.016s3.641,6.176,5.249,3.538a37.616,37.616,0,0,0,2.033-3.4C229.215,270.095,227.491,264.241,227.491,264.241Z" transform="translate(-31.717 -224.437)" fill="#2a94f4"/>
    <path id="Path_2961" data-name="Path 2961" d="M306.006,170.8a9.369,9.369,0,0,1,.6,4.529c-.669,4.233-2.38,7.051-7.1,3.487-1.016-.772-1.119-2.264-1.287-2.483a2.243,2.243,0,0,1-1.274-2.226c.116-1.673,1.261-.811,1.48.373l.592,1a.316.316,0,0,0,.219.142h0a.283.283,0,0,0,.3-.335l-.4-1.776a1.738,1.738,0,0,0,2.3-.836c.63-1.518,2.676,1.338,3.525-.669Z" transform="translate(-98.844 -143.335)" fill="#ffe3ca"/>
    <path id="Path_2962" data-name="Path 2962" d="M336.6,979.8h.476a3.791,3.791,0,0,0,3.242,0h.643l.335.978s.656,1.428,3.281.669c1.763-.515,2.676,1.364,2.728,3.139H336.6V979.8Z" transform="translate(-133.401 -848.245)" fill="#0b4870"/>
    <path id="Path_2963" data-name="Path 2963" d="M239.7,979.8h.476a3.791,3.791,0,0,0,3.242,0h.643l.335.978s.656,1.428,3.281.669c1.763-.515,2.676,1.364,2.728,3.139H239.7Z" transform="translate(-48.969 -848.245)" fill="#0b4870"/>
    <path id="Path_2964" data-name="Path 2964" d="M260.052,513.8s.167,28.1-.283,34.945-2.895,21.924-2.895,21.924H252.19s1.287-21.088,1.287-23.1-1.84-19.956-3.615-20.316c-1.673-.335-1.634,14.346-1.724,20.355s-3.911,23.044-3.911,23.044H239.8s2.419-16.263,2.007-23.932c-.219-4.182-.489-11.026-.425-17.91.051-5.738,2.753-14.449,2.753-14.449Z" transform="translate(-49.056 -442.203)" fill="#0b4870"/>
    <g id="Group_660" data-name="Group 660" transform="translate(194.256 69.224)">
      <path id="Path_2965" data-name="Path 2965" d="M267.833,495.365c.412.154.386.129.386.129s3.911,2.393,1.505,4.992c-.823.888-1.969.232-2.393-.772l-.232-.553C267.1,499.148,267.435,495.2,267.833,495.365Z" transform="translate(-267.1 -495.36)" fill="#ffe3ca"/>
    </g>
  </g>
</svg>
