<svg xmlns="http://www.w3.org/2000/svg" xmlns:xlink="http://www.w3.org/1999/xlink" width="115" height="82" viewBox="0 0 115 82">
  <defs>
    <linearGradient id="linear-gradient" x1="0.5" y1="1" x2="0.5" gradientUnits="objectBoundingBox">
      <stop offset="0" stop-color="#00b59c"/>
      <stop offset="1" stop-color="#9cffac"/>
    </linearGradient>
    <linearGradient id="linear-gradient-2" x1="0.5" y1="1" x2="0.5" gradientUnits="objectBoundingBox">
      <stop offset="0" stop-color="#c3ffe8"/>
      <stop offset="0.997" stop-color="#f0fff4"/>
    </linearGradient>
  </defs>
  <g id="Group_126" data-name="Group 126" transform="translate(-42.971 -631)">
    <text id="_100_Secure" data-name="100% Secure" transform="translate(42.971 709)" fill="#fff" font-size="19" font-family="ArialMT, Arial"><tspan x="0" y="0">100% Secure</tspan></text>
    <g id="Group_115" data-name="Group 115" transform="translate(81.316 631)">
      <g id="Path_19916" data-name="Path 19916" transform="translate(0 0)">
        <path id="Path_3269" data-name="Path 3269" d="M77.812,44.969A2.54,2.54,0,0,1,76.9,44.8a31.9,31.9,0,0,1-11.069-6.6A19.568,19.568,0,0,1,60,23.7V8.47a2.552,2.552,0,0,1,2.549-2.549c6.524,0,13.483-6.2,13.553-6.262a2.549,2.549,0,0,1,3.423,0c.067.06,7.044,6.26,13.551,6.26A2.552,2.552,0,0,1,95.624,8.47V23.7A21.717,21.717,0,0,1,94.4,31.137a18.523,18.523,0,0,1-3.5,5.892c-2.767,3.159-6.749,5.7-12.176,7.773A2.543,2.543,0,0,1,77.812,44.969Z" transform="translate(-58.723 2.277)" fill="url(#linear-gradient)"/>
        <path id="Path_3270" data-name="Path 3270" d="M78.089.554a1.269,1.269,0,0,0-.854.33c-.073.066-7.35,6.591-14.409,6.591a1.272,1.272,0,0,0-1.272,1.272V23.98c0,12.34,9.178,17.271,16.082,19.906a1.272,1.272,0,0,0,.907,0c9.68-3.7,16.082-9.46,16.082-19.906V8.747a1.272,1.272,0,0,0-1.272-1.272c-7.04,0-14.336-6.526-14.409-6.591a1.269,1.269,0,0,0-.855-.33m0-2.554a3.819,3.819,0,0,1,2.563.986,31.335,31.335,0,0,0,4.281,3.079,17.217,17.217,0,0,0,8.419,2.857,3.83,3.83,0,0,1,3.826,3.826V23.98a22.987,22.987,0,0,1-1.305,7.87,19.794,19.794,0,0,1-3.738,6.3c-2.907,3.319-7.055,5.977-12.681,8.125a3.826,3.826,0,0,1-2.729,0,33.1,33.1,0,0,1-11.509-6.879A20.8,20.8,0,0,1,59,23.98V8.747a3.83,3.83,0,0,1,3.826-3.826,17.206,17.206,0,0,0,8.427-2.857,31.149,31.149,0,0,0,4.27-3.076A3.819,3.819,0,0,1,78.089-2Z" transform="translate(-59 2)" fill="#fff"/>
      </g>
      <path id="Path_19917" data-name="Path 19917" d="M159.9,151a8.9,8.9,0,1,0,8.9,8.9A8.9,8.9,0,0,0,159.9,151Zm3.448,8.531-3.815,3.815a1.277,1.277,0,0,1-1.8,0l-1.277-1.277a1.277,1.277,0,0,1,1.8-1.8l.373.373,2.917-2.917a1.277,1.277,0,1,1,1.8,1.8Z" transform="translate(-140.814 -135.643)" fill="url(#linear-gradient-2)"/>
    </g>
  </g>
</svg>
