<svg xmlns="http://www.w3.org/2000/svg" width="205.274" height="124.842" viewBox="0 0 205.274 124.842">
  <g id="Group_659" data-name="Group 659" transform="translate(-98.354 -122.152)">
    <path id="Path_2856" data-name="Path 2856" d="M228.747,230.624c-10.047-10.96-20.77-32.37-13.306-52.736.769-2.1,8.1-21.272,24.31-24.871,19.744-4.384,28.91,19.609,51.522,18.77,24.488-.908,33.038-29.762,45.805-26.275,15.1,4.123,26.447,50.835,6.55,79.5C319.657,259.555,255.763,260.094,228.747,230.624Z" transform="translate(-67.947 -13.678)" fill="#efedef"/>
    <path id="Path_2857" data-name="Path 2857" d="M270.519,249.128c-25.177,0-48.678-8.926-62.558-24.066-9.811-10.7-24.025-35.34-15.064-59.793l.764.28c-8.826,24.086,5.213,48.4,14.9,58.963,15.038,16.4,41.528,25.429,69.126,23.56,25.933-1.757,47.652-12.63,59.59-29.83,14.814-21.345,14.092-51.609,7.152-70.7-3.667-10.085-8.879-16.718-14.3-18.2l.215-.785c5.679,1.551,11.092,8.369,14.85,18.705,7.009,19.277,7.73,49.856-7.248,71.438-12.079,17.4-34.022,28.4-60.2,30.178Q274.115,249.13,270.519,249.128Z" transform="translate(-54.372 -3.801)" fill="#efedef"/>
    <path id="Path_2858" data-name="Path 2858" d="M161.569,396.745l-.343-.206c.1-.16,9.65-16.082,11.138-20.049l.374.141C171.238,380.632,161.963,396.089,161.569,396.745Z" transform="translate(-37.28 -150.808)" fill="#8b9d36"/>
    <path id="Path_2859" data-name="Path 2859" d="M180.618,355.981a17.174,17.174,0,0,1,.924,3.1,28.936,28.936,0,0,1,.472,3.138,28.361,28.361,0,0,1,.13,3.171,16.942,16.942,0,0,1-.326,3.214,16.959,16.959,0,0,1-.926-3.1,28.4,28.4,0,0,1-.47-3.138,28.933,28.933,0,0,1-.128-3.171A17.158,17.158,0,0,1,180.618,355.981Z" transform="translate(-48.584 -138.647)" fill="#8b9d36"/>
    <path id="Path_2860" data-name="Path 2860" d="M172.3,367.825a16.381,16.381,0,0,1,1.2,2.918,27.513,27.513,0,0,1,.753,3,27.089,27.089,0,0,1,.416,3.069,16.2,16.2,0,0,1-.034,3.155,16.189,16.189,0,0,1-1.2-2.918,27.089,27.089,0,0,1-.751-3,27.555,27.555,0,0,1-.413-3.069A16.4,16.4,0,0,1,172.3,367.825Z" transform="translate(-43.788 -145.67)" fill="#8b9d36"/>
    <path id="Path_2861" data-name="Path 2861" d="M167.329,381.614a13.9,13.9,0,0,1,1.02,2.713,23.093,23.093,0,0,1,.571,2.777,22.7,22.7,0,0,1,.231,2.825,13.724,13.724,0,0,1-.223,2.89,13.725,13.725,0,0,1-1.022-2.712,22.671,22.671,0,0,1-.569-2.777,23.091,23.091,0,0,1-.229-2.826,13.885,13.885,0,0,1,.22-2.89Z" transform="translate(-40.764 -153.846)" fill="#8b9d36"/>
    <path id="Path_2862" data-name="Path 2862" d="M161.343,395.377a10.642,10.642,0,0,1,1.034,2.309,17.344,17.344,0,0,1,.587,2.386,17.019,17.019,0,0,1,.249,2.444,10.517,10.517,0,0,1-.2,2.522,10.51,10.51,0,0,1-1.036-2.308,17.048,17.048,0,0,1-.585-2.386,17.367,17.367,0,0,1-.247-2.445,10.642,10.642,0,0,1,.2-2.522Z" transform="translate(-37.225 -162.007)" fill="#8b9d36"/>
    <path id="Path_2863" data-name="Path 2863" d="M156.114,403.98a9.58,9.58,0,0,1,1.092,2.027,16.517,16.517,0,0,1,.687,2.1,18.875,18.875,0,0,1,.415,2.156c.045.366.086.73.113,1.1a8.193,8.193,0,0,0,.121,1.127,2.21,2.21,0,0,1-.265-.168l-.216-.216a3.983,3.983,0,0,1-.377-.471,7.553,7.553,0,0,1-.58-1.009,11.234,11.234,0,0,1-.76-2.127,12.589,12.589,0,0,1-.358-2.215A8.337,8.337,0,0,1,156.114,403.98Z" transform="translate(-34.155 -167.108)" fill="#8b9d36"/>
    <path id="Path_2864" data-name="Path 2864" d="M186.244,374.527a13.774,13.774,0,0,1,2.432-2.109,22.542,22.542,0,0,1,2.688-1.6,22.144,22.144,0,0,1,2.882-1.22,13.615,13.615,0,0,1,3.141-.709A13.609,13.609,0,0,1,194.957,371a22.147,22.147,0,0,1-2.69,1.6,22.528,22.528,0,0,1-2.884,1.218A13.772,13.772,0,0,1,186.244,374.527Z" transform="translate(-52.114 -146.299)" fill="#8b9d36"/>
    <path id="Path_2865" data-name="Path 2865" d="M180.375,386.536a16.964,16.964,0,0,1,3-1.964,28.244,28.244,0,0,1,3.2-1.433,27.733,27.733,0,0,1,3.35-1.031,16.771,16.771,0,0,1,3.551-.5,16.774,16.774,0,0,1-3,1.966,27.743,27.743,0,0,1-3.2,1.43,28.24,28.24,0,0,1-3.351,1.029,16.964,16.964,0,0,1-3.551.5Z" transform="translate(-48.634 -153.846)" fill="#8b9d36"/>
    <path id="Path_2866" data-name="Path 2866" d="M173.466,399.1a14.468,14.468,0,0,1,2.7-1.9,23.774,23.774,0,0,1,2.91-1.368,23.35,23.35,0,0,1,3.066-.968,14.3,14.3,0,0,1,3.275-.434,14.3,14.3,0,0,1-2.7,1.9,23.362,23.362,0,0,1-2.911,1.365,23.779,23.779,0,0,1-3.067.965A14.467,14.467,0,0,1,173.466,399.1Z" transform="translate(-44.537 -161.446)" fill="#8b9d36"/>
    <path id="Path_2867" data-name="Path 2867" d="M168.006,410.418a10.846,10.846,0,0,1,2.375-1.564,17.326,17.326,0,0,1,2.544-1.023,17.009,17.009,0,0,1,2.673-.613,10.73,10.73,0,0,1,2.844-.067,10.73,10.73,0,0,1-2.374,1.567,17.009,17.009,0,0,1-2.545,1.021,17.312,17.312,0,0,1-2.673.611,10.851,10.851,0,0,1-2.843.07Z" transform="translate(-41.3 -168.95)" fill="#8b9d36"/>
    <path id="Path_2868" data-name="Path 2868" d="M163.7,416.317a14.265,14.265,0,0,1,2.611-1.984,23.412,23.412,0,0,1,2.836-1.463,23.008,23.008,0,0,1,3.007-1.069,14.106,14.106,0,0,1,3.234-.544,14.1,14.1,0,0,1-2.609,1.986,22.991,22.991,0,0,1-2.837,1.461,23.406,23.406,0,0,1-3.008,1.067A14.267,14.267,0,0,1,163.7,416.317Z" transform="translate(-38.744 -171.423)" fill="#8b9d36"/>
    <path id="Path_2869" data-name="Path 2869" d="M188.017,361.726a10.041,10.041,0,0,1,.078-3.206,15.106,15.106,0,0,1,.817-2.917,14.859,14.859,0,0,1,1.377-2.7,9.941,9.941,0,0,1,2.123-2.405,9.935,9.935,0,0,1-.074,3.208,14.873,14.873,0,0,1-.82,2.915,15.11,15.11,0,0,1-1.38,2.7,10.042,10.042,0,0,1-2.12,2.407Z" transform="translate(-53.11 -135.398)" fill="#8b9d36"/>
    <path id="Path_2870" data-name="Path 2870" d="M157.879,376.858l-.4-.006c.018-1.092.492-26.847,5.644-35l.338.214C158.37,350.123,157.884,376.591,157.879,376.858Z" transform="translate(-35.058 -130.267)" fill="#50661a"/>
    <path id="Path_2871" data-name="Path 2871" d="M163.953,330.587a18.321,18.321,0,0,0,.12-3.605,32.412,32.412,0,0,0-.39-3.5c-.187-1.153-.441-2.3-.739-3.427s-.675-2.236-1.078-3.4a5,5,0,0,0-.258.9,7.993,7.993,0,0,0-.141.911,15.436,15.436,0,0,0-.081,1.808,23.214,23.214,0,0,0,.325,3.543,25.751,25.751,0,0,0,.82,3.45A16.222,16.222,0,0,0,163.953,330.587Z" transform="translate(-37.374 -115.328)" fill="#50661a"/>
    <path id="Path_2872" data-name="Path 2872" d="M176.019,310.819a12.953,12.953,0,0,0-2.255,2.9,20.363,20.363,0,0,0-1.511,3.176,20.014,20.014,0,0,0-.949,3.387,12.814,12.814,0,0,0-.2,3.668,12.814,12.814,0,0,0,2.259-2.9,19.992,19.992,0,0,0,1.508-3.177,20.36,20.36,0,0,0,.945-3.388A12.946,12.946,0,0,0,176.019,310.819Z" transform="translate(-43.107 -111.869)" fill="#50661a"/>
    <path id="Path_2873" data-name="Path 2873" d="M177.607,326.945a29.836,29.836,0,0,0-2.97,2.736c-.918.951-1.794,1.924-2.651,2.9l-2.546,2.922c-.427.478-.859.95-1.315,1.4a6,6,0,0,1-1.554,1.174,2.7,2.7,0,0,0,1.063-.027,4.976,4.976,0,0,0,1.024-.322,9.892,9.892,0,0,0,1.825-1.046,17.907,17.907,0,0,0,3.006-2.78,23.727,23.727,0,0,0,2.388-3.263,16.981,16.981,0,0,0,1.729-3.692Z" transform="translate(-40.449 -121.431)" fill="#50661a"/>
    <path id="Path_2874" data-name="Path 2874" d="M175.223,343.07a24.576,24.576,0,0,0-3.692,2.271,41.825,41.825,0,0,0-3.312,2.692,41.121,41.121,0,0,0-3.025,3.011,24.3,24.3,0,0,0-2.642,3.437,24.3,24.3,0,0,0,3.694-2.269,41.082,41.082,0,0,0,3.311-2.694,41.829,41.829,0,0,0,3.023-3.013,24.575,24.575,0,0,0,2.644-3.435Z" transform="translate(-38.065 -130.992)" fill="#50661a"/>
    <path id="Path_2875" data-name="Path 2875" d="M173.85,355.721a24.3,24.3,0,0,0-3.73,2.157,41.336,41.336,0,0,0-3.362,2.588,40.617,40.617,0,0,0-3.083,2.915,24.033,24.033,0,0,0-2.711,3.35,24.019,24.019,0,0,0,3.732-2.155,40.609,40.609,0,0,0,3.36-2.59,41.331,41.331,0,0,0,3.081-2.917,24.288,24.288,0,0,0,2.712-3.348Z" transform="translate(-37.125 -138.493)" fill="#50661a"/>
    <path id="Path_2876" data-name="Path 2876" d="M172.874,369.245a22.6,22.6,0,0,0-3.736,1.812,38.269,38.269,0,0,0-3.4,2.267,37.624,37.624,0,0,0-3.14,2.611,22.328,22.328,0,0,0-2.8,3.07,22.348,22.348,0,0,0,3.738-1.81,37.628,37.628,0,0,0,3.4-2.269,38.285,38.285,0,0,0,3.138-2.613A22.593,22.593,0,0,0,172.874,369.245Z" transform="translate(-36.436 -146.512)" fill="#50661a"/>
    <path id="Path_2877" data-name="Path 2877" d="M172.6,379.056a25.137,25.137,0,0,0-3.909,1.985,42.823,42.823,0,0,0-3.566,2.437,42.064,42.064,0,0,0-3.307,2.778,24.843,24.843,0,0,0-2.96,3.234,24.845,24.845,0,0,0,3.911-1.983,42.082,42.082,0,0,0,3.565-2.439,42.809,42.809,0,0,0,3.3-2.781A25.14,25.14,0,0,0,172.6,379.056Z" transform="translate(-35.876 -152.33)" fill="#50661a"/>
    <path id="Path_2878" data-name="Path 2878" d="M173.269,388.249a32.77,32.77,0,0,0-4.086,2.268c-1.3.83-2.552,1.708-3.776,2.625s-2.421,1.861-3.593,2.842-2.3,1.986-3.528,2.99a9.879,9.879,0,0,0,2.288-.668,22.368,22.368,0,0,0,2.125-1.023,34.874,34.874,0,0,0,3.9-2.541,40.26,40.26,0,0,0,3.547-2.993A25.5,25.5,0,0,0,173.269,388.249Z" transform="translate(-35.536 -157.78)" fill="#50661a"/>
    <path id="Path_2879" data-name="Path 2879" d="M174.306,397.795a33.7,33.7,0,0,0-4.437,2.109c-1.417.789-2.792,1.637-4.136,2.529s-2.655,1.83-3.934,2.814q-.959.74-1.9,1.506a16.928,16.928,0,0,1-1.928,1.476,3.724,3.724,0,0,0,1.247-.214c.4-.119.792-.264,1.177-.414.769-.305,1.513-.655,2.242-1.025a42.53,42.53,0,0,0,4.2-2.479,48.047,48.047,0,0,0,3.912-2.9,29.734,29.734,0,0,0,3.554-3.4Z" transform="translate(-35.349 -163.441)" fill="#50661a"/>
    <path id="Path_2880" data-name="Path 2880" d="M157.02,341.261a19.888,19.888,0,0,0-.574-3.848,33.416,33.416,0,0,0-1.106-3.653,32.9,32.9,0,0,0-1.509-3.506,19.673,19.673,0,0,0-2.047-3.309,19.676,19.676,0,0,0,.571,3.849,32.889,32.889,0,0,0,1.109,3.652,33.463,33.463,0,0,0,1.512,3.505A19.886,19.886,0,0,0,157.02,341.261Z" transform="translate(-31.681 -121.43)" fill="#50661a"/>
    <path id="Path_2881" data-name="Path 2881" d="M152.079,353.279a20.323,20.323,0,0,0-1.1-3.776,34.222,34.222,0,0,0-1.606-3.512,33.661,33.661,0,0,0-1.986-3.312,20.106,20.106,0,0,0-2.493-3.045,20.109,20.109,0,0,0,1.1,3.777,33.689,33.689,0,0,0,1.609,3.51,34.266,34.266,0,0,0,1.988,3.31A20.348,20.348,0,0,0,152.079,353.279Z" transform="translate(-27.593 -128.955)" fill="#50661a"/>
    <path id="Path_2882" data-name="Path 2882" d="M147.764,364.295a22.262,22.262,0,0,0-1.617-3.791,37.728,37.728,0,0,0-2.087-3.474,37.067,37.067,0,0,0-2.442-3.233,22.011,22.011,0,0,0-2.917-2.913,22.009,22.009,0,0,0,1.615,3.793,37.016,37.016,0,0,0,2.089,3.472,37.686,37.686,0,0,0,2.445,3.232A22.262,22.262,0,0,0,147.764,364.295Z" transform="translate(-23.924 -135.625)" fill="#50661a"/>
    <path id="Path_2883" data-name="Path 2883" d="M142.784,374.787a28.7,28.7,0,0,0-2.315-4.069q-1.29-1.926-2.754-3.71t-3.086-3.438a28.26,28.26,0,0,0-3.529-3.076,28.256,28.256,0,0,0,2.312,4.07q1.29,1.926,2.756,3.708t3.088,3.436a28.666,28.666,0,0,0,3.527,3.078Z" transform="translate(-19.417 -141.324)" fill="#50661a"/>
    <path id="Path_2884" data-name="Path 2884" d="M139.675,388.773a28.989,28.989,0,0,0-2.741-3.825q-1.492-1.79-3.141-3.422t-3.443-3.117A28.55,28.55,0,0,0,126.5,375.7a28.552,28.552,0,0,0,2.739,3.827q1.492,1.79,3.142,3.42t3.445,3.116a28.976,28.976,0,0,0,3.845,2.713Z" transform="translate(-16.692 -150.338)" fill="#50661a"/>
    <path id="Path_2885" data-name="Path 2885" d="M138.183,400.451a25.266,25.266,0,0,0-2.978-3.233,43.036,43.036,0,0,0-3.32-2.781A42.279,42.279,0,0,0,128.307,392a24.972,24.972,0,0,0-3.924-1.982,24.982,24.982,0,0,0,2.976,3.235,42.311,42.311,0,0,0,3.321,2.779,43.076,43.076,0,0,0,3.58,2.436A25.265,25.265,0,0,0,138.183,400.451Z" transform="translate(-15.434 -158.829)" fill="#50661a"/>
    <path id="Path_2886" data-name="Path 2886" d="M135.434,409.3a26.741,26.741,0,0,0-3.479-2.893,44.567,44.567,0,0,0-3.761-2.4q-1.933-1.108-3.974-2.028a26.431,26.431,0,0,0-4.258-1.531,26.434,26.434,0,0,0,3.478,2.895,44.1,44.1,0,0,0,3.762,2.4q1.935,1.1,3.975,2.025A26.75,26.75,0,0,0,135.434,409.3Z" transform="translate(-12.813 -165.013)" fill="#50661a"/>
    <path id="Path_2887" data-name="Path 2887" d="M132.913,417.053a28.882,28.882,0,0,0-4.07-2.344c-1.4-.674-2.82-1.275-4.267-1.813s-2.919-1.008-4.416-1.41a28.463,28.463,0,0,0-4.616-.873,28.46,28.46,0,0,0,4.069,2.347q2.1,1.011,4.268,1.81c1.448.536,2.919,1.008,4.417,1.408A28.879,28.879,0,0,0,132.913,417.053Z" transform="translate(-10.192 -171.041)" fill="#50661a"/>
    <path id="Path_2888" data-name="Path 2888" d="M140.227,396.591c-.394-.656-9.669-16.113-11.169-20.114l.374-.141c1.487,3.967,11.041,19.888,11.138,20.049Z" transform="translate(-18.205 -150.717)" fill="#5e7c24"/>
    <path id="Path_2889" data-name="Path 2889" d="M135.2,355.981a17.172,17.172,0,0,0-.924,3.1,28.939,28.939,0,0,0-.472,3.138,28.363,28.363,0,0,0-.13,3.171A16.943,16.943,0,0,0,134,368.6a16.958,16.958,0,0,0,.926-3.1,28.409,28.409,0,0,0,.47-3.138,28.945,28.945,0,0,0,.128-3.171A17.16,17.16,0,0,0,135.2,355.981Z" transform="translate(-20.939 -138.647)" fill="#5e7c24"/>
    <path id="Path_2890" data-name="Path 2890" d="M142.549,367.825a16.38,16.38,0,0,0-1.2,2.918,27.506,27.506,0,0,0-.753,3,27.089,27.089,0,0,0-.416,3.069,16.2,16.2,0,0,0,.034,3.155,16.187,16.187,0,0,0,1.2-2.918,27.092,27.092,0,0,0,.751-3,27.555,27.555,0,0,0,.413-3.069A16.4,16.4,0,0,0,142.549,367.825Z" transform="translate(-24.765 -145.67)" fill="#5e7c24"/>
    <path id="Path_2891" data-name="Path 2891" d="M148.2,381.614a13.9,13.9,0,0,0-1.02,2.713,23.092,23.092,0,0,0-.571,2.777,22.7,22.7,0,0,0-.231,2.825,13.724,13.724,0,0,0,.223,2.89,13.725,13.725,0,0,0,1.022-2.712,22.662,22.662,0,0,0,.569-2.777,23.088,23.088,0,0,0,.229-2.826,13.886,13.886,0,0,0-.22-2.89Z" transform="translate(-28.47 -153.846)" fill="#5e7c24"/>
    <path id="Path_2892" data-name="Path 2892" d="M154.132,395.377a10.641,10.641,0,0,0-1.034,2.309,17.343,17.343,0,0,0-.587,2.386,17.018,17.018,0,0,0-.249,2.444,10.518,10.518,0,0,0,.2,2.522,10.509,10.509,0,0,0,1.037-2.308,17.05,17.05,0,0,0,.585-2.386,17.372,17.372,0,0,0,.247-2.445,10.642,10.642,0,0,0-.2-2.522Z" transform="translate(-31.959 -162.007)" fill="#5e7c24"/>
    <path id="Path_2893" data-name="Path 2893" d="M158.636,403.98a9.58,9.58,0,0,0-1.092,2.027,16.52,16.52,0,0,0-.687,2.1,18.878,18.878,0,0,0-.415,2.156c-.045.366-.086.73-.113,1.1a8.193,8.193,0,0,1-.121,1.127,2.213,2.213,0,0,0,.265-.168l.215-.216a3.989,3.989,0,0,0,.377-.471,7.552,7.552,0,0,0,.58-1.009,11.232,11.232,0,0,0,.761-2.127,12.589,12.589,0,0,0,.358-2.215,8.336,8.336,0,0,0-.129-2.309Z" transform="translate(-34.305 -167.108)" fill="#5e7c24"/>
    <path id="Path_2894" data-name="Path 2894" d="M116.039,374.527a13.771,13.771,0,0,0-2.432-2.109,22.542,22.542,0,0,0-2.688-1.6,22.143,22.143,0,0,0-2.882-1.22,13.615,13.615,0,0,0-3.141-.709A13.611,13.611,0,0,0,107.327,371a22.148,22.148,0,0,0,2.69,1.6,22.53,22.53,0,0,0,2.884,1.218A13.772,13.772,0,0,0,116.039,374.527Z" transform="translate(-3.879 -146.299)" fill="#5e7c24"/>
    <path id="Path_2895" data-name="Path 2895" d="M119.057,386.536a16.966,16.966,0,0,0-3-1.964,28.252,28.252,0,0,0-3.2-1.433,27.744,27.744,0,0,0-3.35-1.031,16.773,16.773,0,0,0-3.552-.5,16.776,16.776,0,0,0,3,1.966,27.743,27.743,0,0,0,3.2,1.43,28.241,28.241,0,0,0,3.351,1.029A16.964,16.964,0,0,0,119.057,386.536Z" transform="translate(-4.508 -153.846)" fill="#5e7c24"/>
    <path id="Path_2896" data-name="Path 2896" d="M127.635,399.1a14.467,14.467,0,0,0-2.7-1.9,23.774,23.774,0,0,0-2.91-1.368,23.345,23.345,0,0,0-3.066-.968,14.3,14.3,0,0,0-3.275-.434,14.3,14.3,0,0,0,2.7,1.9,23.359,23.359,0,0,0,2.911,1.365,23.779,23.779,0,0,0,3.067.965,14.466,14.466,0,0,0,3.274.437Z" transform="translate(-10.273 -161.446)" fill="#5e7c24"/>
    <path id="Path_2897" data-name="Path 2897" d="M135.308,410.418a10.847,10.847,0,0,0-2.375-1.564,17.325,17.325,0,0,0-2.544-1.023,17.009,17.009,0,0,0-2.673-.613,10.73,10.73,0,0,0-2.844-.067,10.73,10.73,0,0,0,2.374,1.567,17.01,17.01,0,0,0,2.545,1.021,17.316,17.316,0,0,0,2.673.611A10.85,10.85,0,0,0,135.308,410.418Z" transform="translate(-15.723 -168.95)" fill="#5e7c24"/>
    <path id="Path_2898" data-name="Path 2898" d="M137.8,416.317a14.266,14.266,0,0,0-2.611-1.984,23.408,23.408,0,0,0-2.836-1.463,23,23,0,0,0-3.007-1.069,14.1,14.1,0,0,0-3.234-.544,14.1,14.1,0,0,0,2.609,1.986,23,23,0,0,0,2.837,1.461,23.4,23.4,0,0,0,3.007,1.067A14.264,14.264,0,0,0,137.8,416.317Z" transform="translate(-16.457 -171.423)" fill="#5e7c24"/>
    <path id="Path_2899" data-name="Path 2899" d="M123.824,361.726a10.041,10.041,0,0,0-.078-3.206,15.106,15.106,0,0,0-.817-2.917,14.858,14.858,0,0,0-1.377-2.7,9.94,9.94,0,0,0-2.123-2.405,9.935,9.935,0,0,0,.074,3.207,14.873,14.873,0,0,0,.82,2.915,15.109,15.109,0,0,0,1.38,2.7,10.042,10.042,0,0,0,2.12,2.407Z" transform="translate(-12.439 -135.398)" fill="#5e7c24"/>
    <path id="Path_2900" data-name="Path 2900" d="M228.45,195.13q-6.137.365-12.278.575c-4.094.151-8.188.255-12.283.349-4.1.079-8.19.148-12.287.17s-8.193.014-12.291-.059q6.137-.367,12.278-.576c4.094-.151,8.188-.255,12.283-.348,4.1-.078,8.19-.147,12.287-.169S224.352,195.059,228.45,195.13Z" transform="translate(-48.003 -43.228)" fill="#f9e0c0"/>
    <path id="Path_2901" data-name="Path 2901" d="M147.493,225.369q-6.137.365-12.278.575c-4.094.151-8.188.255-12.283.349-4.1.079-8.19.148-12.287.17s-8.193.014-12.291-.059q6.137-.367,12.278-.577c4.094-.151,8.188-.255,12.283-.348,4.1-.078,8.19-.147,12.287-.169S143.395,225.3,147.493,225.369Z" transform="translate(0 -61.158)" fill="#f9e0c0"/>
    <path id="Path_2902" data-name="Path 2902" d="M182.1,259.21q-6.137.365-12.278.575c-4.094.151-8.188.255-12.283.349-4.1.079-8.19.148-12.287.17s-8.193.014-12.291-.059q6.137-.367,12.278-.577c4.094-.151,8.188-.255,12.283-.348,4.1-.078,8.19-.147,12.287-.169S178,259.139,182.1,259.21Z" transform="translate(-20.517 -81.224)" fill="#f9e0c0"/>
    <path id="Path_2903" data-name="Path 2903" d="M308.231,427.662H107.21a.407.407,0,0,1,0-.814H308.231a.407.407,0,0,1,0,.814Z" transform="translate(-5.01 -180.668)" fill="#935b50"/>
    <path id="Path_2904" data-name="Path 2904" d="M430.642,243.131c3.929,0,3.935-6.106,0-6.106S426.707,243.131,430.642,243.131Z" transform="translate(-195.28 -68.113)" fill="#5669a5"/>
    <path id="Path_2905" data-name="Path 2905" d="M345.179,126a7.9,7.9,0,0,1,3.691.285,6.319,6.319,0,0,1,3.607,2.815,9.632,9.632,0,0,1,.661,3.367,24.606,24.606,0,0,1,.557,3.224,11.33,11.33,0,0,1-.5,3.2c-.479,1.625-.154,2.544-.4,2.849-.981,1.23-4,.3-4.029,1.891-.02.984,1.678,5.219,1.654,6.372-.056,2.687-4.567-.086-7.285-4.07-.123-.181-1.967-1.239-1.79-2.982.095-.931.847-5.3.766-5.863-.292-2.032-1.319-2.272-2.148-4.724a3.826,3.826,0,0,1,.6-3.694A7.815,7.815,0,0,1,345.179,126Z" transform="translate(-143.124 -2.22)" fill="#f9977a"/>
    <ellipse id="Ellipse_71" data-name="Ellipse 71" cx="0.413" cy="0.514" rx="0.413" ry="0.514" transform="translate(209.189 131.462) rotate(-0.489)" fill="#0a0709"/>
    <ellipse id="Ellipse_72" data-name="Ellipse 72" cx="0.413" cy="0.514" rx="0.413" ry="0.514" transform="translate(205.464 131.494) rotate(-0.489)" fill="#0a0709"/>
    <path id="Path_2906" data-name="Path 2906" d="M366.435,142.663a.259.259,0,0,0,.141-.043,2.207,2.207,0,0,1,2.494-.031.261.261,0,0,0,.31-.419,2.768,2.768,0,0,0-3.092.016.261.261,0,0,0,.147.478Z" transform="translate(-158.801 -11.594)" fill="#1e1d22"/>
    <path id="Path_2907" data-name="Path 2907" d="M356.95,142.744a.259.259,0,0,0,.141-.043,2.229,2.229,0,0,1,2.494-.032.261.261,0,0,0,.31-.419,2.769,2.769,0,0,0-3.092.016.261.261,0,0,0,.147.478Z" transform="translate(-153.177 -11.642)" fill="#1e1d22"/>
    <path id="Path_2908" data-name="Path 2908" d="M365.382,144.327a1.948,1.948,0,0,0,.059,1.322,4.249,4.249,0,0,0,.641,1.174l.218.244a.269.269,0,0,1,.088.189.67.67,0,0,1-.236.452,1.658,1.658,0,0,1-1.16.324,1.453,1.453,0,0,0,1.324-.127.891.891,0,0,0,.383-.649.579.579,0,0,0-.154-.4l-.21-.246a6.023,6.023,0,0,1-.661-1.07,2.5,2.5,0,0,1-.292-1.217Z" transform="translate(-158.102 -13.148)" fill="#dd765e"/>
    <path id="Path_2909" data-name="Path 2909" d="M347.449,144.854a.733.733,0,0,0-.489.029,1.2,1.2,0,0,0-.411.271,1.4,1.4,0,0,0-.274.4,1.209,1.209,0,0,0-.111.467,3.826,3.826,0,0,0,.326-.326c.1-.1.191-.213.293-.306a3.8,3.8,0,0,1,.3-.28,2.517,2.517,0,0,1,.364-.253Z" transform="translate(-146.937 -13.444)" fill="#dd765e"/>
    <path id="Path_2910" data-name="Path 2910" d="M348.064,147.463a1.242,1.242,0,0,0,.229-1,1.341,1.341,0,0,0-.188-.492,1.1,1.1,0,0,0-.369-.367,8.308,8.308,0,0,1,.233.915,7.991,7.991,0,0,1,.1.941Z" transform="translate(-147.87 -13.907)" fill="#dd765e"/>
    <path id="Path_2911" data-name="Path 2911" d="M344.157,135.449a19.45,19.45,0,0,1-.592-3.8,5.791,5.791,0,0,0,.1-2.249c-.232-.766.141-.869.615-1.7.445-.778,1.85-.163,2.2-.3.977-.371.937-.783,1.6-.83.679-.048,1.176-.232,1.619.2s1.283,1.626,1.484,1.418a3.873,3.873,0,0,0,.741-1.959,4.292,4.292,0,0,0-.5-2,3.541,3.541,0,0,0-2.025-2.029c-.72-.2-.855.148-2.408.254-1.611.109-1.664-.251-2.506,0-.932.274-.893.722-2.482,1.608a16.528,16.528,0,0,1-1.624.765c-2,.866-2.261.732-2.718,1.182a3.8,3.8,0,0,0-.767,3.017c.12,1.122.562,1.456,1.531,3.248,1.535,2.837,1.242,4.037,1.8,4.432.273.194,1.7-.837,1.687-1.339-.014-.658-.49-.861-1.057-1.808a3.1,3.1,0,0,1-.649-2.479c.191-.525.41-.383.952-.338.736.062,1.106,1.083,1.408,1.832a4.024,4.024,0,0,1,.283,1.709C342.784,135.594,344.415,135.964,344.157,135.449Z" transform="translate(-141.419)" fill="#1e1d22"/>
    <path id="Path_2912" data-name="Path 2912" d="M362.924,157.87a2.179,2.179,0,0,0,3.082-.026" transform="translate(-156.875 -21.163)" fill="#0a0709"/>
    <path id="Path_2913" data-name="Path 2913" d="M340.152,170.8s2.882,8.334-8.139-4.046l-4.788,3.976a5.839,5.839,0,0,0-1.945,3.254l-.7,5.409a80.589,80.589,0,0,0-.019,20.652l.712,5.547,20.59,2.827a52.256,52.256,0,0,1-2.037-12.18c-.232-4.939.38-7.04.146-11.137A37.969,37.969,0,0,0,340.152,170.8Z" transform="translate(-133.738 -26.444)" fill="#ffba55"/>
    <path id="Path_2914" data-name="Path 2914" d="M360.755,248.465c-.373-.214-.753-.408-1.127-.611l-1.1-.647a18.463,18.463,0,0,1-2.048-1.494,11.373,11.373,0,0,1-1.749-1.816,7.781,7.781,0,0,1-.675-1.067,4.809,4.809,0,0,1-.472-1.179,5.452,5.452,0,0,0,.94,2.392,9.186,9.186,0,0,0,1.742,1.92,13.07,13.07,0,0,0,2.134,1.461l1.155.573C359.957,248.153,360.353,248.319,360.755,248.465Z" transform="translate(-151.337 -70.856)" fill="#e6952a"/>
    <path id="Path_2915" data-name="Path 2915" d="M357.061,164.408a8.235,8.235,0,0,0,3.957.874l.008.061c-1.01.132-1.967.231-1.985,1.125a6.419,6.419,0,0,0,.317,1.469A5.838,5.838,0,0,1,357.061,164.408Z" transform="translate(-153.399 -25.055)" fill="#dd765e"/>
    <path id="Path_2916" data-name="Path 2916" d="M415.048,341.822l1.1,5.582,10.8,1.74-14.448,4.387-3.041-10.015Z" transform="translate(-184.472 -130.252)" fill="#f9977a"/>
    <path id="Path_2917" data-name="Path 2917" d="M430.336,355.584l-.01-.033a1.43,1.43,0,0,0-1.123-.993l-11.26-1.956a.477.477,0,0,0-.529.306l-1.137,3.12a.477.477,0,0,1-.564.3l-2.649-.664a.477.477,0,0,0-.572.6l1.318,4.339a.477.477,0,0,0,.595.318l15.615-4.742A.477.477,0,0,0,430.336,355.584Z" transform="translate(-186.254 -136.639)" fill="#065082"/>
    <path id="Path_2918" data-name="Path 2918" d="M325.042,251.316s-3.29,14.583,3,14.322h23.9l6.44,25.99a9.277,9.277,0,0,0,4.625.56c1.476-.309,2.749-1.718,3.633-2.438,0,0-4.7-37.261-13.6-38.393C341.936,249.947,325.042,251.316,325.042,251.316Z" transform="translate(-133.903 -76.233)" fill="#8b9d36"/>
    <path id="Path_2919" data-name="Path 2919" d="M392.383,280.659a15.907,15.907,0,0,0,1.472-2.2c.2-.382.405-.764.585-1.166s.352-.814.57-1.238a4,4,0,0,1-.067,1.4,4.749,4.749,0,0,1-.493,1.328,4.591,4.591,0,0,1-.868,1.125A3.11,3.11,0,0,1,392.383,280.659Z" transform="translate(-174.343 -91.254)" fill="#5e7c24"/>
    <path id="Path_2920" data-name="Path 2920" d="M343.537,189.439s.933-2.223,13.137,15.306l-4.637,6.018s-6.733-5.54-9.783-10.323" transform="translate(-144.619 -39.843)" fill="#ffba55"/>
    <path id="Path_2921" data-name="Path 2921" d="M440.881,225.046l10.764-5.134.552,11.764-10.35-3.35Z" transform="translate(-203.099 -57.966)" fill="#6c7fd8"/>
    <ellipse id="Ellipse_73" data-name="Ellipse 73" cx="15.911" cy="15.953" rx="15.911" ry="15.953" transform="translate(159.078 214.68)" fill="#1e1d22"/>
    <ellipse id="Ellipse_74" data-name="Ellipse 74" cx="8.257" cy="8.28" rx="8.257" ry="8.28" transform="translate(166.731 222.354)" fill="#848384"/>
    <path id="Path_2922" data-name="Path 2922" d="M284.145,390.226a1.211,1.211,0,0,0,0-2.42A1.211,1.211,0,0,0,284.145,390.226Z" transform="translate(-109.471 -157.518)" fill="#fff"/>
    <ellipse id="Ellipse_75" data-name="Ellipse 75" cx="15.911" cy="15.953" rx="15.911" ry="15.953" transform="translate(245.405 214.68)" fill="#1e1d22"/>
    <ellipse id="Ellipse_76" data-name="Ellipse 76" cx="8.257" cy="8.28" rx="8.257" ry="8.28" transform="translate(253.058 222.354)" fill="#848384"/>
    <path id="Path_2923" data-name="Path 2923" d="M494.486,389.664c3.143,0,3.148-4.885,0-4.885S491.338,389.664,494.486,389.664Z" transform="translate(-233.485 -155.723)" fill="#1e1d22"/>
    <path id="Path_2924" data-name="Path 2924" d="M362.142,295.1s-14.5-7.27-40.28,2.423H275.816s-15.306,9.693-41.085,2.423c0,0-3.222-5.654,4.834-17.771,0,0,4.834-13.732,8.056-16.155l44.421.023S291,288.47,307.116,290.086s14.5-13.732,14.5-13.732l-2.133-33.966a63.242,63.242,0,0,0-.44-6.444c-.293-2.494-1.139-2.147-.132-1.643,1.611.808,17.452,17.989,20.674,42.221C339.586,276.522,358.115,274.1,362.142,295.1Z" transform="translate(-80.486 -66.284)" fill="#6c7fd8"/>
    <path id="Path_2925" data-name="Path 2925" d="M467.426,338.549a24.064,24.064,0,0,0-6.728,2.9,22.168,22.168,0,0,0-2.893,2.162,18.956,18.956,0,0,0-2.482,2.6,20.47,20.47,0,0,0-2.025,2.977c-.162.254-.294.526-.435.793s-.289.531-.409.809c-.241.555-.511,1.1-.724,1.669a41.974,41.974,0,0,0-2.029,7.093,23.4,23.4,0,0,1,1.03-7.446,20.08,20.08,0,0,1,3.535-6.747,18.725,18.725,0,0,1,9.439-6.231A14.7,14.7,0,0,1,467.426,338.549Z" transform="translate(-208.326 -128.311)" fill="#5669a5"/>
    <path id="Path_2926" data-name="Path 2926" d="M283.784,353.079a28.051,28.051,0,0,0,3.319-7.06,14.461,14.461,0,0,0,.487-7.524,10.229,10.229,0,0,0-4.189-5.959c-.128-.091-.247-.193-.381-.275l-.4-.248c-.27-.162-.528-.343-.808-.491-.571-.279-1.111-.6-1.716-.833l-.887-.374a9.136,9.136,0,0,0-.876-.312c-.6-.187-1.219-.341-1.843-.473a27.692,27.692,0,0,0-7.643-.517,32.284,32.284,0,0,0-3.826.483c-1.266.239-2.514.568-3.755.929a45.365,45.365,0,0,0-13.733,7.306L249,336.414l1.538-1.241L252.131,334c.549-.366,1.092-.745,1.649-1.1a36.869,36.869,0,0,1,7.154-3.475,32.1,32.1,0,0,1,7.819-1.688,28.366,28.366,0,0,1,8.021.472c.66.145,1.314.313,1.965.521.32.1.66.219.975.357l.924.4c.622.242,1.212.6,1.816.9.3.162.579.359.87.537a7.2,7.2,0,0,1,.84.586,11.141,11.141,0,0,1,4.459,6.763,12.371,12.371,0,0,1,.107,4.074,18.021,18.021,0,0,1-1,3.89,25.7,25.7,0,0,1-1.716,3.586A23.559,23.559,0,0,1,283.784,353.079Z" transform="translate(-88.454 -121.839)" fill="#5669a5"/>
    <path id="Path_2927" data-name="Path 2927" d="M255.949,298.34h43.96c2.669,0,4.834-2.456,4.834-5.486s-2.164-5.486-4.834-5.486h-43.96c-2.669,0-4.834,2.456-4.834,5.486S253.28,298.34,255.949,298.34Z" transform="translate(-90.579 -97.964)" fill="#5669a5"/>
    <path id="Path_2928" data-name="Path 2928" d="M287.409,346.606a15.565,15.565,0,0,1-2.456,2.325,24.725,24.725,0,0,1-2.818,1.893c-.48.3-.989.551-1.492.813s-1.019.494-1.534.73c-.257.12-.518.23-.778.343l-.794.3c-.532.193-1.056.413-1.6.584a38.9,38.9,0,0,1-6.6,1.523c-1.112.184-2.243.23-3.361.33-1.125.035-2.251.036-3.371,0,1.1-.26,2.2-.439,3.289-.658l1.628-.353c.542-.117,1.087-.208,1.621-.357s1.072-.269,1.61-.389,1.064-.291,1.6-.433c.527-.158,1.069-.266,1.589-.445l1.571-.5c.527-.156,1.038-.359,1.557-.537l.776-.278c.254-.1.507-.21.764-.307,1.032-.38,2.028-.844,3.031-1.3.5-.238,1-.469,1.482-.728l.737-.377.722-.405A28.551,28.551,0,0,0,287.409,346.606Z" transform="translate(-97.396 -133.089)" fill="#5669a5"/>
    <path id="Path_2929" data-name="Path 2929" d="M292.039,359.7a15.566,15.566,0,0,1-2.456,2.325,24.742,24.742,0,0,1-2.818,1.893c-.48.3-.989.551-1.492.813s-1.019.494-1.534.73c-.257.12-.518.23-.778.343l-.794.3c-.532.193-1.056.413-1.6.584a38.9,38.9,0,0,1-6.6,1.523c-1.112.184-2.243.23-3.361.329-1.125.035-2.251.036-3.371,0,1.1-.26,2.2-.439,3.289-.658l1.628-.353c.542-.117,1.087-.208,1.621-.357s1.072-.269,1.61-.389,1.064-.291,1.6-.433c.527-.158,1.069-.266,1.589-.445l1.571-.5c.527-.156,1.038-.359,1.558-.537l.776-.278c.254-.1.507-.21.764-.307,1.032-.38,2.028-.844,3.031-1.3.5-.238,1-.469,1.482-.728l.737-.377.722-.405A28.535,28.535,0,0,0,292.039,359.7Z" transform="translate(-100.142 -140.85)" fill="#5669a5"/>
    <ellipse id="Ellipse_77" data-name="Ellipse 77" cx="1.829" cy="5.889" rx="1.829" ry="5.889" transform="matrix(0.999, -0.047, 0.047, 0.999, 246.663, 162.034)" fill="#ffba55"/>
    <path id="Path_2930" data-name="Path 2930" d="M464.411,219.918a.893.893,0,0,0-.572.5,3.2,3.2,0,0,0-.287.724,9.6,9.6,0,0,0-.283,1.553,23.044,23.044,0,0,0,.3,6.336,9.6,9.6,0,0,0,.427,1.52,3.182,3.182,0,0,0,.353.694.893.893,0,0,0,.616.441.919.919,0,0,1-.757-.317,3.11,3.11,0,0,1-.511-.672,7.391,7.391,0,0,1-.641-1.536,14.333,14.333,0,0,1-.306-6.547,7.391,7.391,0,0,1,.495-1.589,3.107,3.107,0,0,1,.445-.717A.919.919,0,0,1,464.411,219.918Z" transform="translate(-215.922 -57.97)" fill="#e6952a"/>
    <path id="Path_2931" data-name="Path 2931" d="M448.17,242.963c-.5-.441-.964-.9-1.418-1.372l-1.346-1.4c-.441-.469-.892-.927-1.355-1.361a7.7,7.7,0,0,0-.728-.606,1.908,1.908,0,0,0-.859-.387,1.573,1.573,0,0,1,1.014.093,4.594,4.594,0,0,1,.9.485,9.559,9.559,0,0,1,1.518,1.309,14.176,14.176,0,0,1,1.261,1.533A10.419,10.419,0,0,1,448.17,242.963Z" transform="translate(-204.037 -68.566)" fill="#5669a5"/>
    <path id="Path_2932" data-name="Path 2932" d="M267.315,256.4H243.126a1.316,1.316,0,0,1-1.316-1.316V237.365h26.821v17.717A1.316,1.316,0,0,1,267.315,256.4Z" transform="translate(-85.061 -68.315)" fill="#f73c4f"/>
    <path id="Path_2933" data-name="Path 2933" d="M267.147,224.163v2.409a1.78,1.78,0,0,1-1.682,1.863H235.511a1.778,1.778,0,0,1-1.679-1.863v-2.409a1.777,1.777,0,0,1,1.679-1.86h29.954A1.779,1.779,0,0,1,267.147,224.163Z" transform="translate(-80.33 -59.383)" fill="#b02336"/>
    <rect id="Rectangle_182" data-name="Rectangle 182" width="1.483" height="26.231" transform="translate(169.418 162.919)" fill="#e19974"/>
    <rect id="Rectangle_183" data-name="Rectangle 183" width="26.821" height="1.644" transform="translate(156.749 177.304)" fill="#e19974"/>
    <path id="Path_2934" data-name="Path 2934" d="M268.108,278.377H252.154l-3.6-3.783a.553.553,0,0,0-.839.024.708.708,0,0,0,.022.929l2.691,2.83h-4.293v-2.986a.6.6,0,1,0-1.186,0v2.986h-2.931a.661.661,0,0,0,0,1.315h2.931v2.986a.6.6,0,1,0,1.186,0v-2.986h5.542l2.989,3.142a.553.553,0,0,0,.839-.024.708.708,0,0,0-.022-.929l-2.081-2.189h14.7a.661.661,0,0,0,0-1.315Z" transform="translate(-84.835 -90.282)" fill="#e19974"/>
    <path id="Path_2935" data-name="Path 2935" d="M370.788,228.01l18.364,2.448s7.5-2.783,9.028,1.164a2.5,2.5,0,0,1,.017,1.693c-.458,1.373-1.541,4.084-2.334,1.822l-.816-2.326s-2.815,1.949-5.535.983c-.983-.349-14.134,2.212-21.224.483l-2-.589Z" transform="translate(-158.87 -62.768)" fill="#f9977a"/>
    <path id="Path_2936" data-name="Path 2936" d="M343.537,189.434c.058-.1.19-.1.292-.09a1.726,1.726,0,0,1,.312.09,3.966,3.966,0,0,1,.558.325,4.7,4.7,0,0,1,.515.388c.163.139.338.267.491.417.636.576,1.238,1.188,1.823,1.815,1.167,1.257,2.241,2.59,3.319,3.92s2.1,2.7,3.114,4.079c1.028,1.368,1.992,2.78,2.99,4.169l.144.2-.153.2-2.324,3-2.337,2.995-.2.254-.24-.2c-.914-.777-1.8-1.575-2.658-2.4s-1.706-1.668-2.525-2.536-1.613-1.76-2.353-2.7a26.321,26.321,0,0,1-2.051-2.926,33.081,33.081,0,0,0,2.229,2.775c.794.881,1.625,1.727,2.461,2.566s1.713,1.639,2.6,2.43,1.78,1.569,2.691,2.316l-.438.05,2.3-3.023,2.313-3.013-.01.4c-.982-1.394-1.95-2.8-2.948-4.183s-2-2.765-3.005-4.139-2.055-2.721-3.158-4.018c-.544-.655-1.105-1.3-1.7-1.9-.143-.158-.307-.292-.461-.439a5.119,5.119,0,0,0-.483-.413,3.884,3.884,0,0,0-.522-.361,1.719,1.719,0,0,0-.294-.11C343.728,189.351,343.6,189.34,343.537,189.434Z" transform="translate(-144.619 -39.838)" fill="#e6952a"/>
    <path id="Path_2937" data-name="Path 2937" d="M250.941,285.464a.469.469,0,1,0-.452-.468.469.469,0,0,0,.452.468Z" transform="translate(-90.207 -96.279)" fill="#935b50"/>
    <path id="Path_2938" data-name="Path 2938" d="M250.941,294.11a.469.469,0,1,0-.453-.468.469.469,0,0,0,.453.468Z" transform="translate(-90.207 -101.406)" fill="#935b50"/>
    <path id="Path_2939" data-name="Path 2939" d="M257.5,276.054a.469.469,0,1,0-.452-.468.469.469,0,0,0,.452.468Z" transform="translate(-94.096 -90.7)" fill="#935b50"/>
    <path id="Path_2940" data-name="Path 2940" d="M250.941,276.841a.469.469,0,1,0-.452-.468.469.469,0,0,0,.452.468Z" transform="translate(-90.207 -91.166)" fill="#935b50"/>
    <path id="Path_2941" data-name="Path 2941" d="M265.893,285.464a.469.469,0,1,0-.452-.468.469.469,0,0,0,.452.468Z" transform="translate(-99.073 -96.279)" fill="#935b50"/>
    <path id="Path_2942" data-name="Path 2942" d="M274.1,259.447a.469.469,0,1,0-.452-.468A.469.469,0,0,0,274.1,259.447Z" transform="translate(-103.937 -80.852)" fill="#935b50"/>
    <path id="Path_2943" data-name="Path 2943" d="M274.1,224.213a.469.469,0,1,0-.452-.468A.469.469,0,0,0,274.1,224.213Z" transform="translate(-103.937 -59.961)" fill="#935b50"/>
    <path id="Path_2944" data-name="Path 2944" d="M305.065,259.447a.469.469,0,1,0-.452-.468A.469.469,0,0,0,305.065,259.447Z" transform="translate(-122.3 -80.852)" fill="#935b50"/>
    <path id="Path_2945" data-name="Path 2945" d="M242.984,259.447a.469.469,0,1,0-.452-.468A.469.469,0,0,0,242.984,259.447Z" transform="translate(-85.489 -80.852)" fill="#935b50"/>
    <path id="Path_2946" data-name="Path 2946" d="M274.1,285.158a.469.469,0,1,0-.452-.468.469.469,0,0,0,.452.468Z" transform="translate(-103.937 -96.098)" fill="#935b50"/>
    <path id="Path_2947" data-name="Path 2947" d="M274.1,293.577a.469.469,0,1,0-.453-.468A.469.469,0,0,0,274.1,293.577Z" transform="translate(-103.936 -101.09)" fill="#935b50"/>
    <path id="Path_2948" data-name="Path 2948" d="M242.984,285.464a.469.469,0,1,0-.452-.468.469.469,0,0,0,.452.468Z" transform="translate(-85.489 -96.279)" fill="#935b50"/>
    <path id="Path_2949" data-name="Path 2949" d="M305.065,285.464a.469.469,0,1,0-.452-.468.469.469,0,0,0,.452.468Z" transform="translate(-122.3 -96.279)" fill="#935b50"/>
  </g>
</svg>
