<svg xmlns="http://www.w3.org/2000/svg" width="39.392" height="39.392" viewBox="0 0 39.392 39.392">
  <g id="Icons" transform="translate(0)">
    <g id="Color-">
      <path id="Whatsapp" d="M719.69,360a19.683,19.683,0,0,0-15.94,31.24l-2.454,7.318,7.57-2.419A19.693,19.693,0,1,0,719.7,360Zm-5.5,10c-.382-.914-.671-.949-1.25-.972q-.329-.021-.66-.022a2.858,2.858,0,0,0-2.015.706,6.289,6.289,0,0,0-2.014,4.794c0,2.826,2.06,5.558,2.338,5.941s4.017,6.263,9.8,8.661c4.526,1.876,5.869,1.7,6.9,1.482,1.505-.324,3.392-1.436,3.866-2.779a4.893,4.893,0,0,0,.336-2.733c-.139-.243-.522-.382-1.1-.671s-3.393-1.679-3.925-1.865a1.1,1.1,0,0,0-1.411.428,24.042,24.042,0,0,1-1.54,2.038,1.243,1.243,0,0,1-1.389.22,14.506,14.506,0,0,1-4.619-2.848,17.524,17.524,0,0,1-3.195-3.972c-.336-.579-.034-.914.231-1.227.29-.359.567-.614.857-.95a3.5,3.5,0,0,0,.637-.9,1.176,1.176,0,0,0-.082-1.067c-.138-.289-1.3-3.114-1.77-4.26Z" transform="translate(-700 -360)" fill="#fff" fill-rule="evenodd"/>
    </g>
  </g>
</svg>
