<svg id="Layer_2" data-name="Layer 2" xmlns="http://www.w3.org/2000/svg" width="162.435" height="138.646" viewBox="0 0 162.435 138.646">
  <g id="Layer_1" data-name="Layer 1" transform="translate(0 0.5)">
    <path id="Path_2966" data-name="Path 2966" d="M110.028,203.576a76.376,76.376,0,0,0,15.765-6.558c5.9-3.311,32.087-19.07,35.493-46.343a52.022,52.022,0,0,0-2.171-22.215,42.715,42.715,0,0,0-8.748-15.416c-6.747-7.509-14.445-10.42-18.959-12.066a54.7,54.7,0,0,0-21.257-3.158,50.791,50.791,0,0,0-19.532,4.022c-5.358,2.34-8.689,5.009-13.6,9-7.776,6.326-8.8,8.96-22.4,22.022a59.371,59.371,0,0,1-11.492,9.194A72.634,72.634,0,0,1,32.4,147.035c-11.912,4.84-15.3,5.82-19.2,8.545-7.581,5.3-7.09,11.086-7.416,12.331a24.485,24.485,0,0,0-.577,9.768c.994,6.541,4.517,10.817,6.7,13.405A36.861,36.861,0,0,0,22.636,199.7a68.531,68.531,0,0,0,8.787,3.875Z" transform="translate(-3.345 -66.067)" fill="#d5efc8"/>
    <path id="Path_2967" data-name="Path 2967" d="M266.267,94.835a52.935,52.935,0,0,1,20.346-4.189,57.01,57.01,0,0,1,22.141,3.291c4.7,1.715,12.72,4.746,19.748,12.567a44.5,44.5,0,0,1,9.109,16.058,54.205,54.205,0,0,1,2.261,23.139c-3.546,28.41-30.828,44.822-36.969,48.272" transform="translate(-179.485 -61.229)" fill="none" stroke="#bbec6c" stroke-miterlimit="10" stroke-width="1"/>
    <path id="Path_2968" data-name="Path 2968" d="M403.01,417.678h0l-.586,1.6h-5.74l-.353-1.488h.026A29.643,29.643,0,0,0,403.01,417.678Z" transform="translate(-267.162 -281.711)" fill="#4f66d0"/>
    <path id="Path_2969" data-name="Path 2969" d="M155.281,251.228,96.6,251.5l-57.87-.27.313,52.887H154.961Z" transform="translate(-26.107 -169.511)" fill="#d5daf3"/>
    <path id="Path_2970" data-name="Path 2970" d="M86.972,245.847c-22.154-3.35-44.275-1.381-51.7-.537a3.751,3.751,0,0,0-3.237,2.951A55.981,55.981,0,0,0,30.9,265.383a27.878,27.878,0,0,1,6.381.568l.119,8.728,49.359.051A3.745,3.745,0,0,0,90.5,271.11c.3-8.53-.089-17.316-.348-21.78A3.744,3.744,0,0,0,86.972,245.847Z" transform="translate(-20.682 -164.614)" fill="#8795de"/>
    <path id="Path_2971" data-name="Path 2971" d="M221.106,245.757c22.65-3.364,45.346-1.346,52.876-.5a3.751,3.751,0,0,1,3.236,2.938,54.989,54.989,0,0,1,1.157,17.131c-2.491.005-4,.838-5.61,1.257l-1.01,8.039-50.347.051a3.745,3.745,0,0,1-3.742-3.61c-.321-8.522.019-17.315.25-21.8a3.745,3.745,0,0,1,3.19-3.508Z" transform="translate(-146.635 -164.558)" fill="#8795de"/>
    <path id="Path_2972" data-name="Path 2972" d="M300.144,265.748A2.292,2.292,0,0,0,299,265.19c-.506-.1-.978.407-1.016,1.068l-1.061,18.892a3.111,3.111,0,0,1-.766,1.907,7.18,7.18,0,0,0-.743.976c-.259.409-.046,1.012.358,1.034,4.516.243,24.726-.227,28.462-.015.331.019.412-.43.28-.815a2.008,2.008,0,0,0-.529-.931,1.829,1.829,0,0,1-.554-1.491c.187-3.59.793-12.314,1.693-15.465.284-1-.467-1.96-1.232-1.559a3.155,3.155,0,0,0-.46.3,1.932,1.932,0,0,1-2.189.159c-2.931-1.655-10.714-5.286-19.438-3.064a1.75,1.75,0,0,1-1.66-.439Z" transform="translate(-199.055 -178.914)" fill="#4f66d0"/>
    <path id="Path_2973" data-name="Path 2973" d="M19,417.678h0l.573,1.6h5.612l.346-1.488H25.5A28.348,28.348,0,0,1,19,417.678Z" transform="translate(-12.805 -281.711)" fill="#4f66d0"/>
    <rect id="Rectangle_188" data-name="Rectangle 188" width="52.606" height="7.852" rx="3.926" transform="translate(17.321 110.119)" fill="#a2aee6"/>
    <rect id="Rectangle_189" data-name="Rectangle 189" width="52.48" height="16.111" rx="5.868" transform="translate(17.447 118.493)" fill="#a2aee6"/>
    <path id="Path_2974" data-name="Path 2974" d="M400.085,314.018a3.737,3.737,0,0,0-3.466-4.083,83.348,83.348,0,0,0-10.109-.16,3.734,3.734,0,0,0-3.482,3.679l-.406,30.011a1.811,1.811,0,0,0,1.811,1.836h11.143a1.811,1.811,0,0,0,1.8-1.646Z" transform="translate(-257.918 -208.912)" fill="#a2aee6"/>
    <rect id="Rectangle_190" data-name="Rectangle 190" width="53.762" height="7.852" rx="3.926" transform="translate(124.435 117.971) rotate(180)" fill="#a2aee6"/>
    <rect id="Rectangle_191" data-name="Rectangle 191" width="53.151" height="16.111" rx="5.906" transform="translate(123.825 134.604) rotate(180)" fill="#a2aee6"/>
    <path id="Path_2975" data-name="Path 2975" d="M101.895,262.713a14.269,14.269,0,0,0-1.887.388,10.276,10.276,0,0,0-1.775.669,6.845,6.845,0,0,0-1.549,1.061l-.334.335c-.109.115-.2.246-.3.369l-.152.186-.125.2c-.082.138-.168.274-.258.412a4.525,4.525,0,0,1,.967-1.7,5.612,5.612,0,0,1,1.588-1.186,7.506,7.506,0,0,1,1.873-.619A7.08,7.08,0,0,1,101.895,262.713Z" transform="translate(-64.386 -177.237)" fill="#4f66d0"/>
    <path id="Path_2976" data-name="Path 2976" d="M100.456,282.761a14.272,14.272,0,0,0-.565-1.841,10.284,10.284,0,0,0-.834-1.7,6.842,6.842,0,0,0-1.2-1.441l-.365-.3c-.124-.1-.264-.173-.4-.262l-.2-.134-.215-.105c-.145-.068-.289-.141-.434-.218a4.525,4.525,0,0,1,1.787.8,5.615,5.615,0,0,1,1.332,1.468,7.51,7.51,0,0,1,.794,1.806,7.08,7.08,0,0,1,.3,1.931Z" transform="translate(-64.877 -186.718)" fill="#4f66d0"/>
    <path id="Path_2977" data-name="Path 2977" d="M70.44,266.052a7.085,7.085,0,0,1,1.941-.228,7.513,7.513,0,0,1,1.952.283A5.614,5.614,0,0,1,76.1,267a4.525,4.525,0,0,1,1.25,1.508c-.113-.119-.221-.239-.326-.36l-.159-.179-.183-.156c-.121-.1-.231-.217-.358-.311l-.387-.271a6.839,6.839,0,0,0-1.71-.774,10.272,10.272,0,0,0-1.864-.348A14.266,14.266,0,0,0,70.44,266.052Z" transform="translate(-47.482 -179.348)" fill="#4f66d0"/>
    <path id="Path_2978" data-name="Path 2978" d="M81.742,283.668a7.081,7.081,0,0,1-.043-1.954,7.51,7.51,0,0,1,.467-1.916,5.613,5.613,0,0,1,1.055-1.678,4.525,4.525,0,0,1,1.62-1.1c-.13.1-.259.2-.39.29l-.193.141-.173.167c-.114.111-.238.21-.344.327l-.307.36a6.842,6.842,0,0,0-.933,1.629,10.277,10.277,0,0,0-.524,1.823A14.271,14.271,0,0,0,81.742,283.668Z" transform="translate(-55.039 -186.896)" fill="#4f66d0"/>
    <path id="Path_2979" data-name="Path 2979" d="M170.159,266.285a14.281,14.281,0,0,0-1.6,1.076,10.282,10.282,0,0,0-1.387,1.293,6.842,6.842,0,0,0-1.029,1.57l-.182.436c-.057.147-.089.3-.136.455l-.071.23-.038.236c-.023.158-.051.318-.082.479a4.525,4.525,0,0,1,.247-1.943,5.614,5.614,0,0,1,1.018-1.7,7.512,7.512,0,0,1,1.5-1.284A7.08,7.08,0,0,1,170.159,266.285Z" transform="translate(-111.639 -179.66)" fill="#4f66d0"/>
    <path id="Path_2980" data-name="Path 2980" d="M173.622,290.184A14.273,14.273,0,0,0,172.4,288.7a10.276,10.276,0,0,0-1.419-1.259,6.841,6.841,0,0,0-1.661-.876l-.452-.14c-.152-.043-.31-.06-.465-.092l-.235-.048-.239-.016c-.16-.008-.321-.021-.484-.036a4.527,4.527,0,0,1,1.958.062,5.616,5.616,0,0,1,1.79.852,7.509,7.509,0,0,1,1.421,1.368A7.081,7.081,0,0,1,173.622,290.184Z" transform="translate(-112.871 -193.051)" fill="#4f66d0"/>
    <path id="Path_2981" data-name="Path 2981" d="M139.689,283.722a7.079,7.079,0,0,1,1.708-.949,7.513,7.513,0,0,1,1.913-.48,5.617,5.617,0,0,1,1.976.151,4.526,4.526,0,0,1,1.729.92c-.149-.068-.3-.137-.438-.21l-.215-.105-.228-.075c-.151-.049-.3-.113-.45-.152l-.461-.1a6.843,6.843,0,0,0-1.876-.066,10.275,10.275,0,0,0-1.857.386A14.273,14.273,0,0,0,139.689,283.722Z" transform="translate(-94.162 -190.432)" fill="#4f66d0"/>
    <path id="Path_2982" data-name="Path 2982" d="M159.824,295.789a7.08,7.08,0,0,1-.782-1.791,7.51,7.51,0,0,1-.3-1.95,5.614,5.614,0,0,1,.338-1.953,4.525,4.525,0,0,1,1.08-1.634c-.082.142-.164.281-.25.416l-.125.2-.1.22c-.063.146-.141.284-.194.433l-.147.449a6.844,6.844,0,0,0-.244,1.861,10.28,10.28,0,0,0,.208,1.885A14.267,14.267,0,0,0,159.824,295.789Z" transform="translate(-107.007 -194.609)" fill="#4f66d0"/>
    <path id="Path_2983" data-name="Path 2983" d="M274.639,264.945a14.28,14.28,0,0,0-1.916.2,10.282,10.282,0,0,0-1.832.49,6.844,6.844,0,0,0-1.646.9l-.366.3c-.119.1-.22.226-.333.338l-.17.17-.145.191c-.095.129-.194.256-.3.384a4.526,4.526,0,0,1,1.131-1.6,5.613,5.613,0,0,1,1.7-1.024,7.512,7.512,0,0,1,1.925-.431A7.082,7.082,0,0,1,274.639,264.945Z" transform="translate(-180.609 -178.68)" fill="#4f66d0"/>
    <path id="Path_2984" data-name="Path 2984" d="M271.97,283.636a14.264,14.264,0,0,0-.381-1.888,10.28,10.28,0,0,0-.662-1.777,6.842,6.842,0,0,0-1.055-1.553l-.333-.336c-.114-.109-.245-.2-.368-.3l-.185-.153-.2-.126c-.137-.082-.274-.169-.411-.26a4.525,4.525,0,0,1,1.7.974,5.614,5.614,0,0,1,1.18,1.593,7.512,7.512,0,0,1,.612,1.875,7.08,7.08,0,0,1,.106,1.951Z" transform="translate(-180.905 -187.047)" fill="#4f66d0"/>
    <path id="Path_2985" data-name="Path 2985" d="M243.706,264.336a7.082,7.082,0,0,1,1.954-.035,7.51,7.51,0,0,1,1.915.474,5.613,5.613,0,0,1,1.674,1.062,4.525,4.525,0,0,1,1.094,1.624c-.1-.13-.2-.26-.289-.391l-.141-.194-.166-.173c-.111-.115-.209-.239-.326-.345l-.359-.308a6.841,6.841,0,0,0-1.625-.94,10.28,10.28,0,0,0-1.821-.531,14.281,14.281,0,0,0-1.911-.243Z" transform="translate(-164.277 -178.288)" fill="#4f66d0"/>
    <path id="Path_2986" data-name="Path 2986" d="M252.058,283.341a7.08,7.08,0,0,1,.15-1.948,7.51,7.51,0,0,1,.654-1.861,5.615,5.615,0,0,1,1.215-1.566,4.525,4.525,0,0,1,1.721-.935c-.139.087-.277.171-.416.25l-.206.122-.188.149c-.125.1-.258.185-.374.292l-.341.328a6.841,6.841,0,0,0-1.09,1.529,10.282,10.282,0,0,0-.7,1.762A14.274,14.274,0,0,0,252.058,283.341Z" transform="translate(-169.898 -186.904)" fill="#4f66d0"/>
    <path id="Path_2987" data-name="Path 2987" d="M61.561,275.979a2.365,2.365,0,0,1,1.131-.417.887.887,0,0,1,.918.951V292.54a2.441,2.441,0,0,0,.633,1.649,6.115,6.115,0,0,1,.661.861.553.553,0,0,1-.4.858c-4.35-.009-23.823,0-27.423,0-.319,0-.373-.383-.225-.7a1.7,1.7,0,0,1,.558-.762,1.476,1.476,0,0,0,.613-1.234c.014-3.045-.01-11.818-.7-14.525-.219-.855.554-1.635,1.267-1.26a3.048,3.048,0,0,1,.425.276,2.058,2.058,0,0,0,2.094.238c2.9-1.261,10.575-3.961,18.834-1.667A1.861,1.861,0,0,0,61.561,275.979Z" transform="translate(-24.791 -185.79)" fill="#4f66d0"/>
    <path id="Path_2988" data-name="Path 2988" d="M4.466,345.323a1.811,1.811,0,0,1-1.8-1.65L.016,314.027a3.737,3.737,0,0,1,3.462-4.075,79.877,79.877,0,0,1,9.741-.16,3.731,3.731,0,0,1,3.477,3.68l.4,30.016a1.811,1.811,0,0,1-1.811,1.835Z" transform="translate(0 -208.934)" fill="#a2aee6"/>
    <path id="Path_2989" data-name="Path 2989" d="M233.425,284.01a2.559,2.559,0,0,0-1.131-.368.838.838,0,0,0-.918.84v14.151a2.021,2.021,0,0,1-.633,1.456,5.54,5.54,0,0,0-.661.76.483.483,0,0,0,.4.757c4.35-.008,23.823,0,27.423,0,.319,0,.373-.338.225-.62a1.523,1.523,0,0,0-.558-.673,1.26,1.26,0,0,1-.613-1.09c-.014-2.688.01-10.434.7-12.825a.93.93,0,0,0-1.267-1.112,3.119,3.119,0,0,0-.425.244,2.286,2.286,0,0,1-2.094.21c-2.9-1.113-10.575-3.5-18.834-1.472A2.063,2.063,0,0,1,233.425,284.01Z" transform="translate(-155.036 -191.251)" fill="#6c7fd8"/>
    <path id="Path_2990" data-name="Path 2990" d="M80.548,95.085H36.7V45.315H80.548ZM38.26,93.527H78.99V46.872H38.26Z" transform="translate(-24.74 -30.709)" fill="#d6694b"/>
    <rect id="Rectangle_192" data-name="Rectangle 192" width="41.945" height="16.235" transform="translate(13.094 15.539)" fill="#d6694b"/>
    <rect id="Rectangle_193" data-name="Rectangle 193" width="46.922" height="2.332" rx="1.166" transform="translate(10.424 64.39)" fill="#935b50"/>
    <rect id="Rectangle_194" data-name="Rectangle 194" width="40.731" height="1.866" transform="translate(13.52 31.181)" fill="#e19974"/>
    <line id="Line_121" data-name="Line 121" y1="13.3" x2="13.851" transform="translate(20.001 39.491)" fill="none" stroke="#e19974" stroke-miterlimit="10" stroke-width="1"/>
    <line id="Line_122" data-name="Line 122" y1="10.751" x2="11.613" transform="translate(20.001 34.046)" fill="none" stroke="#e19974" stroke-miterlimit="10" stroke-width="1"/>
    <path id="Path_2991" data-name="Path 2991" d="M74.831,47.417l-51.817.111a.707.707,0,0,1-.708-.707v-.8a.707.707,0,0,1,.707-.707H74.829a.707.707,0,0,1,.707.707v.689a.707.707,0,0,1-.705.707Z" transform="translate(-15.036 -30.709)" fill="#935b50"/>
    <path id="Path_2992" data-name="Path 2992" d="M23.008,55.828l51.817.37a.707.707,0,0,0,.712-.707V54.375a.707.707,0,0,0-.707-.707H23.013a.707.707,0,0,0-.707.707v.746a.707.707,0,0,0,.7.707Z" transform="translate(-15.036 -36.34)" fill="#935b50"/>
    <path id="Path_2993" data-name="Path 2993" d="M23.006,64.312l51.817.522a.707.707,0,0,0,.714-.707v-.945a.707.707,0,0,0-.7-.707L23.019,62.04a.707.707,0,0,0-.713.707v.859a.707.707,0,0,0,.7.707Z" transform="translate(-15.036 -41.983)" fill="#935b50"/>
    <path id="Path_2994" data-name="Path 2994" d="M23.024,73.067l51.817-.8a.707.707,0,0,0,.7-.707v-.021a.707.707,0,0,0-.7-.707l-51.817-.436a.707.707,0,0,0-.713.707V72.36a.707.707,0,0,0,.718.707Z" transform="translate(-15.036 -47.614)" fill="#935b50"/>
    <path id="Path_2995" data-name="Path 2995" d="M23.02,80.508l51.817-.487a.707.707,0,0,0,.7-.707v-.739a.707.707,0,0,0-.717-.707L23,78.593a.707.707,0,0,0-.7.707v.5a.707.707,0,0,0,.713.707Z" transform="translate(-15.036 -52.652)" fill="#935b50"/>
    <path id="Path_2996" data-name="Path 2996" d="M23.013,88.264H74.83a.707.707,0,0,0,.707-.707V87.4a.707.707,0,0,0-.709-.707l-51.817.159a.707.707,0,0,0-.7.707h0a.707.707,0,0,0,.707.707Z" transform="translate(-15.036 -58.6)" fill="#935b50"/>
    <path id="Path_2997" data-name="Path 2997" d="M178.5,91.737a.244.244,0,0,1-.242-.211l-.067-.482a.244.244,0,1,1,.484-.068l.067.484a.245.245,0,0,1-.209.275l-.033,0Z" transform="translate(-120.114 -61.346)" fill="#935b50"/>
    <path id="Path_2998" data-name="Path 2998" d="M177.108,124.071a.244.244,0,0,1-.244-.244v-.169c0-.258,0-.532.007-.82a.244.244,0,0,1,.489.008c0,.285-.007.556-.007.812v.167a.244.244,0,0,1-.244.245Zm.033-1.967h-.009a.244.244,0,0,1-.235-.254c.013-.344.029-.672.048-.987a.244.244,0,0,1,.488.029q-.028.466-.047.976a.244.244,0,0,1-.244.235Zm.12-1.961h-.021a.244.244,0,0,1-.222-.265c.03-.345.063-.672.1-.985a.244.244,0,0,1,.486.056c-.036.308-.069.631-.1.97a.244.244,0,0,1-.243.224Zm.226-1.952a.244.244,0,0,1-.242-.28c.049-.339.1-.663.157-.976a.244.244,0,1,1,.482.084c-.054.31-.105.629-.154.963a.245.245,0,0,1-.242.209Zm.333-1.936a.255.255,0,0,1-.046,0,.245.245,0,0,1-.194-.286l.188-.965a.245.245,0,0,1,.48.094l-.188.963a.245.245,0,0,1-.24.2Zm.371-1.929a.245.245,0,0,1-.241-.288c.057-.311.111-.63.163-.963a.245.245,0,0,1,.483.076c-.053.336-.108.659-.165.974a.244.244,0,0,1-.24.2Zm.3-1.941-.031,0a.245.245,0,0,1-.212-.273c.039-.308.075-.63.107-.969a.244.244,0,1,1,.487.046c-.033.344-.069.671-.109.984a.244.244,0,0,1-.242.214Zm.186-1.956h-.016a.244.244,0,0,1-.229-.259c.021-.325.035-.648.044-.973a.233.233,0,0,1,.251-.238.244.244,0,0,1,.238.251c-.009.332-.024.66-.045.991a.245.245,0,0,1-.244.229Zm.054-1.965a.244.244,0,0,1-.244-.243c0-.316-.008-.64-.019-.977a.244.244,0,0,1,.237-.252.24.24,0,0,1,.252.236c.011.341.018.669.019.989a.244.244,0,0,1-.243.246Zm-.06-1.965a.244.244,0,0,1-.244-.232c-.016-.313-.034-.638-.055-.979a.244.244,0,0,1,.229-.259.242.242,0,0,1,.259.229c.021.343.04.67.056.984a.244.244,0,0,1-.232.257Zm-.12-1.963a.244.244,0,0,1-.243-.228q-.032-.469-.07-.98a.244.244,0,0,1,.488-.036q.037.512.07.982a.244.244,0,0,1-.227.261h-.017Zm-.142-1.961a.244.244,0,0,1-.243-.226l-.074-.98a.245.245,0,1,1,.488-.037l.074.981a.245.245,0,0,1-.226.262h-.019Zm-.153-1.96a.244.244,0,0,1-.243-.224q-.043-.5-.087-.977a.244.244,0,1,1,.487-.046q.045.48.088.982a.244.244,0,0,1-.223.264h-.021Zm-.184-1.958a.244.244,0,0,1-.243-.22q-.051-.5-.1-.976a.244.244,0,1,1,.486-.054q.053.476.1.98a.244.244,0,0,1-.219.268h-.025Zm-.216-1.955a.245.245,0,0,1-.242-.215q-.061-.506-.121-.974a.245.245,0,1,1,.485-.062q.06.47.121.978a.244.244,0,0,1-.214.272l-.03,0Z" transform="translate(-119.22 -64.359)" fill="#935b50"/>
    <path id="Path_2999" data-name="Path 2999" d="M177.166,186.267a.244.244,0,0,1-.244-.236c-.005-.148-.01-.312-.015-.49a.245.245,0,0,1,.239-.25.254.254,0,0,1,.25.239c0,.176.009.338.014.485a.244.244,0,0,1-.236.253Z" transform="translate(-119.249 -125.064)" fill="#935b50"/>
    <path id="Path_3000" data-name="Path 3000" d="M136.267,176.366h-4.608l-1.552-8.159h7.712Z" transform="translate(-87.702 -113.548)" fill="#e19974"/>
    <path id="Path_3001" data-name="Path 3001" d="M137.642,169.139l.177-.931h-7.712l.177.931Z" transform="translate(-87.702 -113.548)" fill="#d6694b"/>
    <rect id="Rectangle_195" data-name="Rectangle 195" width="1.376" height="1.376" transform="translate(44.325 58.666) rotate(45)" fill="#d6694b"/>
    <rect id="Rectangle_196" data-name="Rectangle 196" width="1.376" height="1.376" transform="translate(46.272 58.666) rotate(45)" fill="#d6694b"/>
    <rect id="Rectangle_197" data-name="Rectangle 197" width="1.376" height="1.376" transform="translate(48.196 58.666) rotate(45)" fill="#d6694b"/>
    <path id="Path_3002" data-name="Path 3002" d="M143.144,147.139s.4,5.716-1.967,6.927C141.178,154.066,140.357,151.9,143.144,147.139Z" transform="translate(-95.089 -99.346)" fill="#558031"/>
    <path id="Path_3003" data-name="Path 3003" d="M123.968,154.672a8.362,8.362,0,0,1,5.685,4.472S125.387,157.695,123.968,154.672Z" transform="translate(-83.564 -104.424)" fill="#849f4c"/>
    <path id="Path_3004" data-name="Path 3004" d="M128.188,171.408s1.973-2.952,4.31-3.015C132.5,168.393,132.146,170.77,128.188,171.408Z" transform="translate(-86.409 -113.673)" fill="#a6b862"/>
    <path id="Path_3005" data-name="Path 3005" d="M135.655,149.638a6.676,6.676,0,0,1,1.876,6.112S136.014,154.143,135.655,149.638Z" transform="translate(-91.442 -101.031)" fill="#849f4c"/>
    <path id="Path_3006" data-name="Path 3006" d="M141.411,159.244s.962-3.521,5.824-4.423C147.235,154.821,146.14,158.026,141.411,159.244Z" transform="translate(-95.322 -104.525)" fill="#a6b862"/>
    <path id="Path_3007" data-name="Path 3007" d="M148.523,164.594a7.819,7.819,0,0,0-7.112.92S145.933,166.057,148.523,164.594Z" transform="translate(-95.322 -110.794)" fill="#849f4c"/>
    <path id="Path_3008" data-name="Path 3008" d="M148.488,171.006s-1.791-2.869-7.078-2.64Z" transform="translate(-95.322 -113.646)" fill="#558031"/>
    <path id="Path_3009" data-name="Path 3009" d="M117.837,165.517s4.872-1.806,7.747.378C125.584,165.9,122.854,167.4,117.837,165.517Z" transform="translate(-79.432 -111.262)" fill="#558031"/>
    <path id="Path_3010" data-name="Path 3010" d="M130.094,150.919s4.347,3.075,3.723,5.7A11.6,11.6,0,0,1,130.094,150.919Z" transform="translate(-87.694 -101.894)" fill="#558031"/>
    <path id="Path_3011" data-name="Path 3011" d="M145.348,171.453s-3.584-.612-3.937-3.06A4.9,4.9,0,0,1,145.348,171.453Z" transform="translate(-95.322 -113.673)" fill="#849f4c"/>
    <path id="Path_3012" data-name="Path 3012" d="M329.6,137.086a3.236,3.236,0,0,1-6.473,0c0-1.787,1.449-4.261,3.236-4.261S329.6,135.3,329.6,137.086Z" transform="translate(-217.811 -89.698)" fill="#d9b1ee"/>
    <path id="Path_3013" data-name="Path 3013" d="M330.185,124.092h1.4a.326.326,0,0,1,.326.326v2.8h-2.056v-2.8a.326.326,0,0,1,.326-.326Z" transform="translate(-222.351 -83.811)" fill="#bd80e1"/>
    <line id="Line_123" data-name="Line 123" y2="35.47" transform="translate(108.549)" fill="none" stroke="#9857bd" stroke-miterlimit="10" stroke-width="1"/>
    <path id="Path_3014" data-name="Path 3014" d="M309.728,109.33,298.45,125.063l4.108,4.734h7.171Z" transform="translate(-201.179 -73.86)" fill="none" stroke="#9857bd" stroke-miterlimit="10" stroke-width="1"/>
    <path id="Path_3015" data-name="Path 3015" d="M321.391,109.33l-5.639,15.8,1.74,4.664" transform="translate(-212.842 -73.86)" fill="none" stroke="#9857bd" stroke-miterlimit="10" stroke-width="1"/>
    <line id="Line_124" data-name="Line 124" x2="11.278" transform="translate(97.271 51.203)" fill="none" stroke="#9857bd" stroke-miterlimit="10" stroke-width="1"/>
    <path id="Path_3016" data-name="Path 3016" d="M333.054,109.33l11.278,15.733-4.107,4.734h-7.171Z" transform="translate(-224.505 -73.86)" fill="none" stroke="#9857bd" stroke-miterlimit="10" stroke-width="1"/>
    <path id="Path_3017" data-name="Path 3017" d="M333.054,109.33l5.639,15.8-1.74,4.664" transform="translate(-224.505 -73.86)" fill="none" stroke="#9857bd" stroke-miterlimit="10" stroke-width="1"/>
    <line id="Line_125" data-name="Line 125" x1="11.278" transform="translate(108.549 51.203)" fill="none" stroke="#9857bd" stroke-miterlimit="10" stroke-width="1"/>
    <line id="Line_126" data-name="Line 126" x2="4.846" transform="translate(106.126)" fill="none" stroke="#9857bd" stroke-miterlimit="10" stroke-width="1"/>
    <path id="Path_3018" data-name="Path 3018" d="M216.9,197.386a14.542,14.542,0,0,0-1.826-7.412A10.683,10.683,0,0,0,211,188.142c.494-.227.9-.39,1.263-.6,2.406-1.413,4.093-5.789,2.467-8.366-1.417-2.245-4.838-2.31-5.67-2.326a6.2,6.2,0,0,0-5.449,2.633,7.069,7.069,0,0,0-1.261,3.568,6.314,6.314,0,0,1-.7,2.823c-.7,1.622-1.353,2.349-1.437,3.809a6.231,6.231,0,0,0,1.053,2.991,11.248,11.248,0,0,0-.782,5.486,20.435,20.435,0,0,0,1.993,6.416c.811,1.691,1.564,2.718,1.436,4.327-.114,1.43-.8,1.789-1.186,3.079a6.963,6.963,0,0,0,2.413,7.2c3.474,2.326,9.623-.815,10.743-4.442.754-2.443-1.341-3.267-1.443-7.313C214.33,203.042,216.729,201.844,216.9,197.386Z" transform="translate(-134.957 -119.365)" fill="#160b07"/>
    <path id="Path_3019" data-name="Path 3019" d="M212.362,210.471l.781-.719a.436.436,0,0,1,.764.235,5.255,5.255,0,0,1-.113,1.743l-.268,1.331Z" transform="translate(-143.149 -141.45)" fill="#f9977a"/>
    <path id="Path_3020" data-name="Path 3020" d="M220.737,218.364l-1.66-7.1s-6.273.058-6.418-3.187l-5.372-.348.748,2.581a1.693,1.693,0,0,1-.7,1.89l-2.966,1.93a8.534,8.534,0,0,0-3.111,3.615l-4.261,9.356,3.951,1.746s3.872-6.517,4.39-6.493c0,0,2.056,4.833-.3,8.469a19.594,19.594,0,0,0,7.12,2.791,23.081,23.081,0,0,0,7.535-.835S222.633,223.211,220.737,218.364Z" transform="translate(-132.79 -140.19)" fill="#f9977a"/>
    <path id="Path_3021" data-name="Path 3021" d="M284.145,399.164s-.313,3.25,7.881,6.49a.428.428,0,0,1,.281.381c0,.428-.665,1.02-5.421-.142a30.238,30.238,0,0,0-7.008-.861h0a1.239,1.239,0,0,1-1.25-1.446l.617-4.4Z" transform="translate(-187.805 -269.231)" fill="#f9977a"/>
    <path id="Path_3022" data-name="Path 3022" d="M278.035,414.02a.349.349,0,0,1,.428-.239,62.611,62.611,0,0,0,7.45,1.627,4.432,4.432,0,0,1,1.234-1.675.936.936,0,0,1,1.006-.111l1.864.926a.153.153,0,0,1-.009.278,1.123,1.123,0,0,0-.574.9,7.817,7.817,0,0,0,2.213-.175.348.348,0,0,1,.442.207.342.342,0,0,1-.209.439,7.037,7.037,0,0,1-2.1.223,38.159,38.159,0,0,1-8.672-1.252l0,1.2-2.938-.216S278,414.16,278.035,414.02Z" transform="translate(-187.414 -278.912)" fill="#5d1115"/>
    <path id="Path_3023" data-name="Path 3023" d="M348.037,368.553s.845,3.3,10.03,3.572a.446.446,0,0,1,.411.274c.155.419-.29,1.236-5.367,1.782a31.532,31.532,0,0,0-7.179,1.64h0a1.292,1.292,0,0,1-1.739-.975l-.956-4.538Z" transform="translate(-231.369 -248.597)" fill="#f9977a"/>
    <path id="Path_3024" data-name="Path 3024" d="M346.382,382.11a.364.364,0,0,1,.335-.386,65.288,65.288,0,0,0,7.884-1.045,4.622,4.622,0,0,1,.617-2.08.976.976,0,0,1,.947-.466l2.156.247a.16.16,0,0,1,.089.276,1.171,1.171,0,0,0-.245,1.085,8.154,8.154,0,0,0,2.109-.956.363.363,0,0,1,.507.046.357.357,0,0,1-.049.5,7.342,7.342,0,0,1-1.985.965,39.8,39.8,0,0,1-8.949,1.846l.429,1.174-2.958.83S346.394,382.262,346.382,382.11Z" transform="translate(-233.489 -255.051)" fill="#5d1115"/>
    <path id="Path_3025" data-name="Path 3025" d="M264.334,305.516l-9.944-18.684a8.294,8.294,0,0,0-5.347-4.156,82.158,82.158,0,0,0-14.385-2.359s-12.047.688-17.98-2.105c0,0-6.73,12.192,1.8,18.386,0,0,3.953,3.2,13.339.909a5.914,5.914,0,0,1,2.052-.159c1.56.174,3.8,1.032,3.658,4.549a81.991,81.991,0,0,1-3.141,19.5.427.427,0,0,0,.251.514l.046.018a15.125,15.125,0,0,0,14.391-1.782l4.365-3.137s9.634-7.242,10.957-10.609A1.063,1.063,0,0,0,264.334,305.516Z" transform="translate(-144.359 -187.699)" fill="#c67a56"/>
    <path id="Path_3026" data-name="Path 3026" d="M206.4,227.682a8.533,8.533,0,0,0-3.111,3.615l-3.172,7.022s1.837,5,2.152,4.815c1.27-.76,4.583-7.252,5.1-7.228Z" transform="translate(-134.893 -153.639)" fill="#ffba55"/>
    <path id="Path_3027" data-name="Path 3027" d="M261.771,218.78s.359.021.9.036c1.156.03,2.856,2.1,5.187,6.52l1.549,2.936s4.043-5.73,6.551-7.51l2.78,1.769-6.172,9.4a5.211,5.211,0,0,1-1.673,1.806c-1.587,1.027-3.327.919-4.443-.725a41.918,41.918,0,0,1-4.2-7.678Z" transform="translate(-176.455 -147.638)" fill="#f9977a"/>
    <path id="Path_3028" data-name="Path 3028" d="M261.771,218.78s.359.021.9.036c1.156.03,2.856,2.1,5.187,6.52l1.549,2.936s2.185,5.014,1.486,5.466c-1.588,1.027-3.327.919-4.443-.725a41.919,41.919,0,0,1-4.2-7.678Z" transform="translate(-176.455 -147.638)" fill="#ffba55"/>
    <path id="Path_3029" data-name="Path 3029" d="M304.388,218.892s.452-1.058,2.754-2.127,4.228-1.664,2.82-.56l-1.087.823s2.04-.009,3.256-.121a1.511,1.511,0,0,1,1.552.908c.226.563.041,1.013-1.33,1.412a14.5,14.5,0,0,1-3.948.671.861.861,0,0,0-.526.18l-.414.318Z" transform="translate(-205.182 -145.505)" fill="#f9977a"/>
    <path id="Path_3030" data-name="Path 3030" d="M314.375,219.95a2.109,2.109,0,0,1,.607-.144,1.85,1.85,0,0,1,.624.04,3.229,3.229,0,0,1-.61.114A2.73,2.73,0,0,1,314.375,219.95Z" transform="translate(-211.914 -148.322)" fill="#dd765e"/>
    <path id="Path_3031" data-name="Path 3031" d="M322.293,221.028c.5-.1,1-.165,1.5-.254.25-.035.5-.08.745-.126s.494-.1.741-.159a3.507,3.507,0,0,1-.714.275c-.246.071-.5.115-.747.163A8.032,8.032,0,0,1,322.293,221.028Z" transform="translate(-217.251 -148.79)" fill="#dd765e"/>
    <path id="Path_3032" data-name="Path 3032" d="M323,223.009c.553-.072,1.1-.116,1.647-.207a7.369,7.369,0,0,0,.809-.153,2.857,2.857,0,0,0,.771-.284,1.973,1.973,0,0,1-.738.4,5.364,5.364,0,0,1-.819.192c-.278.035-.555.067-.834.075A6.2,6.2,0,0,1,323,223.009Z" transform="translate(-217.73 -150.055)" fill="#dd765e"/>
    <path id="Path_3033" data-name="Path 3033" d="M324.155,225.327c.462-.068.92-.108,1.374-.182.229-.027.454-.07.681-.109s.45-.092.679-.142a4.222,4.222,0,0,1-1.337.405A5.591,5.591,0,0,1,324.155,225.327Z" transform="translate(-218.506 -151.76)" fill="#dd765e"/>
    <path id="Path_3034" data-name="Path 3034" d="M237.186,209.111a3.089,3.089,0,0,1-3.7.706s1.406,2.522,4.443.893A2,2,0,0,1,237.186,209.111Z" transform="translate(-157.39 -141.12)" fill="#dd765e"/>
    <path id="Path_3035" data-name="Path 3035" d="M226.837,181.53c-1.51-2.92-4.352-4.451-6.348-3.419-1.54.8-2.125,2.887-1.618,5.142a.628.628,0,0,0-.529.07c-.412.3-.258,1.21.342,2.03a2.053,2.053,0,0,0,1.612,1.026c1.583,2.176,3.937,3.2,5.661,2.307C227.953,187.654,228.347,184.451,226.837,181.53Z" transform="translate(-147.025 -120.007)" fill="#f9977a"/>
    <path id="Path_3036" data-name="Path 3036" d="M285.086,247.842a3.283,3.283,0,0,1,.5.525,3.64,3.64,0,0,1,.383.618,2.368,2.368,0,0,1,.211.7,1.331,1.331,0,0,1-.1.717,2.172,2.172,0,0,0-.248-1.353,4.779,4.779,0,0,0-.34-.616C285.359,248.234,285.225,248.038,285.086,247.842Z" transform="translate(-192.171 -167.228)" fill="#dd765e"/>
    <path id="Path_3037" data-name="Path 3037" d="M236.834,190.72a2.085,2.085,0,0,0,.41,1.055,4.642,4.642,0,0,0,.756.855l.225.183a.453.453,0,0,1,.177.283.741.741,0,0,1-.206.585,1.338,1.338,0,0,1-1.1.362,1.435,1.435,0,0,0,1.01-.438.665.665,0,0,0,.159-.484c-.018-.156-.214-.239-.363-.372a4.232,4.232,0,0,1-.754-.907A1.83,1.83,0,0,1,236.834,190.72Z" transform="translate(-159.643 -128.723)" fill="#dd765e"/>
    <path id="Path_3038" data-name="Path 3038" d="M227.021,192.459a.155.155,0,0,1-.148-.22,2.609,2.609,0,0,1,1.9-1.472.155.155,0,0,1,.032.309,2.328,2.328,0,0,0-1.648,1.292.156.156,0,0,1-.135.091Z" transform="translate(-152.921 -128.755)" fill="#160b07"/>
    <path id="Path_3039" data-name="Path 3039" d="M238.11,187.446a.156.156,0,0,1-.1-.28,3,3,0,0,1,1.8-.542.155.155,0,1,1-.02.31,2.714,2.714,0,0,0-1.6.481A.156.156,0,0,1,238.11,187.446Z" transform="translate(-160.395 -125.962)" fill="#160b07"/>
    <path id="Path_3040" data-name="Path 3040" d="M228.9,195.486a1.732,1.732,0,0,1,.3-.524,1.757,1.757,0,0,1,.472-.4,1.245,1.245,0,0,1,.605-.145,1.208,1.208,0,0,1,.583.173,1.868,1.868,0,0,0-.58-.053,1.27,1.27,0,0,0-.535.162,1.989,1.989,0,0,0-.458.341,3.777,3.777,0,0,0-.391.443Z" transform="translate(-154.294 -131.217)" fill="#160b07"/>
    <circle id="Ellipse_79" data-name="Ellipse 79" cx="0.349" cy="0.349" r="0.349" transform="translate(75.524 63.264)" fill="#160b07"/>
    <path id="Path_3041" data-name="Path 3041" d="M239.113,191.5a1.732,1.732,0,0,1,.3-.524,1.758,1.758,0,0,1,.472-.4,1.245,1.245,0,0,1,.605-.145,1.208,1.208,0,0,1,.583.173,1.87,1.87,0,0,0-.58-.053,1.269,1.269,0,0,0-.535.162,1.99,1.99,0,0,0-.458.341A3.78,3.78,0,0,0,239.113,191.5Z" transform="translate(-161.181 -128.529)" fill="#160b07"/>
    <circle id="Ellipse_80" data-name="Ellipse 80" cx="0.349" cy="0.349" r="0.349" transform="translate(78.853 61.964)" fill="#160b07"/>
    <path id="Path_3042" data-name="Path 3042" d="M219.566,196.777a.785.785,0,0,1,.048-.422.352.352,0,0,1,.158-.18.33.33,0,0,1,.249-.028.865.865,0,0,1,.365.243,1.559,1.559,0,0,1,.243.34c-.116-.08-.214-.174-.322-.25a.92.92,0,0,0-.323-.182.215.215,0,0,0-.265.114A1.519,1.519,0,0,0,219.566,196.777Z" transform="translate(-147.998 -132.373)" fill="#dd765e"/>
    <path id="Path_3043" data-name="Path 3043" d="M221.126,197.79a1.642,1.642,0,0,0-.062-.375,2.316,2.316,0,0,0-.123-.353c-.085-.236-.211-.454-.312-.7a1.622,1.622,0,0,1,.265.293,2.1,2.1,0,0,1,.191.349,1.056,1.056,0,0,1,.041.785Z" transform="translate(-148.721 -132.527)" fill="#dd765e"/>
    <circle id="Ellipse_81" data-name="Ellipse 81" cx="0.692" cy="0.692" r="0.692" transform="translate(71.777 65.448)" fill="#ffcb33"/>
    <path id="Path_3044" data-name="Path 3044" d="M235.685,203.4s2.2.64,2.893-.957" transform="translate(-158.871 -136.629)" fill="#dd2f22"/>
    <path id="Path_3045" data-name="Path 3045" d="M221.208,232.876a10.737,10.737,0,0,0-.846-5.555c-.518-.024-.97-8.224-.97-8.224l2.967-1.93c.625-.408,3.515,3.76,4.72,3.477,1.258-.3,1.459-5.882,1.722-5.693.053.038.109.075.165.111,1.873,1.2,5.136,1.169,5.136,1.169l1.66,7.1c1.194,2.568.663,6.979.514,8.032a.31.31,0,0,1-.264.263C234.115,231.894,221.083,233.711,221.208,232.876Z" transform="translate(-147.888 -145.054)" fill="#ffba55"/>
    <path id="Path_3046" data-name="Path 3046" d="M225.611,250.977c1.918,1.633,5.317.735,5.931-.563" transform="translate(-152.08 -168.962)" fill="#e6952a"/>
    <path id="Path_3047" data-name="Path 3047" d="M249.944,244.574s3.825,2.264,5.657-1.909" transform="translate(-168.482 -163.739)" fill="#d3a124"/>
    <path id="Path_3048" data-name="Path 3048" d="M223.551,233.068s6.473-17,8.942-16.686c0,0,2-.334,2.657.522s.434,16.571-1.877,22.352c-1.919,4.8-13.141-1.764-13.141-1.764A11.419,11.419,0,0,0,223.551,233.068Z" transform="translate(-148.386 -145.978)" fill="#c67a56"/>
    <circle id="Ellipse_82" data-name="Ellipse 82" cx="0.335" cy="0.335" r="0.335" transform="translate(76.427 60.95)" fill="#dd2f22"/>
    <line id="Line_127" data-name="Line 127" x2="0.385" y2="0.542" transform="translate(75.324 58.052)" fill="none" stroke="#dd2f22" stroke-linecap="round" stroke-linejoin="round" stroke-width="1.431"/>
    <circle id="Ellipse_83" data-name="Ellipse 83" cx="0.275" cy="0.275" r="0.275" transform="translate(79.465 77.85)" fill="#160b07"/>
    <circle id="Ellipse_84" data-name="Ellipse 84" cx="0.275" cy="0.275" r="0.275" transform="translate(80.016 77.806)" fill="#160b07"/>
    <circle id="Ellipse_85" data-name="Ellipse 85" cx="0.21" cy="0.21" r="0.21" transform="translate(79.837 78.177)" fill="#dd2f22"/>
    <path id="Path_3049" data-name="Path 3049" d="M229.829,220.193l-.021,0a.078.078,0,0,1-.059-.093c.011-.047.02-.1.029-.149a.078.078,0,1,1,.153.025c-.009.056-.02.108-.031.158a.078.078,0,0,1-.072.061Z" transform="translate(-154.868 -148.382)" fill="#160b07"/>
    <path id="Path_3050" data-name="Path 3050" d="M234.39,223.987a.078.078,0,0,1-.01-.155,1.071,1.071,0,0,0,.282-.061.078.078,0,0,1,.053.146,1.226,1.226,0,0,1-.323.07Zm-.309-.011h-.014a2.11,2.11,0,0,1-.314-.07.078.078,0,0,1,.044-.149,1.941,1.941,0,0,0,.291.065.078.078,0,0,1-.007.155Zm.889-.194a.078.078,0,0,1-.045-.144,2.107,2.107,0,0,0,.241-.176.078.078,0,1,1,.1.119,2.23,2.23,0,0,1-.26.189.076.076,0,0,1-.037.012Zm-1.484.022a.077.077,0,0,1-.033-.006c-.09-.037-.184-.08-.287-.132a.078.078,0,0,1,.069-.139c.1.05.19.091.277.127a.078.078,0,0,1-.026.15Zm-.557-.274a.077.077,0,0,1-.041-.01l-.256-.143.023-.077.04-.067-.04.067.042-.065.266.149a.078.078,0,0,1-.034.146Zm2.517-.144a.078.078,0,0,1-.06-.131c.067-.071.133-.148.2-.23a.078.078,0,1,1,.122.1c-.067.086-.137.167-.207.241a.078.078,0,0,1-.053.024Zm-3.054-.168a.077.077,0,0,1-.045-.012c-.079-.05-.167-.108-.261-.174a.078.078,0,0,1,.089-.128c.093.065.179.121.256.171a.078.078,0,0,1-.038.143Zm3.438-.319a.077.077,0,0,1-.047-.013.078.078,0,0,1-.021-.108q.083-.124.162-.259a.078.078,0,1,1,.134.079q-.082.14-.167.267a.078.078,0,0,1-.061.034Zm-3.948-.036a.078.078,0,0,1-.05-.016q-.119-.09-.246-.195a.078.078,0,1,1,.1-.12c.083.068.163.132.241.191a.078.078,0,0,1-.044.14Zm4.262-.5a.078.078,0,0,1-.072-.113q.065-.126.128-.26l.007-.015a.078.078,0,0,1,.142.063l-.008.018q-.064.136-.13.265A.078.078,0,0,1,236.143,222.364Zm-4.741.1a.078.078,0,0,1-.055-.02q-.114-.1-.229-.214a.078.078,0,0,1,.109-.111q.113.11.225.21a.078.078,0,0,1-.048.136Zm5-.668a.078.078,0,0,1-.076-.106q.057-.145.1-.288a.078.078,0,1,1,.148.048q-.047.148-.106.3a.078.078,0,0,1-.069.049Zm-5.444.234a.077.077,0,0,1-.06-.024q-.105-.112-.21-.233a.078.078,0,1,1,.118-.1q.1.119.206.228a.078.078,0,0,1-.053.131Zm-.405-.47a.078.078,0,0,1-.065-.03q-.1-.121-.188-.251a.078.078,0,0,1,.127-.09q.09.127.184.246a.078.078,0,0,1-.058.126Zm6.038-.355a.08.08,0,0,1-.022,0,.078.078,0,0,1-.057-.094q.038-.15.064-.3a.078.078,0,0,1,.153.028c-.019.1-.041.206-.066.308a.078.078,0,0,1-.072.059Zm-6.4-.151a.078.078,0,0,1-.069-.036q-.084-.13-.163-.268a.078.078,0,1,1,.135-.077q.077.134.16.262a.078.078,0,0,1-.023.107.076.076,0,0,1-.038.012Zm6.509-.46h-.012a.078.078,0,0,1-.068-.086q.017-.153.024-.3a.079.079,0,0,1,.081-.074.078.078,0,0,1,.074.081c0,.1-.013.211-.025.315a.078.078,0,0,1-.074.069Zm-6.819-.078a.078.078,0,0,1-.073-.042q-.071-.138-.136-.283a.078.078,0,1,1,.142-.064q.063.142.132.276a.078.078,0,0,1-.066.113Zm6.849-.542h0a.078.078,0,0,1-.079-.076q0-.072,0-.144c0-.054-.006-.108-.01-.162a.078.078,0,0,1,.072-.083.084.084,0,0,1,.083.072q.006.083.01.166c0,.049,0,.1,0,.148a.078.078,0,0,1-.074.079Zm-7.1-.024a.078.078,0,0,1-.076-.05q-.056-.145-.106-.3a.078.078,0,0,1,.148-.049q.049.147.1.288a.078.078,0,0,1-.044.1.079.079,0,0,1-.025.005Zm7.056-.594a.078.078,0,0,1-.08-.068q-.02-.153-.048-.3a.078.078,0,0,1,.153-.028q.028.154.049.311a.078.078,0,0,1-.067.087Zm-7.25.005a.078.078,0,0,1-.078-.057q-.041-.15-.075-.305a.078.078,0,0,1,.152-.033q.033.152.073.3a.078.078,0,0,1-.055.1l-.017,0Zm7.139-.616a.078.078,0,0,1-.079-.06q-.035-.15-.075-.3a.078.078,0,1,1,.15-.041q.041.151.076.3a.078.078,0,0,1-.058.093l-.014,0Zm-7.271.01a.078.078,0,0,1-.08-.066,2.62,2.62,0,0,1-.028-.273v-.045a.081.081,0,0,1,.076-.08.078.078,0,0,1,.08.076v.042a2.475,2.475,0,0,0,.026.257.078.078,0,0,1-.065.088Zm7.109-.609a.078.078,0,0,1-.078-.055q-.046-.148-.095-.294a.078.078,0,1,1,.147-.05q.05.148.1.3a.078.078,0,0,1-.051.1l-.019,0Zm-7.115-.009h-.017a.078.078,0,0,1-.063-.09,2.557,2.557,0,0,1,.078-.31.078.078,0,1,1,.149.045,2.442,2.442,0,0,0-.074.291.078.078,0,0,1-.073.064Zm6.917-.58a.078.078,0,0,1-.077-.051q-.053-.147-.107-.29a.078.078,0,0,1,.146-.055q.054.145.108.293a.078.078,0,0,1-.047.1.076.076,0,0,1-.023,0Zm-.217-.582a.078.078,0,0,1-.076-.05l-.111-.29a.078.078,0,0,1,.145-.055l.111.29a.078.078,0,0,1-.069.106Zm-.22-.581a.078.078,0,0,1-.076-.051q-.055-.149-.1-.294a.078.078,0,1,1,.147-.051q.049.144.1.291a.078.078,0,0,1-.046.1.08.08,0,0,1-.023,0Z" transform="translate(-154.494 -145.73)" fill="#160b07"/>
    <path id="Path_3051" data-name="Path 3051" d="M248.535,214.954l-.018,0a.078.078,0,0,1-.079-.056l-.044-.151a.074.074,0,0,1,.011-.063c.053.038.109.075.165.111l.017.058a.076.076,0,0,1-.052.1Z" transform="translate(-167.436 -144.88)" fill="#160b07"/>
    <path id="Path_3052" data-name="Path 3052" d="M205.906,194.959a2.051,2.051,0,0,1-1.719-1.154.737.737,0,0,0-.782.184c0-.017,0-.032,0-.049a1.412,1.412,0,0,0-2.349,1.24c-.018,0-.035,0-.054,0a1.15,1.15,0,0,0,1.7,1.447,1.166,1.166,0,0,1,2.078.2.74.74,0,0,0,.706-.772.731.731,0,0,1,.419-1.095Z" transform="translate(-135.012 -130.413)" fill="#f9dd95"/>
    <circle id="Ellipse_86" data-name="Ellipse 86" cx="0.19" cy="0.19" r="0.19" transform="translate(65.736 65.397)" fill="#f4906e"/>
    <circle id="Ellipse_87" data-name="Ellipse 87" cx="0.19" cy="0.19" r="0.19" transform="translate(66.485 64.189)" fill="#f4906e"/>
    <circle id="Ellipse_88" data-name="Ellipse 88" cx="0.19" cy="0.19" r="0.19" transform="translate(66.975 65.531)" fill="#f4906e"/>
    <circle id="Ellipse_89" data-name="Ellipse 89" cx="0.19" cy="0.19" r="0.19" transform="translate(66.409 64.987)" fill="#f4906e"/>
    <circle id="Ellipse_90" data-name="Ellipse 90" cx="0.19" cy="0.19" r="0.19" transform="translate(67.299 64.291)" fill="#f4906e"/>
    <circle id="Ellipse_91" data-name="Ellipse 91" cx="0.19" cy="0.19" r="0.19" transform="translate(67.445 63.295)" fill="#f4906e"/>
    <circle id="Ellipse_92" data-name="Ellipse 92" cx="0.19" cy="0.19" r="0.19" transform="translate(68.804 63.896)" fill="#f4906e"/>
    <circle id="Ellipse_93" data-name="Ellipse 93" cx="0.19" cy="0.19" r="0.19" transform="translate(68.15 64.305)" fill="#f4906e"/>
    <circle id="Ellipse_94" data-name="Ellipse 94" cx="0.19" cy="0.19" r="0.19" transform="translate(67.712 65.034)" fill="#f4906e"/>
    <circle id="Ellipse_95" data-name="Ellipse 95" cx="0.19" cy="0.19" r="0.19" transform="translate(68.12 65.67)" fill="#f4906e"/>
    <circle id="Ellipse_96" data-name="Ellipse 96" cx="0.19" cy="0.19" r="0.19" transform="translate(68.658 64.887)" fill="#f4906e"/>
    <circle id="Ellipse_97" data-name="Ellipse 97" cx="0.19" cy="0.19" r="0.19" transform="translate(69.568 65.606)" fill="#f4906e"/>
    <circle id="Ellipse_98" data-name="Ellipse 98" cx="0.19" cy="0.19" r="0.19" transform="translate(70.017 64.36)" fill="#f4906e"/>
    <circle id="Ellipse_99" data-name="Ellipse 99" cx="0.19" cy="0.19" r="0.19" transform="translate(69.534 64.848)" fill="#f4906e"/>
    <circle id="Ellipse_100" data-name="Ellipse 100" cx="0.335" cy="0.335" r="0.335" transform="translate(77.414 64.838)" fill="#ffcb33"/>
    <path id="Path_3053" data-name="Path 3053" d="M220.825,176.939c-.434.244-.59.674-.9,1.534-.6,1.662-.655,3.727-1.249,4.258a.442.442,0,0,1-.237.123c-.281.037-.488-.281-.927-.687-.332-.307-.448-.343-.639-.513a3.119,3.119,0,0,1-.9-2.668,3.3,3.3,0,0,1,1.31-2.038,4.825,4.825,0,0,1,3.489-.921,5.861,5.861,0,0,1,4.139,2.338C224.831,178.47,222.272,176.126,220.825,176.939Z" transform="translate(-145.557 -118.798)" fill="#160b07"/>
    <circle id="Ellipse_101" data-name="Ellipse 101" cx="1.031" cy="1.031" r="1.031" transform="translate(84.303 100.651)" fill="#ffba55"/>
    <circle id="Ellipse_102" data-name="Ellipse 102" cx="1.031" cy="1.031" r="1.031" transform="translate(87.137 94.755)" fill="#ffba55"/>
    <circle id="Ellipse_103" data-name="Ellipse 103" cx="1.031" cy="1.031" r="1.031" transform="translate(91.103 101.661)" fill="#ffba55"/>
    <circle id="Ellipse_104" data-name="Ellipse 104" cx="1.031" cy="1.031" r="1.031" transform="translate(77.994 102.941)" fill="#ffba55"/>
    <circle id="Ellipse_105" data-name="Ellipse 105" cx="1.031" cy="1.031" r="1.031" transform="translate(71.74 95.439)" fill="#ffba55"/>
    <circle id="Ellipse_106" data-name="Ellipse 106" cx="1.031" cy="1.031" r="1.031" transform="translate(77.27 91.231)" fill="#ffba55"/>
    <circle id="Ellipse_107" data-name="Ellipse 107" cx="1.031" cy="1.031" r="1.031" transform="translate(77.956 97.516)" fill="#ffba55"/>
    <circle id="Ellipse_108" data-name="Ellipse 108" cx="1.031" cy="1.031" r="1.031" transform="translate(76.771 86.384)" fill="#ffba55"/>
    <circle id="Ellipse_109" data-name="Ellipse 109" cx="1.031" cy="1.031" r="1.031" transform="translate(82.795 89.953)" fill="#ffba55"/>
    <circle id="Ellipse_110" data-name="Ellipse 110" cx="1.031" cy="1.031" r="1.031" transform="translate(81.629 81.583)" fill="#ffba55"/>
    <circle id="Ellipse_111" data-name="Ellipse 111" cx="1.031" cy="1.031" r="1.031" transform="translate(84.192 74.959)" fill="#ffba55"/>
    <circle id="Ellipse_112" data-name="Ellipse 112" cx="1.031" cy="1.031" r="1.031" transform="translate(92.688 95.935)" fill="#ffba55"/>
    <circle id="Ellipse_113" data-name="Ellipse 113" cx="1.031" cy="1.031" r="1.031" transform="translate(97.698 99.103)" fill="#ffba55"/>
    <circle id="Ellipse_114" data-name="Ellipse 114" cx="1.031" cy="1.031" r="1.031" transform="translate(98.514 94.249)" fill="#ffba55"/>
    <circle id="Ellipse_115" data-name="Ellipse 115" cx="1.031" cy="1.031" r="1.031" transform="translate(103.226 99.737)" fill="#ffba55"/>
    <circle id="Ellipse_116" data-name="Ellipse 116" cx="1.031" cy="1.031" r="1.031" transform="translate(108.444 101.588)" fill="#ffba55"/>
    <circle id="Ellipse_117" data-name="Ellipse 117" cx="1.031" cy="1.031" r="1.031" transform="translate(105.598 105.19)" fill="#ffba55"/>
    <circle id="Ellipse_118" data-name="Ellipse 118" cx="1.031" cy="1.031" r="1.031" transform="translate(107.746 112.391)" fill="#ffba55"/>
    <circle id="Ellipse_119" data-name="Ellipse 119" cx="1.031" cy="1.031" r="1.031" transform="translate(110.473 107.765)" fill="#ffba55"/>
    <circle id="Ellipse_120" data-name="Ellipse 120" cx="1.031" cy="1.031" r="1.031" transform="translate(115.105 113.096)" fill="#ffba55"/>
    <circle id="Ellipse_121" data-name="Ellipse 121" cx="1.031" cy="1.031" r="1.031" transform="translate(109.097 119.589)" fill="#ffba55"/>
    <circle id="Ellipse_122" data-name="Ellipse 122" cx="1.031" cy="1.031" r="1.031" transform="translate(113.732 120.042)" fill="#ffba55"/>
    <circle id="Ellipse_123" data-name="Ellipse 123" cx="1.031" cy="1.031" r="1.031" transform="translate(106.548 126.568)" fill="#ffba55"/>
    <circle id="Ellipse_124" data-name="Ellipse 124" cx="1.031" cy="1.031" r="1.031" transform="translate(101.996 122.913)" fill="#ffba55"/>
    <circle id="Ellipse_125" data-name="Ellipse 125" cx="1.031" cy="1.031" r="1.031" transform="translate(103.601 117.702)" fill="#ffba55"/>
    <circle id="Ellipse_126" data-name="Ellipse 126" cx="1.031" cy="1.031" r="1.031" transform="translate(99.351 113.076)" fill="#ffba55"/>
    <path id="Path_3054" data-name="Path 3054" d="M293.86,315.9a1,1,0,0,1,.088.371,1.031,1.031,0,1,1-2.057.133Z" transform="translate(-196.758 -213.102)" fill="#ffba55"/>
    <circle id="Ellipse_127" data-name="Ellipse 127" cx="1.031" cy="1.031" r="1.031" transform="translate(93.763 109.273)" fill="#ffba55"/>
    <path id="Path_3055" data-name="Path 3055" d="M312.132,321.394a.971.971,0,0,0-.236-.018,1.03,1.03,0,1,0,.966,1.489Z" transform="translate(-209.578 -216.796)" fill="#ffba55"/>
    <circle id="Ellipse_128" data-name="Ellipse 128" cx="1.031" cy="1.031" r="1.031" transform="translate(93.153 124.575)" fill="#ffba55"/>
    <circle id="Ellipse_129" data-name="Ellipse 129" cx="1.031" cy="1.031" r="1.031" transform="translate(99.108 130.821)" fill="#ffba55"/>
    <circle id="Ellipse_130" data-name="Ellipse 130" cx="1.031" cy="1.031" r="1.031" transform="translate(93.745 132.091)" fill="#ffba55"/>
    <circle id="Ellipse_131" data-name="Ellipse 131" cx="1.031" cy="1.031" r="1.031" transform="translate(96.949 119.895)" fill="#ffba55"/>
    <circle id="Ellipse_132" data-name="Ellipse 132" cx="1.031" cy="1.031" r="1.031" transform="translate(93.597 116.389)" fill="#ffba55"/>
    <path id="Path_3056" data-name="Path 3056" d="M317.417,302.184c-.434-.225-.835-.471-1.228-.722l-1.165-.751c-.386-.247-.766-.5-1.161-.724a9.518,9.518,0,0,0-1.249-.618,2.936,2.936,0,0,1,1.456.154,5.6,5.6,0,0,1,1.309.642,7.191,7.191,0,0,1,1.126.9A5.474,5.474,0,0,1,317.417,302.184Z" transform="translate(-210.726 -201.94)" fill="#b7694b"/>
    <path id="Path_3057" data-name="Path 3057" d="M323.555,301.457c-.787-.322-1.47-.718-2.17-1.074-.349-.175-.692-.36-1.049-.512a8.664,8.664,0,0,0-1.129-.413,2.424,2.424,0,0,1,1.277-.078,4.255,4.255,0,0,1,1.2.424,5.345,5.345,0,0,1,1.039.706A4.137,4.137,0,0,1,323.555,301.457Z" transform="translate(-215.171 -201.935)" fill="#b7694b"/>
    <path id="Path_3058" data-name="Path 3058" d="M346.262,348.611a6.153,6.153,0,0,1-.523,1.223,9.755,9.755,0,0,1-.7,1.11,8.466,8.466,0,0,1-.861,1,3.519,3.519,0,0,1-1.093.783l.7-1.1c.233-.362.473-.719.73-1.065s.525-.685.811-1.012A7.862,7.862,0,0,1,346.262,348.611Z" transform="translate(-231.265 -235.155)" fill="#b7694b"/>
    <path id="Path_3059" data-name="Path 3059" d="M345.216,357.974a5.751,5.751,0,0,1-.7,1.184,8.6,8.6,0,0,1-.891,1.029,7.609,7.609,0,0,1-1.056.87,4.339,4.339,0,0,1-1.242.606c.306-.355.607-.677.915-1s.61-.639.927-.945.639-.612.974-.907A10.1,10.1,0,0,1,345.216,357.974Z" transform="translate(-230.083 -241.466)" fill="#b7694b"/>
    <path id="Path_3060" data-name="Path 3060" d="M235.538,325.157c.57-.115,1.131-.187,1.691-.25l1.668-.181c.553-.058,1.1-.12,1.646-.2a5.758,5.758,0,0,0,1.6-.432,3.02,3.02,0,0,1-1.48.926,7.929,7.929,0,0,1-1.7.358,11.12,11.12,0,0,1-1.721.039A8.1,8.1,0,0,1,235.538,325.157Z" transform="translate(-158.771 -218.626)" fill="#b7694b"/>
    <path id="Path_3061" data-name="Path 3061" d="M245.434,328.46a3.964,3.964,0,0,1,.858-.257,6.886,6.886,0,0,1,.846-.105c.281-.02.56-.024.841-.017s.552.029.866.019a1.611,1.611,0,0,1-.788.487,3.753,3.753,0,0,1-.876.161,4.333,4.333,0,0,1-.879-.034A2.951,2.951,0,0,1,245.434,328.46Z" transform="translate(-165.442 -221.314)" fill="#b7694b"/>
    <path id="Path_3062" data-name="Path 3062" d="M322,349.028c.451,1.234.87,2.471,1.288,3.707s.833,2.47,1.275,3.693.887,2.443,1.4,3.632a17.834,17.834,0,0,0,.846,1.74,4.151,4.151,0,0,0,1.219,1.475,3.668,3.668,0,0,1-1.487-1.3,12.705,12.705,0,0,1-1.037-1.7,28.9,28.9,0,0,1-1.55-3.633c-.434-1.241-.821-2.5-1.146-3.766a36.448,36.448,0,0,1-.8-3.852Z" transform="translate(-217.05 -235.436)" fill="#b7694b"/>
    <path id="Path_3063" data-name="Path 3063" d="M228.314,295.252a8.856,8.856,0,0,0,3.461-.782,10.707,10.707,0,0,0,2.912-1.945l.636-.612.575-.674.292-.334.258-.362c.17-.243.346-.483.524-.723s.31-.509.473-.76l.475-.766c.28-.532.559-1.067.867-1.6-.174.581-.377,1.157-.579,1.735-.258.552-.507,1.115-.8,1.654-.16.263-.322.525-.489.784l-.25.39-.287.365q-.29.363-.588.72l-.662.658a9.266,9.266,0,0,1-3.169,1.938,6.8,6.8,0,0,1-3.646.31Z" transform="translate(-153.902 -193.421)" fill="#b7694b"/>
    <path id="Path_3064" data-name="Path 3064" d="M298.975,317q.756,3.413,1.276,6.871.536,3.454.869,6.938c.211,2.322.366,4.654.353,6.993a30.835,30.835,0,0,1-.2,3.505,13.782,13.782,0,0,1-.329,1.73,3.808,3.808,0,0,1-.745,1.58,2.621,2.621,0,0,0,.371-.78,5.856,5.856,0,0,0,.206-.838,13.538,13.538,0,0,0,.179-1.721c.063-1.154.043-2.312.006-3.469-.09-2.315-.272-4.629-.493-6.939s-.469-4.621-.723-6.932Z" transform="translate(-201.533 -213.846)" fill="#b7694b"/>
    <path id="Path_3065" data-name="Path 3065" d="M306.487,315.714c.309,1.339.564,2.683.8,4.029s.459,2.694.679,4.042l.626,4.046c.107.673.21,1.347.33,2.017.056.336.122.67.2,1,.037.166.077.331.127.492a1,1,0,0,0,.221.449,1.041,1.041,0,0,1-.313-.411c-.079-.155-.145-.315-.209-.476-.126-.322-.231-.651-.334-.98q-.294-.991-.519-2c-.309-1.338-.549-2.688-.77-4.04s-.4-2.71-.537-4.073S306.528,317.088,306.487,315.714Z" transform="translate(-206.597 -212.979)" fill="#b7694b"/>
    <path id="Path_3066" data-name="Path 3066" d="M239.9,263.454a23.262,23.262,0,0,1,.727-2.249c.268-.737.57-1.46.873-2.181s.634-1.43.977-2.134.7-1.4,1.057-2.105a11.993,11.993,0,0,1-.586,2.3c-.249.748-.545,1.475-.849,2.2s-.644,1.431-1.008,2.128a20.112,20.112,0,0,1-1.19,2.044Z" transform="translate(-161.712 -171.909)" fill="#b7694b"/>
    <path id="Path_3067" data-name="Path 3067" d="M287.391,321.99a15.279,15.279,0,0,0-.492-2.564,9.228,9.228,0,0,0-1-2.351,4.4,4.4,0,0,0-1.773-1.66,3.782,3.782,0,0,0-1.158-.331,5.765,5.765,0,0,0-1.247,0,11.465,11.465,0,0,0-4.884,1.384,32.519,32.519,0,0,1-4.642,2.45c1.56-.816,2.864-1.971,4.391-2.893a11.151,11.151,0,0,1,2.442-1.116,11.523,11.523,0,0,1,2.648-.475,4.959,4.959,0,0,1,2.722.427,4.745,4.745,0,0,1,1.936,1.954,8.563,8.563,0,0,1,.873,2.536A11.352,11.352,0,0,1,287.391,321.99Z" transform="translate(-183.482 -212.091)" fill="#b7694b"/>
    <path id="Path_3068" data-name="Path 3068" d="M231.8,253.111c.412-1.255.888-2.483,1.39-3.7.246-.611.513-1.211.774-1.816s.543-1.2.818-1.8.57-1.187.865-1.775.6-1.174.922-1.749.65-1.148,1-1.709c.18-.278.361-.555.559-.822.1-.133.2-.265.311-.39.056-.062.113-.123.174-.18a.6.6,0,0,1,.207-.139,1.188,1.188,0,0,0-.306.375c-.086.138-.164.282-.24.426-.152.29-.3.582-.438.878-.286.589-.558,1.186-.836,1.779l-.825,1.786-.833,1.783-.847,1.778c-.29.589-.569,1.184-.867,1.77C233.047,250.789,232.448,251.96,231.8,253.111Z" transform="translate(-156.252 -161.292)" fill="#b7694b"/>
    <path id="Path_3069" data-name="Path 3069" d="M237.474,265.66a1.025,1.025,0,0,0-.514-.112c-.028,0-.056,0-.083.008-.235.545-.474,1.088-.7,1.637a1.035,1.035,0,0,0,.389.317l.014-.028c.3-.586.576-1.181.867-1.77Z" transform="translate(-159.204 -179.163)" fill="#e6952a"/>
    <path id="Path_3070" data-name="Path 3070" d="M244.242,224.118a48.365,48.365,0,0,1-.065,6.827c-.08,1.137-.212,2.271-.368,3.4s-.367,2.254-.612,3.372-.551,2.222-.911,3.311a24.516,24.516,0,0,1-1.3,3.184,16.052,16.052,0,0,1-1.84,2.909,10.089,10.089,0,0,1-2.547,2.28,11.487,11.487,0,0,0,2.3-2.464,14.456,14.456,0,0,0,.891-1.428c.27-.492.526-.992.754-1.5s.439-1.034.638-1.559.376-1.06.543-1.6q.5-1.61.865-3.266c.253-1.1.457-2.21.638-3.325s.331-2.236.467-3.36Q244.083,227.526,244.242,224.118Z" transform="translate(-159.484 -151.236)" fill="#b7694b"/>
    <path id="Path_3071" data-name="Path 3071" d="M259.6,232.628q.024-.955.01-1.91a1.024,1.024,0,0,0-.219.119q-.055.787-.121,1.573A1.031,1.031,0,0,0,259.6,232.628Z" transform="translate(-174.771 -155.686)" fill="#e6952a"/>
    <path id="Path_3072" data-name="Path 3072" d="M199.583,244.224a1.194,1.194,0,0,1-1.291.1c-.926-.493-2.38-1.542-2.153-3.2.473-3.446.673-8.91,2.071-11.961l3.19.014a36.379,36.379,0,0,0-.5,11.786v.011a3.494,3.494,0,0,1-1.321,3.242Z" transform="translate(-132.197 -154.642)" fill="#f9977a"/>
    <path id="Path_3073" data-name="Path 3073" d="M209.023,204.189a.888.888,0,0,0-1.148-.276l-.625.317a.661.661,0,0,1-.881-.283l-2.349-4.511a.842.842,0,0,1,.132-.69.4.4,0,0,1,.705.024h0a.4.4,0,0,0,.528.188l.13-.062a.4.4,0,0,0,.192-.514l-.559-1.291h0a.626.626,0,0,0-.472-.442,1.4,1.4,0,0,0-.987.086l-1.372.634a.993.993,0,0,0-.464,1.36l3.7,7.107a1.038,1.038,0,0,0,1.385.449l1.749-.873a.853.853,0,0,0,.336-1.225Z" transform="translate(-135.99 -132.686)" fill="#4f66d0"/>
    <path id="Path_3074" data-name="Path 3074" d="M201.376,213.427a15.449,15.449,0,0,1-.215-6.478,1.164,1.164,0,0,1,.6-.74l.846-.424a1.151,1.151,0,0,1,1.5.435h0a1.148,1.148,0,0,1,.164.632,20.167,20.167,0,0,0,.047,3.362,4.185,4.185,0,0,1,.648,1.721,2.359,2.359,0,0,1-.374,1.485Z" transform="translate(-135.409 -138.796)" fill="#f9977a"/>
    <path id="Path_3075" data-name="Path 3075" d="M227.748,196.748c.052.01.1.016.149.024a.821.821,0,0,0,.14.012.869.869,0,0,0,.283-.036.3.3,0,0,1-.125.1.409.409,0,0,1-.162.031.4.4,0,0,1-.286-.133Z" transform="translate(-153.52 -132.787)" fill="#160b07"/>
    <path id="Path_3076" data-name="Path 3076" d="M227.174,197.634c.052.01.1.016.149.024a.818.818,0,0,0,.14.012.867.867,0,0,0,.283-.036.3.3,0,0,1-.125.1.409.409,0,0,1-.162.031A.4.4,0,0,1,227.174,197.634Z" transform="translate(-153.133 -133.384)" fill="#160b07"/>
    <path id="Path_3077" data-name="Path 3077" d="M243.774,189.857c.047-.025.09-.052.131-.076a.814.814,0,0,0,.116-.078.87.87,0,0,0,.2-.206.3.3,0,0,1-.033.158.41.41,0,0,1-.106.126A.4.4,0,0,1,243.774,189.857Z" transform="translate(-164.323 -127.899)" fill="#160b07"/>
    <path id="Path_3078" data-name="Path 3078" d="M244.878,190.164c.047-.025.09-.052.131-.076a.816.816,0,0,0,.116-.078.868.868,0,0,0,.2-.206.3.3,0,0,1-.033.158.409.409,0,0,1-.106.126.4.4,0,0,1-.306.077Z" transform="translate(-165.067 -128.105)" fill="#160b07"/>
    <path id="Path_3079" data-name="Path 3079" d="M59.809,263.8v-2.249l1.8,1.574s3.148-1.349,4.947.075l2.4-1.649-.525,2.7a35.69,35.69,0,0,1,.525,4.422s11.806,7.5,11.131,17.924a8.9,8.9,0,0,1-1.286,3.834,15.447,15.447,0,0,1-2.6,3.468,14.852,14.852,0,0,0-3.2,4.831s-1.792.7-.751-2.413a9.991,9.991,0,0,1,2.47-3.905,14.314,14.314,0,0,0,3.678-5.6H62.807s.328-1.417,1.088-1.651c0,0-3.036-6.295-3.636-8.843s0-7.2,0-7.2S58.984,266.2,59.809,263.8Z" transform="translate(-40.129 -176.472)" fill="#edebeb"/>
    <path id="Path_3080" data-name="Path 3080" d="M77.349,270.915a1.655,1.655,0,0,1,.319-.262,1.748,1.748,0,0,1,.349-.175,1.119,1.119,0,0,1,.73-.025.961.961,0,0,0-.568.292,1.362,1.362,0,0,0-.184.243,1.069,1.069,0,0,0-.117.258.329.329,0,1,1-.563-.3Z" transform="translate(-52.058 -182.436)" fill="#070707"/>
    <path id="Path_3081" data-name="Path 3081" d="M64.9,271.246a1.07,1.07,0,0,0-.117-.258,1.361,1.361,0,0,0-.184-.243.961.961,0,0,0-.568-.292,1.119,1.119,0,0,1,.73.025,1.745,1.745,0,0,1,.349.175,1.655,1.655,0,0,1,.319.262l.032.034a.329.329,0,0,1-.482.448A.332.332,0,0,1,64.9,271.246Z" transform="translate(-43.165 -182.436)" fill="#070707"/>
    <path id="Path_3082" data-name="Path 3082" d="M72.6,276.308a.472.472,0,0,1-.944,0C71.653,276.047,72.6,276.047,72.6,276.308Z" transform="translate(-48.3 -186.284)" fill="#e2b5b5"/>
    <path id="Path_3083" data-name="Path 3083" d="M85.523,271.51,80.1,273.492l-.069-.3,5.721-.576-5.681.886L80,273.2Z" transform="translate(-53.924 -183.182)" fill="#ccc4c4"/>
    <path id="Path_3084" data-name="Path 3084" d="M85.85,277.389a23.185,23.185,0,0,1-2.86-.011,22.907,22.907,0,0,1-2.841-.323,22.953,22.953,0,0,1,2.86.011A23.193,23.193,0,0,1,85.85,277.389Z" transform="translate(-54.027 -186.894)" fill="#ccc4c4"/>
    <path id="Path_3085" data-name="Path 3085" d="M47.793,271.51l5.526,1.686-.069.3-5.681-.886,5.721.576-.069.3Z" transform="translate(-32.065 -183.182)" fill="#ccc4c4"/>
    <path id="Path_3086" data-name="Path 3086" d="M47.568,277.389a23.181,23.181,0,0,1,2.841-.323,22.941,22.941,0,0,1,2.86-.011,22.907,22.907,0,0,1-2.841.323A23.191,23.191,0,0,1,47.568,277.389Z" transform="translate(-32.065 -186.894)" fill="#ccc4c4"/>
    <circle id="Ellipse_133" data-name="Ellipse 133" cx="1.008" cy="1.008" r="1.008" transform="translate(23.118 94.044)" fill="#eadd65"/>
    <path id="Path_3087" data-name="Path 3087" d="M72.572,306.516l.348,2.329.377,2.319c.134.771.282,1.538.459,2.3l.139.567.163.559c.054.186.126.365.189.548s.16.347.239.523l.041.091-.079.039a2.67,2.67,0,0,0-.744.51.918.918,0,0,0-.236.377.691.691,0,0,0,.023.448.688.688,0,0,1-.081-.462,1,1,0,0,1,.214-.432,2.393,2.393,0,0,1,.746-.605l-.038.13a8.225,8.225,0,0,1-.861-2.22q-.29-1.15-.471-2.319t-.288-2.343C72.637,308.088,72.587,307.3,72.572,306.516Z" transform="translate(-48.92 -206.779)" fill="#ccc4c4"/>
    <path id="Path_3088" data-name="Path 3088" d="M92.939,305.879a5.982,5.982,0,0,0-1.848-1.193,3.515,3.515,0,0,0-2.126-.2,3.867,3.867,0,0,0-1.822,1.1,5.17,5.17,0,0,0-1.184,1.79,3.834,3.834,0,0,0-.115,2.108,6,6,0,0,0,.861,1.981,13.239,13.239,0,0,0,3.02,3.18l.283.216-.346-.069a4.039,4.039,0,0,0-1.394-.065,1.353,1.353,0,0,0-.641.253.926.926,0,0,0-.341.594.946.946,0,0,1,.308-.634,1.422,1.422,0,0,1,.657-.3,3.99,3.99,0,0,1,1.444-.007l-.063.147a12.388,12.388,0,0,1-3.161-3.162,6.289,6.289,0,0,1-.924-2.068,3.942,3.942,0,0,1,.133-2.274,5.447,5.447,0,0,1,1.27-1.881,3.912,3.912,0,0,1,1.968-1.115,3.586,3.586,0,0,1,2.224.293A5.7,5.7,0,0,1,92.939,305.879Z" transform="translate(-57.593 -205.224)" fill="#ccc4c4"/>
    <path id="Path_3089" data-name="Path 3089" d="M61.763,283.853a6.973,6.973,0,0,0,1.033.561c.176.083.359.151.538.226.186.059.368.125.554.177a6.628,6.628,0,0,0,2.286.251,3.62,3.62,0,0,0,.572-.061,3.454,3.454,0,0,0,.566-.108l.559-.147.541-.209.272-.1c.088-.041.172-.09.259-.134l.518-.273c.341-.191.655-.427,1-.63-.3.258-.6.521-.914.759l-.506.317c-.085.052-.168.108-.255.157l-.272.127c-.181.085-.363.171-.548.248l-.578.175a3.355,3.355,0,0,1-.591.123,3.807,3.807,0,0,1-.6.071,5.89,5.89,0,0,1-2.377-.335,6.026,6.026,0,0,1-2.053-1.193Z" transform="translate(-41.633 -191.199)" fill="#e2b5b5"/>
    <path id="Path_3090" data-name="Path 3090" d="M158.283,322.989H144.8a1.163,1.163,0,0,1-.983-1.785L147,316.171a1.163,1.163,0,0,1,.983-.542h7.12a1.163,1.163,0,0,1,.983.542l3.183,5.033a1.163,1.163,0,0,1-.983,1.785Z" transform="translate(-96.821 -212.922)" fill="#4f66d0"/>
    <circle id="Ellipse_134" data-name="Ellipse 134" cx="1.991" cy="1.991" r="1.991" transform="translate(52.728 104.396)" fill="#8795de"/>
    <circle id="Ellipse_135" data-name="Ellipse 135" cx="2.472" cy="2.472" r="2.472" transform="translate(52.247 103.915)" fill="none" stroke="#8795de" stroke-linecap="round" stroke-linejoin="round" stroke-width="1" stroke-dasharray="2.38 2.38"/>
    <path id="Path_3091" data-name="Path 3091" d="M181.831,316.638q.106-.147.223-.316" transform="translate(-122.569 -213.39)" fill="none" stroke="#4f66d0" stroke-linecap="round" stroke-linejoin="round" stroke-width="1.19"/>
    <path id="Path_3092" data-name="Path 3092" d="M183.8,256.1a18.73,18.73,0,0,0,1.3-2.442c1.748-3.958,1.209-6.513,2.094-9.773a14.391,14.391,0,0,1,4.607-7.539,12.885,12.885,0,0,0,3.177-3.5c1.482-2.534.914-3.421.82-4.923" transform="translate(-123.899 -153.801)" fill="none" stroke="#4f66d0" stroke-linecap="round" stroke-linejoin="round" stroke-width="1.19" stroke-dasharray="2.341 2.341"/>
    <path id="Path_3093" data-name="Path 3093" d="M220.588,225.946c0-.124,0-.253.013-.388" transform="translate(-148.694 -152.207)" fill="none" stroke="#4f66d0" stroke-linecap="round" stroke-linejoin="round" stroke-width="1.19"/>
    <line id="Line_128" data-name="Line 128" y1="1.526" transform="translate(54.719 101.181)" fill="none" stroke="#4f66d0" stroke-linecap="round" stroke-linejoin="round" stroke-width="2"/>
    <line id="Line_129" data-name="Line 129" x2="5.375" transform="translate(52.032 101.181)" fill="none" stroke="#4f66d0" stroke-linecap="round" stroke-linejoin="round" stroke-width="2"/>
    <path id="Path_3094" data-name="Path 3094" d="M329.6,137.086a3.236,3.236,0,0,1-6.473,0c0-1.787,1.449-4.261,3.236-4.261S329.6,135.3,329.6,137.086Z" transform="translate(-217.811 -89.698)" fill="#fec165"/>
    <path id="Path_3095" data-name="Path 3095" d="M330.185,124.092h1.4a.326.326,0,0,1,.326.326v2.8h-2.056v-2.8a.326.326,0,0,1,.326-.326Z" transform="translate(-222.351 -83.811)" fill="#d77f4a"/>
    <line id="Line_130" data-name="Line 130" y2="35.47" transform="translate(108.549)" fill="none" stroke="#7ca1b1" stroke-miterlimit="10" stroke-width="1"/>
    <path id="Path_3096" data-name="Path 3096" d="M309.728,109.33,298.45,125.063l4.108,4.734h7.171Z" transform="translate(-201.179 -73.86)" fill="none" stroke="#7ca1b1" stroke-miterlimit="10" stroke-width="1"/>
    <path id="Path_3097" data-name="Path 3097" d="M321.391,109.33l-5.639,15.8,1.74,4.664" transform="translate(-212.842 -73.86)" fill="none" stroke="#7ca1b1" stroke-miterlimit="10" stroke-width="1"/>
    <line id="Line_131" data-name="Line 131" x2="11.278" transform="translate(97.271 51.203)" fill="none" stroke="#7ca1b1" stroke-miterlimit="10" stroke-width="1"/>
    <path id="Path_3098" data-name="Path 3098" d="M333.054,109.33l11.278,15.733-4.107,4.734h-7.171Z" transform="translate(-224.505 -73.86)" fill="none" stroke="#7ca1b1" stroke-miterlimit="10" stroke-width="1"/>
    <path id="Path_3099" data-name="Path 3099" d="M333.054,109.33l5.639,15.8-1.74,4.664" transform="translate(-224.505 -73.86)" fill="none" stroke="#7ca1b1" stroke-miterlimit="10" stroke-width="1"/>
    <line id="Line_132" data-name="Line 132" x1="11.278" transform="translate(108.549 51.203)" fill="none" stroke="#7ca1b1" stroke-miterlimit="10" stroke-width="1"/>
    <line id="Line_133" data-name="Line 133" x2="4.846" transform="translate(106.126)" fill="none" stroke="#9857bd" stroke-miterlimit="10" stroke-width="1"/>
    <path id="Path_3100" data-name="Path 3100" d="M162.808,423.018H2.455a.326.326,0,0,1,0-.652H162.808a.326.326,0,1,1,0,.652Z" transform="translate(-1.435 -284.871)" fill="#935b50"/>
    <path id="Path_3101" data-name="Path 3101" d="M394.717,315.128c.786.611,2.171,2.061,2.208,3.149,0,0,2.545-2.767,1.821-5.134a4.42,4.42,0,0,0-2.021-2.036s1-.56,2.046.814c0,0-.374-3.715-5.552-2.367,0,0-2.021-4.122-6.026-.229,0,0,2.695-.344,2.171.5a7.834,7.834,0,0,0-2.689,1.357,2.694,2.694,0,0,0-.9,1.881c-.062,1.005-.158,2.994.037,3.022.262.038,1.984-1.527,3.144-1.412s-2.657,3.55-2.657,3.55.786,2.977,1.123,2.939,1.559-.891,1.06,0l-.861.687,1.123,1.552,2.819-1.247s-1.248-3.41-.1-2.481a4.563,4.563,0,0,1,.886,2.023s3.774-1.641,3.4-2.767a25.288,25.288,0,0,0-1.426-3.043,1.287,1.287,0,0,1-.156-.539C394.152,315.058,394.226,314.746,394.717,315.128Zm-.464-3.953a1.168,1.168,0,0,1,1.549.708c.349.85.335,1.8-.019,2.042s-1.358-.074-1.609-.9c-.279-.916-.274-1.61.079-1.853Z" transform="translate(-259.988 -207.546)" fill="#8b9d36"/>
    <path id="Path_3102" data-name="Path 3102" d="M399.556,313.489a13.973,13.973,0,0,0-1.114,1.448,8.487,8.487,0,0,0-.789,1.634c-.206.57-.371,1.155-.52,1.746s-.294,1.183-.414,1.78-.238,1.195-.329,1.8-.147,1.207-.221,1.816a10.151,10.151,0,0,1-1.076,3.5,12.205,12.205,0,0,0,.6-1.727,9.737,9.737,0,0,0,.318-1.791,28.38,28.38,0,0,1,.506-3.638c.127-.6.278-1.194.435-1.785a14.634,14.634,0,0,1,.554-1.756,8.509,8.509,0,0,1,.854-1.634A12.113,12.113,0,0,1,399.556,313.489Z" transform="translate(-266.323 -211.48)" fill="#5e7c24"/>
    <path id="Path_3103" data-name="Path 3103" d="M394.752,319.441a8.7,8.7,0,0,0-1.211.349c-.394.143-.783.3-1.161.48-.766.342-1.492.763-2.234,1.176.162-.137.331-.265.5-.4s.348-.243.528-.357a10.937,10.937,0,0,1,1.12-.612,9.166,9.166,0,0,1,1.2-.443,4.741,4.741,0,0,1,1.26-.2Z" transform="translate(-262.99 -215.492)" fill="#5e7c24"/>
    <path id="Path_3104" data-name="Path 3104" d="M395.575,337.554c-.29.225-.592.409-.887.6q-.222.142-.433.294a1.189,1.189,0,0,0-.358.372.782.782,0,0,1,.249-.495,2.522,2.522,0,0,1,.428-.348A3.088,3.088,0,0,1,395.575,337.554Z" transform="translate(-265.519 -227.701)" fill="#5e7c24"/>
    <path id="Path_3105" data-name="Path 3105" d="M400.818,329.211a9.971,9.971,0,0,1,.954,1.029,12.075,12.075,0,0,1,.821,1.142,8.064,8.064,0,0,1,.641,1.256,3.824,3.824,0,0,1,.294,1.374,5.415,5.415,0,0,0-.443-1.31,9.992,9.992,0,0,0-.67-1.209c-.235-.4-.5-.776-.771-1.155S401.1,329.585,400.818,329.211Z" transform="translate(-270.183 -222.077)" fill="#5e7c24"/>
    <path id="Path_3106" data-name="Path 3106" d="M390.223,359.181l1.048.967s1.023-1.082,1.135-.331c0,0-.162.751-.362.814,0,0,2.508,2.017,3.013.356a16.014,16.014,0,0,1,.767-2.176s.561.305.075,2.71a5.843,5.843,0,0,0,2.661-1.617.748.748,0,0,0,.127-.417c.007-.6.086-2.282.767-1.65,0,0,.393.191.094,1.47,0,0,1.579-1.781.829-2.875a1.094,1.094,0,0,0-1.342-.354c-.439.19-1.252.541-2.762,1.187A30.133,30.133,0,0,1,390.223,359.181Z" transform="translate(-263.041 -240.122)" fill="#8b9d36"/>
    <path id="Path_3107" data-name="Path 3107" d="M400.818,364.646a5.985,5.985,0,0,1,.516-1.586,3.859,3.859,0,0,1,.443-.718,1.717,1.717,0,0,1,.3-.3.638.638,0,0,1,.4-.143,1.146,1.146,0,0,0-.57.54,7.273,7.273,0,0,0-.387.714C401.281,363.642,401.067,364.146,400.818,364.646Z" transform="translate(-270.183 -244.111)" fill="#5e7c24"/>
    <path id="Path_3108" data-name="Path 3108" d="M411.259,362.278a4.979,4.979,0,0,1,.133-1.466,3.762,3.762,0,0,1,.245-.7,1.1,1.1,0,0,1,.5-.553,1.5,1.5,0,0,0-.344.616c-.073.226-.136.457-.192.69C411.482,361.328,411.387,361.8,411.259,362.278Z" transform="translate(-277.215 -242.532)" fill="#5e7c24"/>
    <path id="Path_3109" data-name="Path 3109" d="M462.294,313.833s-2.52.362-.275,2.143a7.592,7.592,0,0,0,2.445,1.043S465.637,311.92,462.294,313.833Z" transform="translate(-310.81 -211.422)" fill="#5e7c24"/>
    <path id="Path_3110" data-name="Path 3110" d="M466.959,317.908c-.047-.167-.077-.334-.119-.5s-.09-.326-.148-.484a4.693,4.693,0,0,0-.421-.9,3.553,3.553,0,0,0-.635-.758,3.015,3.015,0,0,0-.847-.541,2.132,2.132,0,0,1,.95.414,2.884,2.884,0,0,1,.711.775,3.513,3.513,0,0,1,.4.968c.046.168.063.342.092.512C466.949,317.565,466.96,317.737,466.959,317.908Z" transform="translate(-313.305 -212.311)" fill="#50661a"/>
    <path id="Path_3111" data-name="Path 3111" d="M443.317,280.1s2.794-1.78,3.631,2.172c0,0-1.45-1.248-1.469-.526a5.533,5.533,0,0,1,1.052,1.874,2.052,2.052,0,0,1-.2,1.515,8.153,8.153,0,0,1-1.2,1.858c-.169-.077-.571-1.709-1.3-2.083s.179,3.222.179,3.222-1.622,1.544-1.8,1.391-.57-1.151-.623-.407l.238.756-1.265.531-1.171-1.856s2.062-1.635,1.025-1.5a3.341,3.341,0,0,0-1.309.914s-1.579-2.467-.92-3.022A18.7,18.7,0,0,1,440.2,283.6a.946.946,0,0,0,.343-.335c.093-.16.111-.331-.278-.288a4.1,4.1,0,0,0-2.525,1.1s-.418-2.694.93-3.883a3.111,3.111,0,0,1,1.981-.486s-.368-.73-1.52-.281C439.132,279.433,440.8,277.273,443.317,280.1Z" transform="translate(-295.031 -187.991)" fill="#5e7c24"/>
    <path id="Path_3112" data-name="Path 3112" d="M454.991,290.779c-.228-.556-.442-1.107-.7-1.632a4.752,4.752,0,0,0-.452-.741,1.151,1.151,0,0,0-.7-.481,1.016,1.016,0,0,1,.819.372,3.231,3.231,0,0,1,.517.756A5.408,5.408,0,0,1,454.991,290.779Z" transform="translate(-305.453 -194.247)" fill="#50661a"/>
    <path id="Path_3113" data-name="Path 3113" d="M441.209,296.38a4.2,4.2,0,0,1,.534-.864,4.013,4.013,0,0,1,.725-.724,2.666,2.666,0,0,1,.92-.472,1.772,1.772,0,0,1,1.018.033,2.318,2.318,0,0,0-.97.123,3.221,3.221,0,0,0-.841.482,5.831,5.831,0,0,0-.729.664C441.64,295.865,441.418,296.114,441.209,296.38Z" transform="translate(-297.41 -198.518)" fill="#50661a"/>
    <path id="Path_3114" data-name="Path 3114" d="M447.4,283.112a1.293,1.293,0,0,1,.863-.507,2.027,2.027,0,0,1,.516-.014,2.884,2.884,0,0,1,.506.1l.061.017-.025.063c-.326.824-.6,1.671-.878,2.516s-.509,1.7-.746,2.56-.44,1.723-.638,2.59-.375,1.74-.554,2.613c.11-.885.241-1.767.414-2.643.157-.879.37-1.746.587-2.612s.477-1.72.757-2.568.588-1.686.949-2.505l.036.08-.238-.071c-.081-.015-.162-.036-.243-.049a1.947,1.947,0,0,0-.495-.016A1.306,1.306,0,0,0,447.4,283.112Z" transform="translate(-300.979 -190.645)" fill="#50661a"/>
    <path id="Path_3115" data-name="Path 3115" d="M449.689,304.828a4.63,4.63,0,0,0-.335-.882.794.794,0,0,0-.286-.309.974.974,0,0,0-.447-.083.659.659,0,0,1,.51-.068.762.762,0,0,1,.4.354A1.482,1.482,0,0,1,449.689,304.828Z" transform="translate(-302.406 -204.721)" fill="#50661a"/>
    <path id="Path_3116" data-name="Path 3116" d="M417.382,368.175s-.5-1.715-1.758-.745a2.53,2.53,0,0,0-.874,1.341,8.435,8.435,0,0,0,.136,4.418,12.656,12.656,0,0,1,2.246-2.417C418.209,370.058,418.9,368.429,417.382,368.175Z" transform="translate(-279.422 -247.64)" fill="#c4ce6e"/>
    <path id="Path_3117" data-name="Path 3117" d="M418.135,370.33a2.164,2.164,0,0,0-.49.5,4.931,4.931,0,0,0-.386.587,11.227,11.227,0,0,0-.621,1.264c-.19.431-.355.873-.518,1.317l-.48,1.34c.041-.235.1-.466.143-.7s.123-.46.184-.691a14.309,14.309,0,0,1,.478-1.35,8.9,8.9,0,0,1,.678-1.267A2.875,2.875,0,0,1,418.135,370.33Z" transform="translate(-280.174 -249.795)" fill="#8b9d36"/>
    <path id="Path_3118" data-name="Path 3118" d="M420.852,294.45s.042-1.787-1.449-1.258a2.487,2.487,0,0,0-1.234,1,8.394,8.394,0,0,0-1.2,4.248,12.435,12.435,0,0,1,2.864-1.6C421.074,296.5,422.224,295.168,420.852,294.45Z" transform="translate(-281.072 -197.732)" fill="#8b9d36"/>
    <path id="Path_3119" data-name="Path 3119" d="M420.852,297.255a2.126,2.126,0,0,0-.618.326,4.84,4.84,0,0,0-.544.438,11.045,11.045,0,0,0-.972,1.01c-.311.351-.6.721-.888,1.092l-.859,1.126c.109-.21.23-.413.346-.621s.255-.4.382-.6a14.125,14.125,0,0,1,.861-1.135,8.773,8.773,0,0,1,1.026-1A2.83,2.83,0,0,1,420.852,297.255Z" transform="translate(-281.072 -200.537)" fill="#5e7c24"/>
    <path id="Path_3120" data-name="Path 3120" d="M461.591,368.175s.5-1.715,1.757-.745a2.53,2.53,0,0,1,.874,1.341,8.435,8.435,0,0,1-.136,4.418,12.656,12.656,0,0,0-2.246-2.417C460.764,370.058,460.069,368.429,461.591,368.175Z" transform="translate(-310.556 -247.64)" fill="#8b9d36"/>
    <path id="Path_3121" data-name="Path 3121" d="M463.413,370.33a2.874,2.874,0,0,1,1.012,1.006,8.9,8.9,0,0,1,.678,1.267,14.318,14.318,0,0,1,.478,1.35c.061.231.129.459.184.691s.1.465.143.7l-.48-1.34c-.163-.444-.327-.887-.518-1.317a11.227,11.227,0,0,0-.621-1.264,4.934,4.934,0,0,0-.386-.587A2.162,2.162,0,0,0,463.413,370.33Z" transform="translate(-312.377 -249.795)" fill="#5e7c24"/>
    <path id="Path_3122" data-name="Path 3122" d="M448.44,314s-6.278-5.364-7.9,25.974" transform="translate(-296.956 -211.589)" fill="none" stroke="#50661a" stroke-miterlimit="10" stroke-width="0.644"/>
    <path id="Path_3123" data-name="Path 3123" d="M442.68,314.722s-3.123,20.668-1.252,25.974" transform="translate(-297.155 -212.311)" fill="none" stroke="#50661a" stroke-miterlimit="10" stroke-width="0.644"/>
    <path id="Path_3124" data-name="Path 3124" d="M428.417,377.858s-2.321-9.314-5.122-7.85" transform="translate(-285.334 -249.472)" fill="none" stroke="#50661a" stroke-miterlimit="10" stroke-width="0.644"/>
    <path id="Path_3125" data-name="Path 3125" d="M432.514,324.827s2.023-34.6-3.636-28.889" transform="translate(-289.098 -199.219)" fill="none" stroke="#50661a" stroke-miterlimit="10" stroke-width="0.644"/>
    <path id="Path_3126" data-name="Path 3126" d="M447.7,377.858s2.321-9.314,5.122-7.85" transform="translate(-301.783 -249.472)" fill="none" stroke="#50661a" stroke-miterlimit="10" stroke-width="0.644"/>
    <path id="Path_3127" data-name="Path 3127" d="M420.839,356.728s4.393-1.078,6.789,12.053" transform="translate(-283.679 -240.611)" fill="none" stroke="#50661a" stroke-miterlimit="10" stroke-width="0.644"/>
    <path id="Path_3128" data-name="Path 3128" d="M425.28,331.809s1.273.849,6.089,20.189" transform="translate(-286.673 -223.829)" fill="none" stroke="#50661a" stroke-miterlimit="10" stroke-width="0.644"/>
    <path id="Path_3129" data-name="Path 3129" d="M451.439,345.271s-4.757,7.531-5.2,16.018" transform="translate(-300.801 -232.903)" fill="none" stroke="#50661a" stroke-miterlimit="10" stroke-width="0.644"/>
    <path id="Path_3130" data-name="Path 3130" d="M423.371,386.336v1.742a.6.6,0,0,0,.6.61h11.979a.6.6,0,0,0,.6-.61v-1.606a.6.6,0,0,0-.591-.61l-11.978-.137a.6.6,0,0,0-.6.61Z" transform="translate(-285.386 -260.173)" fill="#d6694b"/>
    <path id="Path_3131" data-name="Path 3131" d="M425.126,394.814l.426,8.993h10.9l.708-8.993Z" transform="translate(-286.569 -266.299)" fill="#e19974"/>
    <path id="Path_3132" data-name="Path 3132" d="M437.459,335.934c.017-.821,1.713.668,1.713.668-1.011-4.536-4.24-2.644-4.24-2.644-2.953-3.334-4.87-.956-4.87-.956,1.333-.456,1.767.392,1.767.392a3.549,3.549,0,0,0-2.3.458c-1.553,1.289-1.044,4.373-1.044,4.373.512-.729,2.112-1.082,2.923-1.137.509-.034.42.216.283.407a1.03,1.03,0,0,1-.347.3,20.374,20.374,0,0,0-2.339,1.427c-.761.6,1.1,3.48,1.1,3.48a3.652,3.652,0,0,1,1.512-.978c1.2-.1-1.177,1.658-1.177,1.658l1.379,2.167,1.466-.545-.285-.872c.056-.844.514.31.728.492s2.085-1.495,2.085-1.495-1.085-4.135-.239-3.673,1.331,2.335,1.528,2.43c.148.072.969-1.338,1.377-2.057a2.249,2.249,0,0,0,.22-1.711A6.685,6.685,0,0,0,437.459,335.934Zm-4.734-.034a1.07,1.07,0,0,1-1.505-.134c-.135-.331.279-.99.9-1.41a.957.957,0,0,1,1.381.233c.135.331-.173.81-.774,1.311Z" transform="translate(-288.782 -224.079)" fill="#5e7c24"/>
    <path id="Path_3133" data-name="Path 3133" d="M442.078,337.635a10.119,10.119,0,0,1,.211,1.5,7.041,7.041,0,0,1-.135,1.517,11.7,11.7,0,0,1-.4,1.467c-.156.479-.317.959-.5,1.432a22.935,22.935,0,0,1-1.287,2.743,7.979,7.979,0,0,0-.588,1.378,10.257,10.257,0,0,0-.37,1.46,8.263,8.263,0,0,1,.814-2.911,26.087,26.087,0,0,0,1.236-2.746c.185-.466.351-.94.513-1.416s.309-.954.424-1.44a7.018,7.018,0,0,0,.19-1.482A12.1,12.1,0,0,0,442.078,337.635Z" transform="translate(-295.928 -227.756)" fill="#50661a"/>
    <path id="Path_3134" data-name="Path 3134" d="M448.859,343.818a3.824,3.824,0,0,1,.791.711,6.736,6.736,0,0,1,.63.861,7.814,7.814,0,0,1,.493.944,7.058,7.058,0,0,1,.353,1l-.5-.929c-.17-.306-.339-.611-.524-.906s-.375-.587-.578-.869A8.183,8.183,0,0,0,448.859,343.818Z" transform="translate(-302.567 -231.924)" fill="#50661a"/>
    <path id="Path_3135" data-name="Path 3135" d="M444.358,358.689a2.32,2.32,0,0,1,.514.748,2,2,0,0,1,.135.441.642.642,0,0,1-.064.461,1.074,1.074,0,0,0-.094-.419c-.054-.133-.11-.266-.169-.4A6.874,6.874,0,0,1,444.358,358.689Z" transform="translate(-299.533 -241.948)" fill="#50661a"/>
    <path id="Path_3136" data-name="Path 3136" d="M438.582,352.136l-1.066.4c-.352.138-.7.278-1.043.437a9.3,9.3,0,0,0-1,.515,4.547,4.547,0,0,0-.9.681,2.972,2.972,0,0,1,.807-.818,5.814,5.814,0,0,1,1-.569A8.253,8.253,0,0,1,438.582,352.136Z" transform="translate(-292.939 -237.531)" fill="#50661a"/>
    <path id="Path_3137" data-name="Path 3137" d="M467.249,324.993s2.434-3.636,5.478.658c0,0-2.384-.719-2.035.157a7.084,7.084,0,0,1,2.229,1.684,2.68,2.68,0,0,1,.539,1.927,10.86,10.86,0,0,1-.479,2.874c-.242,0-1.567-1.744-2.632-1.8s1.877,3.77,1.877,3.77-1.149,2.724-1.448,2.639-1.278-1.075-.958-.154l.677.78-1.243,1.316-2.364-1.6s1.63-3.069.456-2.351a4.481,4.481,0,0,0-1.1,1.8s-3.168-2.113-2.663-3.132a25.034,25.034,0,0,1,1.73-2.683,1.284,1.284,0,0,0,.241-.582c.032-.246-.031-.469-.481-.205-.8.468-2.265,1.649-2.46,2.681,0,0-1.891-3.008-.889-5.159a4.155,4.155,0,0,1,2.126-1.647s-.819-.679-1.969.479C461.884,326.442,462.769,322.955,467.249,324.993Z" transform="translate(-311.043 -218.265)" fill="#c4ce6e"/>
    <path id="Path_3138" data-name="Path 3138" d="M479.277,327.966a26.328,26.328,0,0,1,1.053,3.359c.286,1.14.507,2.3.68,3.458a34.68,34.68,0,0,1,.326,3.509,30.177,30.177,0,0,1-.054,3.52c-.009-1.173-.015-2.344-.108-3.512q-.111-1.751-.373-3.488c-.155-1.159-.378-2.309-.629-3.452S479.63,329.085,479.277,327.966Z" transform="translate(-323.071 -221.238)" fill="#8b9d36"/>
    <path id="Path_3139" data-name="Path 3139" d="M477.944,333.9a5.589,5.589,0,0,0-.526.78,8.5,8.5,0,0,0-.413.837c-.123.286-.229.579-.328.877s-.185.6-.278.906a5,5,0,0,1,.121-.949,5.412,5.412,0,0,1,.293-.916,4.762,4.762,0,0,1,.468-.842,2.871,2.871,0,0,1,.664-.693Z" transform="translate(-321.131 -225.242)" fill="#8b9d36"/>
    <path id="Path_3140" data-name="Path 3140" d="M484.248,348.681a2.4,2.4,0,0,1,1.549,1.135,1.968,1.968,0,0,1,.234.61,5.343,5.343,0,0,0-.787-.978A5.95,5.95,0,0,0,484.248,348.681Z" transform="translate(-326.422 -235.202)" fill="#8b9d36"/>
  </g>
</svg>
