<svg xmlns="http://www.w3.org/2000/svg" width="21.371" height="21.371" viewBox="0 0 21.371 21.371">
  <g id="Octicons" transform="translate(19.01 -1.99)">
    <g id="verified" transform="translate(-19.01 1.99)">
      <path id="Shape" d="M20.921,9.427,19.479,7.639a2,2,0,0,1-.414-1.028l-.254-2.269a2.016,2.016,0,0,0-1.775-1.775l-2.269-.254a2.033,2.033,0,0,1-1.041-.441L11.937.431a2.007,2.007,0,0,0-2.51,0L7.639,1.872a2,2,0,0,1-1.028.414L4.342,2.54A2.015,2.015,0,0,0,2.566,4.315L2.313,6.584a2.033,2.033,0,0,1-.441,1.041L.431,9.414a2.007,2.007,0,0,0,0,2.51l1.442,1.789a2,2,0,0,1,.414,1.028l.254,2.269a2.015,2.015,0,0,0,1.775,1.775l2.269.254a2.033,2.033,0,0,1,1.041.441l1.789,1.442a2.007,2.007,0,0,0,2.51,0l1.789-1.442a2,2,0,0,1,1.028-.414l2.269-.254a2.015,2.015,0,0,0,1.775-1.775l.254-2.269a2.033,2.033,0,0,1,.441-1.041l1.442-1.789A2.007,2.007,0,0,0,20.921,9.427ZM8.68,16.022,4.008,11.35l2-2,2.67,2.67,6.674-6.674,2,2.069Z" transform="translate(0.01 0.01)" fill="#fff" fill-rule="evenodd"/>
    </g>
  </g>
</svg>
