<svg xmlns="http://www.w3.org/2000/svg" width="21.297" height="21.297" viewBox="0 0 21.297 21.297">
  <g id="Octicons" transform="translate(0.01 0.01)">
    <g id="unverified" transform="translate(-0.01 -0.01)">
      <path id="Shape" d="M20.848,9.395,19.411,7.612A2,2,0,0,1,19,6.588l-.253-2.261a2.009,2.009,0,0,0-1.769-1.769L14.716,2.3a2.026,2.026,0,0,1-1.038-.439L11.9.429a2,2,0,0,0-2.5,0L7.612,1.866a2,2,0,0,1-1.024.412l-2.261.253A2.008,2.008,0,0,0,2.557,4.3L2.3,6.561A2.026,2.026,0,0,1,1.866,7.6L.429,9.381a2,2,0,0,0,0,2.5l1.437,1.783a2,2,0,0,1,.412,1.024l.253,2.261A2.008,2.008,0,0,0,4.3,18.72l2.261.253a2.026,2.026,0,0,1,1.038.439l1.783,1.437a2,2,0,0,0,2.5,0l1.783-1.437A2,2,0,0,1,14.689,19l2.261-.253a2.008,2.008,0,0,0,1.769-1.769l.253-2.261a2.026,2.026,0,0,1,.439-1.038L20.848,11.9a2,2,0,0,0,0-2.5ZM11.975,15.3a.659.659,0,0,1-.665.665H9.98a.667.667,0,0,1-.665-.665v-1.33a.667.667,0,0,1,.665-.665h1.33a.659.659,0,0,1,.665.665Zm2.075-6.5a1.853,1.853,0,0,1-.4.625,4.352,4.352,0,0,1-.439.505,4.392,4.392,0,0,1-.692.6,4.912,4.912,0,0,0-.372.359,1.35,1.35,0,0,0-.253.359,2.043,2.043,0,0,0-.146.4.915.915,0,0,0-.04.333H9.488a3.093,3.093,0,0,1,.04-.639,3.5,3.5,0,0,1,.186-.692,2.473,2.473,0,0,1,.333-.559,2.91,2.91,0,0,1,.545-.505,1.722,1.722,0,0,0,.639-.692A1.581,1.581,0,0,0,11.5,8.1a.973.973,0,0,0-.266-.772,1.018,1.018,0,0,0-.772-.253,1.56,1.56,0,0,0-.4.067.8.8,0,0,0-.333.213,1.261,1.261,0,0,0-.266.266A.545.545,0,0,0,9.342,8H6.681a2.057,2.057,0,0,1,.359-1.1A2.752,2.752,0,0,1,7.852,6,3.589,3.589,0,0,1,9.022,5.5a6.188,6.188,0,0,1,1.45-.173,6.786,6.786,0,0,1,1.556.173,3.77,3.77,0,0,1,1.171.519,2.606,2.606,0,0,1,.732.838,2.528,2.528,0,0,1,.253,1.171,1.845,1.845,0,0,1-.106.785L14.051,8.8Z" transform="translate(0.01 0.01)" fill="#fff" fill-rule="evenodd"/>
    </g>
  </g>
</svg>
