<svg xmlns="http://www.w3.org/2000/svg" width="31.156" height="28.041" viewBox="0 0 31.156 28.041">
  <path id="Path_3559" data-name="Path 3559" d="M17.578,3S7.941,11.319,2.556,15.824A1.622,1.622,0,0,0,2,17.02a1.558,1.558,0,0,0,1.558,1.558H6.673v10.9a1.558,1.558,0,0,0,1.558,1.558H12.9a1.558,1.558,0,0,0,1.558-1.558V23.252h6.231v6.231a1.558,1.558,0,0,0,1.558,1.558h4.673a1.558,1.558,0,0,0,1.558-1.558v-10.9H31.6a1.558,1.558,0,0,0,1.558-1.558,1.527,1.527,0,0,0-.6-1.2C27.212,11.319,17.578,3,17.578,3Z" transform="translate(-2 -3)" fill="#919191"/>
</svg>
