<svg xmlns="http://www.w3.org/2000/svg" xmlns:xlink="http://www.w3.org/1999/xlink" width="31.71" height="28.187" viewBox="0 0 31.71 28.187">
  <defs>
    <linearGradient id="linear-gradient" x1="0.5" x2="0.5" y2="1" gradientUnits="objectBoundingBox">
      <stop offset="0" stop-color="#0952ec"/>
      <stop offset="1" stop-color="#589dee"/>
    </linearGradient>
  </defs>
  <path id="Path_3560" data-name="Path 3560" d="M10.025,11.249,11.418,2H4.171L1.143,9.927A2.779,2.779,0,0,0,1,10.808c0,1.945,2.026,3.523,4.529,3.523C7.837,14.332,9.745,12.986,10.025,11.249Zm6.83,3.083c2.5,0,4.529-1.578,4.529-3.523,0-.072-.005-.144-.009-.213l-.9-8.6H13.231l-.9,8.588c0,.072-.007.144-.007.22C12.326,12.753,14.353,14.332,16.855,14.332Zm8.808,1.843V23.14H8.047V16.185a7.413,7.413,0,0,1-2.517.437,7.262,7.262,0,0,1-1.006-.086V27.72a2.472,2.472,0,0,0,2.463,2.466H26.72a2.475,2.475,0,0,0,2.466-2.466V16.537a7.57,7.57,0,0,1-1.006.086A7.32,7.32,0,0,1,25.663,16.174Zm6.906-6.247L29.537,2H22.291l1.392,9.235c.271,1.744,2.179,3.1,4.5,3.1,2.5,0,4.529-1.578,4.529-3.523A2.829,2.829,0,0,0,32.569,9.927Z" transform="translate(-1 -2)" fill="url(#linear-gradient)"/>
</svg>
