<svg xmlns="http://www.w3.org/2000/svg" width="231.052" height="55.329" viewBox="0 0 231.052 55.329">
  <g id="Group_1" data-name="Group 1" transform="translate(-446 111)">
    <path id="Path_39" data-name="Path 39" d="M10.366-79.087v-24.6H14.65l8.879,20.279h-1.9l8.844-20.279h4.25v24.6H29.955L29.921-95.7l1.244.311-6.876,16.3H20.8L13.786-95.393,15.1-95.7v16.618Zm35.86.276a7.444,7.444,0,0,1-4.042-1.106,7.3,7.3,0,0,1-2.729-3.144,11.011,11.011,0,0,1-.967-4.767,11.188,11.188,0,0,1,.985-4.819A7.755,7.755,0,0,1,42.2-95.894a7.112,7.112,0,0,1,4.025-1.157,6.784,6.784,0,0,1,3.731,1.036,5.193,5.193,0,0,1,2.211,2.8l-.415.276V-96.6H56.9v17.516H51.754v-3.6l.415.068a5.033,5.033,0,0,1-2.211,2.8,6.959,6.959,0,0,1-3.732,1Zm1.52-3.974A3.574,3.574,0,0,0,50.7-84.1a5.955,5.955,0,0,0,1.053-3.8A6.031,6.031,0,0,0,50.7-91.715a3.554,3.554,0,0,0-2.955-1.33,3.6,3.6,0,0,0-2.989,1.382,6.058,6.058,0,0,0-1.087,3.835,5.819,5.819,0,0,0,1.053,3.749,3.672,3.672,0,0,0,3.023,1.3Zm13.37,3.7V-91.594q0-1.244-.052-2.5t-.225-2.5h4.906l.553,4.629-.553-.276A5.485,5.485,0,0,1,67.731-95.8a5.709,5.709,0,0,1,3.576-1.209,4.875,4.875,0,0,1,1.053.1,5.3,5.3,0,0,1,.812.242L73.138-91.9a6.08,6.08,0,0,0-2.557-.587,4.692,4.692,0,0,0-2.332.518A3.554,3.554,0,0,0,66.833-90.5a4.789,4.789,0,0,0-.5,2.263v9.155Zm26.256,0L79.6-88l7.462-8.568h6.253l-8.6,9.708.242-2.384,8.81,10.156Zm-12.092,0v-25.427H80.5v25.427Zm35.032-1.864A9.623,9.623,0,0,1,107.2-79.38a12.371,12.371,0,0,1-3.7.57,10.835,10.835,0,0,1-5.061-1.106,7.75,7.75,0,0,1-3.265-3.144,9.754,9.754,0,0,1-1.14-4.837,9.977,9.977,0,0,1,1.106-4.767,8.183,8.183,0,0,1,3.023-3.23,8.489,8.489,0,0,1,4.474-1.157,8.044,8.044,0,0,1,4.25,1.087,7.173,7.173,0,0,1,2.764,3.075,10.67,10.67,0,0,1,.967,4.718v.76H98.636L98.7-90h8.81l-1.347,1.071a5.2,5.2,0,0,0-.846-3.334,3.036,3.036,0,0,0-2.539-1.123,3.289,3.289,0,0,0-2.781,1.3,6.174,6.174,0,0,0-.985,3.783,6.356,6.356,0,0,0,1.157,4.25,4.477,4.477,0,0,0,3.541,1.313,8.58,8.58,0,0,0,2.729-.449,9.091,9.091,0,0,0,2.487-1.278ZM111.626-92.7v-3.9h12.99v3.9Zm12.99,9.4v4.008a6.752,6.752,0,0,1-1.451.38,11.008,11.008,0,0,1-1.555.1,6.425,6.425,0,0,1-4.959-1.848,7.256,7.256,0,0,1-1.71-5.129v-14.925l5.217-1.693v16.514a3.157,3.157,0,0,0,.38,1.658,2.113,2.113,0,0,0,1,.881,3.468,3.468,0,0,0,1.347.259,6.271,6.271,0,0,0,.812-.052q.4-.054.917-.158Zm3.075,4.215v-24.6h4.284l8.879,20.28h-1.9l8.844-20.28h4.249v24.6h-4.768L147.245-95.7l1.244.311-6.876,16.306h-3.489L131.11-95.389l1.313-.311v16.618Zm44.394-1.865a9.623,9.623,0,0,1-3.109,1.572,12.371,12.371,0,0,1-3.7.57,10.835,10.835,0,0,1-5.061-1.106,7.75,7.75,0,0,1-3.265-3.144,9.754,9.754,0,0,1-1.14-4.837,9.977,9.977,0,0,1,1.106-4.767,8.184,8.184,0,0,1,3.023-3.23,8.488,8.488,0,0,1,4.473-1.158,8.044,8.044,0,0,1,4.25,1.087,7.173,7.173,0,0,1,2.764,3.075,10.67,10.67,0,0,1,.969,4.718v.76H160.4l.069-2.59h8.81l-1.347,1.071a5.2,5.2,0,0,0-.846-3.334,3.036,3.036,0,0,0-2.539-1.123,3.289,3.289,0,0,0-2.781,1.3,6.174,6.174,0,0,0-.985,3.783,6.356,6.356,0,0,0,1.157,4.25,4.477,4.477,0,0,0,3.541,1.313,8.58,8.58,0,0,0,2.729-.449,9.091,9.091,0,0,0,2.487-1.278Z" transform="translate(504.654 -6.32)" fill="#4d6dc3"/>
    <path id="Path_21054" data-name="Path 21054" d="M165.15,54.2a7.746,7.746,0,0,1-3.265-3.144,9.755,9.755,0,0,1-1.14-4.837,9.976,9.976,0,0,1,1.106-4.768,8.18,8.18,0,0,1,3.022-3.23,8.5,8.5,0,0,1,4.474-1.156,8.033,8.033,0,0,1,4.25,1.087,7.164,7.164,0,0,1,2.764,3.074,10.674,10.674,0,0,1,.968,4.716v.76H165.748a5.563,5.563,0,0,0,1.128,3.353,4.475,4.475,0,0,0,3.542,1.31,8.6,8.6,0,0,0,2.73-.449,9.1,9.1,0,0,0,2.488-1.278l1.382,3.525a9.622,9.622,0,0,1-3.109,1.571,12.361,12.361,0,0,1-3.7.57h-.289A10.826,10.826,0,0,1,165.15,54.2Zm7.677-10.087a4.333,4.333,0,0,0-.8-2.263,3.035,3.035,0,0,0-2.54-1.123,3.29,3.29,0,0,0-2.781,1.3,4.815,4.815,0,0,0-.848,2.091ZM99.076,55.308a6.217,6.217,0,0,1-4.9-1.831q-1.624-1.831-1.624-5.528V37.516h5.216V48.053a3.6,3.6,0,0,0,.673,2.4,2.62,2.62,0,0,0,2.091.778,3.338,3.338,0,0,0,2.591-1.106,4.209,4.209,0,0,0,1-2.937V37.516h5.252V55.031H104.3V52.495a5.889,5.889,0,0,1-1.777,1.862,6.187,6.187,0,0,1-3.3.952Zm97.771-2.141,1.417-3.628a10.658,10.658,0,0,0,3.091,1.537,11.43,11.43,0,0,0,3.438.535,4.089,4.089,0,0,0,2.072-.431,1.331,1.331,0,0,0,.725-1.193,1.174,1.174,0,0,0-.518-1.019,5.728,5.728,0,0,0-1.831-.673l-2.863-.692a7.171,7.171,0,0,1-3.749-1.727,4.38,4.38,0,0,1-1.192-3.213,4.659,4.659,0,0,1,.95-2.884,6.346,6.346,0,0,1,2.643-1.986,9.928,9.928,0,0,1,3.94-.726,11.821,11.821,0,0,1,3.662.571,11.661,11.661,0,0,1,3.213,1.607l-1.452,3.489a11.314,11.314,0,0,0-2.746-1.417,8.271,8.271,0,0,0-2.712-.483,3.79,3.79,0,0,0-2,.449,1.391,1.391,0,0,0-.725,1.244,1.133,1.133,0,0,0,.431.932,4.241,4.241,0,0,0,1.538.622l2.937.657a7.818,7.818,0,0,1,3.9,1.865,4.561,4.561,0,0,1,1.21,3.317,4.624,4.624,0,0,1-1.986,3.94,9.149,9.149,0,0,1-5.48,1.449,13.063,13.063,0,0,1-7.913-2.142Zm-17.412,0,1.417-3.628a10.658,10.658,0,0,0,3.091,1.537,11.43,11.43,0,0,0,3.438.535,4.089,4.089,0,0,0,2.072-.431,1.331,1.331,0,0,0,.725-1.193,1.174,1.174,0,0,0-.518-1.019,5.715,5.715,0,0,0-1.831-.673l-2.867-.691a7.167,7.167,0,0,1-3.748-1.727,4.377,4.377,0,0,1-1.193-3.213,4.668,4.668,0,0,1,.951-2.885,6.354,6.354,0,0,1,2.643-1.986,9.939,9.939,0,0,1,3.939-.725,11.823,11.823,0,0,1,3.663.571,11.66,11.66,0,0,1,3.212,1.6l-1.451,3.491a11.321,11.321,0,0,0-2.747-1.417,8.287,8.287,0,0,0-2.712-.484,3.8,3.8,0,0,0-2,.449,1.4,1.4,0,0,0-.726,1.244,1.135,1.135,0,0,0,.432.933,4.26,4.26,0,0,0,1.537.622l2.937.656a7.833,7.833,0,0,1,3.9,1.866,4.555,4.555,0,0,1,1.209,3.317,4.621,4.621,0,0,1-1.986,3.94,9.127,9.127,0,0,1-5.476,1.449,13.063,13.063,0,0,1-7.911-2.138Zm-67.022,0,1.416-3.628a10.674,10.674,0,0,0,3.092,1.537,11.42,11.42,0,0,0,3.437.535,4.089,4.089,0,0,0,2.072-.431,1.328,1.328,0,0,0,.725-1.193,1.17,1.17,0,0,0-.518-1.019,5.715,5.715,0,0,0-1.831-.673l-2.867-.691a7.171,7.171,0,0,1-3.749-1.727A4.38,4.38,0,0,1,113,42.665a4.667,4.667,0,0,1,.95-2.885,6.354,6.354,0,0,1,2.643-1.986,9.943,9.943,0,0,1,3.94-.725,11.821,11.821,0,0,1,3.662.571,11.661,11.661,0,0,1,3.213,1.606l-1.452,3.489a11.315,11.315,0,0,0-2.746-1.417,8.3,8.3,0,0,0-2.712-.484,3.807,3.807,0,0,0-2,.449,1.393,1.393,0,0,0-.725,1.244,1.134,1.134,0,0,0,.431.933,4.257,4.257,0,0,0,1.538.622l2.937.656a7.825,7.825,0,0,1,3.9,1.866,4.556,4.556,0,0,1,1.21,3.317,4.624,4.624,0,0,1-1.986,3.94,9.136,9.136,0,0,1-5.477,1.448,13.058,13.058,0,0,1-7.913-2.142ZM6.675,55.308A6.675,6.675,0,0,1,0,48.632V6.675A6.676,6.676,0,0,1,6.674,0H48.632a6.675,6.675,0,0,1,6.675,6.675V48.632a6.674,6.674,0,0,1-6.676,6.675Zm145.606-.275V44.667a4.282,4.282,0,0,0-.674-2.7,2.575,2.575,0,0,0-2.124-.828,3.607,3.607,0,0,0-2.764,1.1,4.168,4.168,0,0,0-1.037,2.971v9.812h-5.217V42.525q0-1.243-.051-2.5t-.225-2.5H145.1l.31,2.792a6.6,6.6,0,0,1,2.2-2.256,6.96,6.96,0,0,1,3.713-.985q6.184,0,6.185,7.358v10.6Zm-83.329,0v-24.6H80.283a9.744,9.744,0,0,1,6.046,1.71,5.565,5.565,0,0,1,2.245,4.682,5.686,5.686,0,0,1-1.139,3.541,5.9,5.9,0,0,1-2.67,1.934,6.441,6.441,0,0,1,3.17,2.021,6.08,6.08,0,0,1,1.3,3.974,5.938,5.938,0,0,1-2.3,4.923,9.918,9.918,0,0,1-6.3,1.814Zm5.286-4.145h5.769a5.405,5.405,0,0,0,3.162-.725,2.767,2.767,0,0,0,.985-2.384,2.873,2.873,0,0,0-.985-2.4,5.116,5.116,0,0,0-3.162-.777h-5.77Zm0-10.434h5.148a5.253,5.253,0,0,0,3.091-.725,2.566,2.566,0,0,0,.985-2.211,2.541,2.541,0,0,0-1-2.228,5.368,5.368,0,0,0-3.074-.708H74.237ZM131,55.031V37.516h5.217V55.031ZM130.792,34.2V29.293h5.631V34.2Z" transform="translate(446 -111)" fill="#4cc344"/>
    <path id="Path_21055" data-name="Path 21055" d="M27.511,44.959l.306-.781a2.28,2.28,0,0,0,.664.329,2.447,2.447,0,0,0,.739.115.883.883,0,0,0,.446-.093.286.286,0,0,0,.156-.257.25.25,0,0,0-.112-.219,1.24,1.24,0,0,0-.394-.146L28.7,43.76a1.546,1.546,0,0,1-.808-.37.939.939,0,0,1-.256-.691,1,1,0,0,1,.2-.62,1.363,1.363,0,0,1,.569-.428,2.131,2.131,0,0,1,.847-.156,2.543,2.543,0,0,1,.787.122,2.488,2.488,0,0,1,.691.346l-.312.751a2.436,2.436,0,0,0-.59-.306,1.788,1.788,0,0,0-.583-.1.818.818,0,0,0-.431.1.3.3,0,0,0-.156.267.243.243,0,0,0,.093.2.9.9,0,0,0,.331.134l.632.141a1.675,1.675,0,0,1,.839.4.979.979,0,0,1,.261.713,1,1,0,0,1-.427.847,1.958,1.958,0,0,1-1.176.313h-.155a2.807,2.807,0,0,1-1.545-.464Zm-3.745,0,.305-.781a2.3,2.3,0,0,0,.664.329,2.457,2.457,0,0,0,.74.115.876.876,0,0,0,.447-.091.287.287,0,0,0,.156-.257.253.253,0,0,0-.112-.22,1.238,1.238,0,0,0-.394-.145l-.617-.149a1.547,1.547,0,0,1-.806-.372.941.941,0,0,1-.257-.691,1,1,0,0,1,.2-.621,1.361,1.361,0,0,1,.569-.427,2.134,2.134,0,0,1,.847-.157,2.564,2.564,0,0,1,1.48.468l-.312.751a2.423,2.423,0,0,0-.591-.3,1.766,1.766,0,0,0-.583-.1.82.82,0,0,0-.432.1.3.3,0,0,0-.156.268.243.243,0,0,0,.093.2.912.912,0,0,0,.33.133l.632.141a1.685,1.685,0,0,1,.84.4.977.977,0,0,1,.26.714.993.993,0,0,1-.427.847,1.963,1.963,0,0,1-1.178.312h-.155a2.807,2.807,0,0,1-1.543-.462Zm-14.417,0,.305-.781a2.3,2.3,0,0,0,.664.329,2.457,2.457,0,0,0,.74.115.878.878,0,0,0,.446-.093.286.286,0,0,0,.156-.257.252.252,0,0,0-.111-.219,1.24,1.24,0,0,0-.394-.146l-.616-.149a1.537,1.537,0,0,1-.806-.372.936.936,0,0,1-.256-.691,1,1,0,0,1,.2-.62,1.371,1.371,0,0,1,.569-.428,2.134,2.134,0,0,1,.847-.156,2.539,2.539,0,0,1,.788.122,2.5,2.5,0,0,1,.692.347l-.312.751a2.436,2.436,0,0,0-.59-.306,1.8,1.8,0,0,0-.583-.1.814.814,0,0,0-.431.1.3.3,0,0,0-.155.268.238.238,0,0,0,.093.2.9.9,0,0,0,.33.134l.632.141a1.685,1.685,0,0,1,.84.4.978.978,0,0,1,.26.713,1,1,0,0,1-.427.848,1.961,1.961,0,0,1-1.179.311H10.9A2.806,2.806,0,0,1,9.349,44.959Zm-3.925.067a1.747,1.747,0,0,1-.348-1.189V41.592H6.2v2.267a.779.779,0,0,0,.145.517.564.564,0,0,0,.45.167.717.717,0,0,0,.557-.238.9.9,0,0,0,.215-.632V41.592H8.695v3.767H7.6v-.545a1.262,1.262,0,0,1-.383.4,1.328,1.328,0,0,1-.74.2h-.1a1.34,1.34,0,0,1-.953-.389Zm15.269.158a1.667,1.667,0,0,1-.7-.676,2.107,2.107,0,0,1-.246-1.04,2.15,2.15,0,0,1,.239-1.026,1.762,1.762,0,0,1,.65-.695A1.823,1.823,0,0,1,21.6,41.5a1.725,1.725,0,0,1,.914.234,1.539,1.539,0,0,1,.594.661,2.308,2.308,0,0,1,.209,1.014v.164h-2.5a1.373,1.373,0,0,0,.252.722.965.965,0,0,0,.761.283,1.866,1.866,0,0,0,.588-.1,1.969,1.969,0,0,0,.535-.275l.3.756a2.069,2.069,0,0,1-.669.339,2.65,2.65,0,0,1-.8.122H21.72a2.326,2.326,0,0,1-1.027-.237Zm1.658-2.17a1.121,1.121,0,0,0-.179-.487.655.655,0,0,0-.546-.242.708.708,0,0,0-.6.279,1.324,1.324,0,0,0-.187.45ZM2.512,45.36H0V40.068H2.437a2.1,2.1,0,0,1,1.3.368,1.2,1.2,0,0,1,.483,1.007,1.214,1.214,0,0,1-.246.761,1.269,1.269,0,0,1-.574.416,1.391,1.391,0,0,1,.682.435,1.309,1.309,0,0,1,.279.854,1.279,1.279,0,0,1-.5,1.059,2.137,2.137,0,0,1-1.236.394Q2.572,45.363,2.512,45.36Zm-1.375-.892H2.378a1.159,1.159,0,0,0,.68-.157.591.591,0,0,0,.211-.512.616.616,0,0,0-.211-.517,1.1,1.1,0,0,0-.68-.167H1.137Zm0-2.245H2.244a1.124,1.124,0,0,0,.665-.156.64.64,0,0,0,0-.955,1.151,1.151,0,0,0-.661-.152H1.138Zm16.788,3.136V43.13a.916.916,0,0,0-.145-.58.551.551,0,0,0-.457-.178.775.775,0,0,0-.594.238.9.9,0,0,0-.223.639V45.36H15.384V42.67c0-.178,0-.357-.012-.538a5.379,5.379,0,0,0-.049-.539h1.055l.067.6a1.421,1.421,0,0,1,.471-.485,1.5,1.5,0,0,1,.8-.212q1.33,0,1.33,1.582v2.281Zm-4.577,0V41.592h1.121v3.767ZM13.3,40.878V39.823h1.21v1.055ZM.569,37.753a1.126,1.126,0,0,1-.23-.687L2.172,11.408a.941.941,0,0,1,.917-.87h4.53V7.331a7.331,7.331,0,1,1,14.662,0v3.208h5.55a.944.944,0,0,1,.917.87l1.832,25.658a.8.8,0,0,1-.229.687.937.937,0,0,1-.688.275H1.205a.867.867,0,0,1-.636-.276ZM2.219,36.2H28.655l-1.7-23.826H22.282V18.33a.917.917,0,0,1-1.834,0V12.371h-11v5.956a.917.917,0,0,1-1.834,0V12.371h-3.7ZM20.448,12.371Zm0-1.832V7.331a5.5,5.5,0,0,0-11,0v3.208Zm-9.14,22.719v.005a2.168,2.168,0,0,1,.844-4.165h.632V25.072H11.442a.191.191,0,0,1-.192-.192V23.73a.192.192,0,0,1,.192-.193h5.322L12.91,19.682a.193.193,0,0,1,0-.272l.815-.815a.193.193,0,0,1,.272,0l4.937,4.937h1.331a.193.193,0,0,1,.193.193v1.15a.192.192,0,0,1-.193.192H18.923v6.906a.192.192,0,0,1-.192.193h-1.15a.193.193,0,0,1-.193-.193V30.626H14.319v.656a2.169,2.169,0,0,1-3.011,1.975Zm.211-1.993h0a.633.633,0,0,0,1.266.02v-.653h-.634a.635.635,0,0,0-.633.632Zm2.8-2.167h3.07V25.072h-3.07ZM9.452,14.368Z" transform="translate(458.228 -105.905)" fill="#fff"/>
  </g>
</svg>
